<?xml version="1.0" encoding="UTF-8"?>
<svg width="400px" height="400px" viewBox="0 0 400 400" version="1.1" xmlns="http://www.w3.org/2000/svg" xmlns:xlink="http://www.w3.org/1999/xlink">
    <title>news-transform</title>
    <defs>
        <radialGradient cx="64.5381076%" cy="93.410799%" fx="64.5381076%" fy="93.410799%" r="150.831631%" id="radialGradient-1">
            <stop stop-color="#EFF0F2" offset="0%"></stop>
            <stop stop-color="#CCD1D6" offset="100%"></stop>
        </radialGradient>
        <path d="M200,0 C310.45695,0 400,89.54305 400,200 C400,310.45695 310.45695,400 200,400 C89.54305,400 0,310.45695 0,200 C0,89.54305 89.54305,0 200,0 Z M200,124.285714 C158.184155,124.285714 124.285714,158.184155 124.285714,200 C124.285714,241.815845 158.184155,275.714286 200,275.714286 C241.815845,275.714286 275.714286,241.815845 275.714286,200 C275.714286,158.184155 241.815845,124.285714 200,124.285714 Z" id="path-2"></path>
        <linearGradient x1="0%" y1="49.9999501%" x2="99.9999663%" y2="49.9999501%" id="linearGradient-4">
            <stop stop-color="#00AEEF" offset="0%"></stop>
            <stop stop-color="#00C3A7" offset="100%"></stop>
        </linearGradient>
        <linearGradient x1="6.66395644%" y1="33.0842859%" x2="89.3542914%" y2="40.5384911%" id="linearGradient-5">
            <stop stop-color="#FDD83D" offset="0%"></stop>
            <stop stop-color="#F9A11A" offset="100%"></stop>
        </linearGradient>
        <linearGradient x1="6.29409949%" y1="24.3406501%" x2="70.5141152%" y2="58.4087761%" id="linearGradient-6">
            <stop stop-color="#FBB117" offset="0%"></stop>
            <stop stop-color="#EF5221" offset="100%"></stop>
            <stop stop-color="#EF5221" offset="100%"></stop>
        </linearGradient>
        <linearGradient x1="8.49326535%" y1="31.2288503%" x2="86.1483943%" y2="39.7021388%" id="linearGradient-7">
            <stop stop-color="#EF5221" offset="0%"></stop>
            <stop stop-color="#CF4D9A" offset="100%"></stop>
        </linearGradient>
        <linearGradient x1="-13.2201885%" y1="10.6936473%" x2="82.721199%" y2="58.5849178%" id="linearGradient-8">
            <stop stop-color="#67549C" offset="0%"></stop>
            <stop stop-color="#00AABD" offset="100%"></stop>
        </linearGradient>
        <circle id="path-9" cx="200" cy="200" r="68.5714286"></circle>
        <filter x="-12.4%" y="-11.7%" width="124.8%" height="124.8%" filterUnits="objectBoundingBox" id="filter-10">
            <feOffset dx="0" dy="1" in="SourceAlpha" result="shadowOffsetOuter1"></feOffset>
            <feGaussianBlur stdDeviation="5.5" in="shadowOffsetOuter1" result="shadowBlurOuter1"></feGaussianBlur>
            <feColorMatrix values="0 0 0 0 0   0 0 0 0 0   0 0 0 0 0  0 0 0 0.323945586 0" type="matrix" in="shadowBlurOuter1"></feColorMatrix>
        </filter>
    </defs>
    <g id="Page-1" stroke="none" stroke-width="1" fill="none" fill-rule="evenodd">
        <g id="news-transform">
            <g id="Group-33">
                <mask id="mask-3" fill="white">
                    <use xlink:href="#path-2"></use>
                </mask>
                <use id="Mask" fill="url(#radialGradient-1)" xlink:href="#path-2"></use>
                <g mask="url(#mask-3)">
                    <g transform="translate(-15.777550, 4.288244)">
                        <path d="M326.752092,38.4136299 C295.388865,15.4693678 256.889147,1.93019883 215.082109,1.93019883 C173.623908,1.93019883 135.118757,15.2500378 103.895311,37.8491767 C124.508138,65.2396143 161.568145,116.712733 215.075333,192.268533 C273.227626,111.97188 310.453212,60.6869125 326.752092,38.4136299 Z" id="Oval" fill="url(#linearGradient-4)" transform="translate(215.323702, 97.099366) rotate(-1.000000) translate(-215.323702, -97.099366) "></path>
                        <path d="M420.361613,103.36962 C389.558771,81.9111363 352.238924,69.3153065 311.845646,69.2898974 C272.116935,69.2649825 235.103172,81.4038343 204.597346,102.183139 C203.211196,103.127327 201.838484,104.089355 200.479564,105.068891 C221.148223,132.422628 258.376773,182.683542 312.165214,255.851635 C385.053705,154.724704 421.119171,103.897365 420.361613,103.36962 Z" id="Oval-Copy-7" fill="url(#linearGradient-5)" transform="translate(310.426433, 162.570766) rotate(71.000000) translate(-310.426433, -162.570766) "></path>
                        <path d="M389.506616,216.682688 C358.140999,193.786316 319.624396,180.293031 277.784991,180.334395 C236.294694,180.375605 197.747029,193.720385 166.477852,216.331739 C187.080503,243.681095 224.120093,295.078613 277.59662,370.524295 C335.870537,290.234708 373.173869,238.954172 389.506616,216.682688 Z" id="Oval-Copy-8" fill="url(#linearGradient-6)" transform="translate(277.992234, 275.429345) rotate(142.000000) translate(-277.992234, -275.429345) "></path>
                        <path d="M273.18665,220.155292 C241.780879,197.19499 203.243288,183.625207 161.409553,183.585502 C119.924878,183.546302 81.4082073,196.818211 50.1869995,219.372072 C70.8398675,246.765112 107.974052,298.241472 161.589554,373.801153 C219.700187,293.61347 256.899219,242.398183 273.18665,220.155292 Z" id="Oval-Copy-10" fill="url(#linearGradient-7)" transform="translate(161.686825, 278.693328) rotate(214.000000) translate(-161.686825, -278.693328) "></path>
                        <path d="M233.719821,109.294512 C202.308958,86.4095328 163.743382,72.9139738 121.857404,72.9365884 C80.3209221,72.9590709 41.7363436,86.2717154 10.4425342,108.843894 C31.0804532,136.172076 68.1844505,187.52905 121.754526,262.914817 C180.057157,182.740667 217.378922,131.533899 233.719821,109.294512 Z" id="Oval-Copy-11" fill="url(#linearGradient-8)" transform="translate(122.081177, 167.925703) rotate(286.000000) translate(-122.081177, -167.925703) "></path>
                    </g>
                </g>
            </g>
            <g id="Oval">
                <use fill="black" fill-opacity="1" filter="url(#filter-10)" xlink:href="#path-9"></use>
                <use fill="url(#radialGradient-1)" fill-rule="evenodd" xlink:href="#path-9"></use>
            </g>
            <path d="M197.377232,191.660156 L198.632813,189.539621 C196.995908,188.358445 195.614769,186.902902 194.489397,185.172991 C195.726376,182.215402 196.447173,178.12779 196.651786,172.910156 L196.651786,172.910156 L198.228237,172.910156 L198.228237,170.538504 L192.773438,170.538504 C193.164063,168.771391 193.419829,167.478609 193.540737,166.660156 L193.540737,166.660156 L191.113281,166.311384 C190.443638,170.505952 189.341518,174.040179 187.80692,176.914062 L187.80692,176.914062 L189.453125,178.964844 C190.336682,177.569754 191.224888,175.551525 192.117746,172.910156 L192.117746,172.910156 L194.22433,172.910156 C194.112723,176.816406 193.703497,179.932106 192.996652,182.257254 C192.596726,181.355097 192.196801,180.029762 191.796875,178.28125 L191.796875,178.28125 L189.606585,179.481027 C190.090216,181.629464 190.801711,183.536086 191.741071,185.200893 C190.77381,186.763393 189.392671,188.270089 187.597656,189.720982 L187.597656,189.720982 L189.257813,191.604353 C190.718006,190.441778 192.02474,189.06064 193.178013,187.460938 C194.005766,188.772321 195.405506,190.172061 197.377232,191.660156 L197.377232,191.660156 Z M174.260603,191.688058 C176.474144,191.343936 178.855097,190.534784 181.40346,189.260603 C182.445126,189.651228 183.919271,190.288318 185.825893,191.171875 L185.825893,191.171875 L187.234933,189.344308 C186.128162,188.795573 184.812128,188.214286 183.28683,187.600446 C183.807664,187.051711 184.407552,186.270461 185.086496,185.256696 L185.086496,185.256696 L188.546317,185.256696 L188.546317,183.317522 L185.993304,183.317522 C186.09561,183.150112 186.146763,182.996652 186.146763,182.857143 L186.146763,182.857143 L183.942522,182.34096 C183.775112,182.759487 183.621652,183.085007 183.482143,183.317522 L183.482143,183.317522 L180.887277,183.317522 L181.919643,181.685268 L187.137277,181.685268 L187.137277,176.969866 L182.087054,176.969866 L182.087054,175.63058 L187.081473,175.63058 L187.081473,172.519531 L188.490513,172.519531 L188.490513,170.691964 L187.081473,170.691964 L187.081473,167.622768 L182.087054,167.622768 L182.087054,166.520647 L179.715402,166.520647 L179.715402,167.622768 L174.651228,167.622768 L174.651228,170.691964 L173.367746,170.691964 L173.367746,172.519531 L174.651228,172.519531 L174.651228,175.63058 L179.715402,175.63058 L179.715402,176.969866 L174.720982,176.969866 L174.720982,181.685268 L179.05971,181.685268 L177.999442,183.317522 L173.479353,183.317522 L173.479353,185.256696 L176.450893,185.256696 C176.25558,185.526414 175.706845,186.144903 174.804688,187.112165 C175.799851,187.326079 177.02753,187.698103 178.487723,188.228237 C176.999628,188.851376 175.255766,189.288504 173.256138,189.539621 L173.256138,189.539621 L174.260603,191.688058 Z M184.765625,170.691964 L182.087054,170.691964 L182.087054,169.422433 L184.765625,169.422433 L184.765625,170.691964 Z M179.715402,170.691964 L176.939174,170.691964 L176.939174,169.422433 L179.715402,169.422433 L179.715402,170.691964 Z M184.765625,173.858817 L182.087054,173.858817 L182.087054,172.519531 L184.765625,172.519531 L184.765625,173.858817 Z M179.715402,173.886719 L176.939174,173.886719 L176.939174,172.519531 L179.715402,172.519531 L179.715402,173.886719 Z M184.863281,179.857701 L182.087054,179.857701 L182.087054,178.741629 L184.863281,178.741629 L184.863281,179.857701 Z M179.715402,179.857701 L177.022879,179.857701 L177.022879,178.741629 L179.715402,178.741629 L179.715402,179.857701 Z M181.026786,186.777344 L178.822545,186.107701 C179.231771,185.605469 179.454985,185.321801 179.492188,185.256696 L179.492188,185.256696 L182.310268,185.256696 C181.984747,185.740327 181.55692,186.24721 181.026786,186.777344 L181.026786,186.777344 Z M226.883371,190.683594 L226.883371,188.172433 L222.34933,188.172433 C223.260789,183.736049 223.962984,179.346168 224.455915,175.00279 L224.455915,175.00279 L222.405134,173.74721 L226.171875,173.74721 L226.171875,171.194196 L219.196429,171.194196 C218.722098,169.473586 218.168713,167.845982 217.536272,166.311384 L217.536272,166.311384 L214.99721,166.911272 C215.713356,168.557478 216.238839,169.985119 216.573661,171.194196 L216.573661,171.194196 L209.109933,171.194196 L209.109933,173.74721 L212.80692,173.74721 L211.035156,174.946987 C212.039621,179.820499 212.741815,184.228981 213.141741,188.172433 L213.141741,188.172433 L208.426339,188.172433 L208.426339,190.683594 L226.883371,190.683594 Z M207.491629,191.450893 L207.491629,172.714844 L208.482143,170.62221 C209.142485,169.171317 209.630766,167.952939 209.946987,166.967076 L209.946987,166.967076 L207.393973,166.339286 C205.887277,170.673363 203.994606,174.207589 201.71596,176.941964 L201.71596,176.941964 L202.859933,179.634487 C203.669085,178.75093 204.361979,177.899926 204.938616,177.081473 L204.938616,177.081473 L204.938616,191.450893 L207.491629,191.450893 Z M219.712612,188.172433 L215.708705,188.172433 C214.946057,182.02474 214.164807,177.216332 213.364955,173.74721 L213.364955,173.74721 L222.000558,173.74721 C221.591332,178.137091 220.828683,182.945499 219.712612,188.172433 L219.712612,188.172433 Z M196.595982,226.509487 L198.423549,225.30971 C197.902716,224.547061 197.172619,223.575149 196.233259,222.393973 L196.233259,222.393973 L197.02846,222.393973 L197.02846,214.344308 L192.201451,214.344308 L192.201451,213.032924 L197.684152,213.032924 L197.684152,210.884487 L192.201451,210.884487 L192.201451,209.280134 L189.773996,209.280134 L189.773996,210.884487 L184.375,210.884487 L184.375,213.032924 L189.773996,213.032924 L189.773996,214.344308 L184.891183,214.344308 L184.891183,222.393973 L189.773996,222.393973 L189.773996,223.942522 C187.951079,224.035528 185.970052,224.082031 183.830915,224.082031 L183.830915,224.082031 L184.235491,226.118862 C187.881324,226.09096 191.736421,225.849144 195.800781,225.393415 C196.0984,225.77474 196.363467,226.146763 196.595982,226.509487 L196.595982,226.509487 Z M179.771205,234.37779 L179.771205,230.597098 L183.370536,230.597098 L183.370536,228.253348 L179.771205,228.253348 L179.771205,226.746652 L183.091518,226.746652 L183.091518,215.223214 L179.771205,215.223214 L179.771205,213.577009 L183.565848,213.577009 L183.565848,211.316964 L179.771205,211.316964 L179.771205,209.280134 L177.455357,209.280134 L177.455357,211.316964 L173.423549,211.316964 L173.423549,213.577009 L177.455357,213.577009 L177.455357,215.223214 L174.051339,215.223214 L174.051339,226.746652 L177.455357,226.746652 L177.455357,228.253348 L173.395647,228.253348 L173.395647,230.597098 L177.455357,230.597098 L177.455357,234.37779 L179.771205,234.37779 Z M194.68471,217.427455 L192.201451,217.427455 L192.201451,216.25558 L194.68471,216.25558 L194.68471,217.427455 Z M189.773996,217.427455 L187.234933,217.427455 L187.234933,216.25558 L189.773996,216.25558 L189.773996,217.427455 Z M180.94308,219.882812 L179.771205,219.882812 L179.771205,217.511161 L180.94308,217.511161 L180.94308,219.882812 Z M177.455357,219.882812 L176.227679,219.882812 L176.227679,217.511161 L177.455357,217.511161 L177.455357,219.882812 Z M194.68471,220.510603 L192.201451,220.510603 L192.201451,219.282924 L194.68471,219.282924 L194.68471,220.510603 Z M189.773996,220.510603 L187.234933,220.510603 L187.234933,219.282924 L189.773996,219.282924 L189.773996,220.510603 Z M180.94308,224.486607 L179.771205,224.486607 L179.771205,222.087054 L180.94308,222.087054 L180.94308,224.486607 Z M177.455357,224.486607 L176.227679,224.486607 L176.227679,222.087054 L177.455357,222.087054 L177.455357,224.486607 Z M192.201451,223.775112 L192.201451,222.393973 L195.479911,222.393973 L193.861607,223.175223 C193.991815,223.268229 194.140625,223.398438 194.308036,223.565848 L194.308036,223.565848 L192.201451,223.775112 Z M193.736049,234.37779 C194.182478,234.37779 194.610305,234.180153 195.019531,233.784877 C195.428757,233.389602 195.633371,232.9734 195.633371,232.536272 L195.633371,232.536272 L195.633371,229.118304 L198.28404,229.118304 L198.28404,227.02567 L195.633371,227.02567 L195.633371,226.146763 L193.178013,226.146763 L193.178013,227.02567 L184.137835,227.02567 L184.137835,229.118304 L193.178013,229.118304 L193.178013,231.657366 C193.178013,231.982887 193.024554,232.145647 192.717634,232.145647 C192.066592,232.145647 191.350446,232.127046 190.569196,232.089844 L190.569196,232.089844 L191.336496,234.308036 C191.727121,234.354539 192.526972,234.37779 193.736049,234.37779 Z M188.253348,232.885045 L190.345982,231.601562 C189.313616,230.625 188.485863,229.890253 187.862723,229.397321 L187.862723,229.397321 L185.770089,230.625 C186.672247,231.313244 187.5,232.066592 188.253348,232.885045 L188.253348,232.885045 Z M223.200335,224.709821 C224.046689,224.709821 224.720982,224.491257 225.223214,224.054129 C225.725446,223.617001 225.976562,223.045015 225.976562,222.33817 L225.976562,222.33817 L225.976562,209.517299 L223.549107,209.517299 L223.549107,221.570871 C223.549107,221.896391 223.444475,222.121931 223.235212,222.247489 C223.025949,222.373047 222.223772,222.435826 220.828683,222.435826 C220.131138,222.435826 219.456845,222.412574 218.805804,222.366071 L218.805804,222.366071 L219.545201,224.709821 L223.200335,224.709821 Z M204.547991,224.919085 C206.742932,222.947359 207.97061,220.668713 208.231027,218.083147 L208.231027,218.083147 L211.369978,218.083147 L211.369978,223.830915 L213.825335,223.830915 L213.825335,218.083147 L217.201451,218.083147 L217.201451,215.851004 L213.825335,215.851004 L213.825335,212.140067 L216.824777,212.140067 L216.824777,209.824219 L202.692522,209.824219 L202.692522,212.140067 L206.026786,212.140067 L206.026786,215.851004 L202.260045,215.851004 L202.260045,218.083147 L205.831473,218.083147 C205.580357,219.896763 204.571243,221.584821 202.804129,223.147321 L202.804129,223.147321 L204.547991,224.919085 Z M220.856585,220.398996 L220.856585,210.744978 L218.373326,210.744978 L218.373326,220.398996 L220.856585,220.398996 Z M211.369978,215.851004 L208.454241,215.851004 L208.454241,212.140067 L211.369978,212.140067 L211.369978,215.851004 Z M226.883371,233.708147 L226.883371,231.462054 L215.736607,231.462054 L215.736607,228.769531 L225.195312,228.769531 L225.195312,226.481585 L215.736607,226.481585 L215.736607,224.514509 L213.141741,224.514509 L213.141741,226.481585 L203.766741,226.481585 L203.766741,228.769531 L213.141741,228.769531 L213.141741,231.462054 L202.022879,231.462054 L202.022879,233.708147 L226.883371,233.708147 Z" id="數位轉型" fill="#5C5C5C" fill-rule="nonzero"></path>
            <path d="M150.936384,76.0253906 C151.574405,76.0253906 152.031762,75.9700521 152.308454,75.859375 C152.585147,75.7486979 152.830915,75.5485026 153.045759,75.2587891 C153.260603,74.9690755 153.368025,74.6289062 153.368025,74.2382812 L153.368025,74.2382812 L153.368025,63.7011719 L149.2274,63.7011719 C149.644066,63.1217448 149.956566,62.5878906 150.1649,62.0996094 L150.1649,62.0996094 L148.827009,61.3769531 L154.207868,61.3769531 L154.207868,59.8242188 L146.512556,59.8242188 C146.336775,59.2317708 146.160993,58.75 145.985212,58.3789062 L145.985212,58.3789062 L144.149275,58.7792969 C144.364118,59.2285156 144.517113,59.5768229 144.608259,59.8242188 L144.608259,59.8242188 L136.844587,59.8242188 L136.844587,61.3769531 L142.030134,61.3769531 L140.731306,62.0605469 C141.011254,62.405599 141.382347,62.952474 141.844587,63.7011719 L141.844587,63.7011719 L137.645368,63.7011719 L137.645368,75.9960938 L139.393415,75.9960938 L139.393415,65.3027344 L142.684431,65.3027344 C142.67141,66.6373698 141.698103,67.4576823 139.764509,67.7636719 L139.764509,67.7636719 L140.623884,69.2578125 C143.117374,68.75 144.364118,67.4316406 144.364118,65.3027344 L144.364118,65.3027344 L146.649275,65.3027344 L146.649275,67.1972656 C146.649275,67.5032552 146.779483,67.7864583 147.0399,68.046875 C147.300316,68.3072917 147.583519,68.4375 147.889509,68.4375 L147.889509,68.4375 L151.004743,68.4375 L151.004743,66.9433594 L148.651228,66.9433594 C148.592634,66.9433594 148.52753,66.9042969 148.455915,66.8261719 C148.384301,66.7480469 148.348493,66.6796875 148.348493,66.6210938 L148.348493,66.6210938 L148.348493,65.3027344 L151.649275,65.3027344 L151.649275,73.8964844 C151.649275,74.0722656 151.58417,74.1910807 151.453962,74.2529297 C151.323754,74.3147786 150.868025,74.3457031 150.086775,74.3457031 C149.800316,74.3457031 149.487816,74.3359375 149.149275,74.3164062 L149.149275,74.3164062 L149.705915,75.9765625 C150.194196,76.0091146 150.604353,76.0253906 150.936384,76.0253906 Z M147.186384,63.7011719 L143.866071,63.7011719 C143.488467,62.9003906 143.022972,62.125651 142.469587,61.3769531 L142.469587,61.3769531 L148.485212,61.3769531 C147.98391,62.4251302 147.550967,63.1998698 147.186384,63.7011719 L147.186384,63.7011719 Z M149.871931,73.8183594 L149.871931,69.4628906 L141.248884,69.4628906 L141.248884,73.8183594 L149.871931,73.8183594 Z M148.153181,72.2753906 L142.987165,72.2753906 L142.987165,70.9570312 L148.153181,70.9570312 L148.153181,72.2753906 Z M170.94615,61.3378906 C171.720889,60.641276 172.293806,60.0227865 172.6649,59.4824219 L172.6649,59.4824219 L171.112165,58.6425781 C170.55878,59.3196615 169.976097,59.905599 169.364118,60.4003906 L169.364118,60.4003906 L170.94615,61.3378906 Z M166.385603,76.015625 L166.385603,71.2207031 L174.2274,71.2207031 L174.2274,69.7167969 L166.385603,69.7167969 L166.385603,68.7011719 L173.309431,68.7011719 L173.309431,67.1972656 L166.385603,67.1972656 L166.385603,66.2207031 L173.787946,66.2207031 L173.787946,64.7167969 L169.188337,64.7167969 C169.370629,64.5019531 169.591983,64.1764323 169.8524,63.7402344 L169.8524,63.7402344 L168.670759,63.1152344 L174.188337,63.1152344 L174.188337,61.6210938 L168.153181,61.6210938 L168.153181,58.6425781 L166.405134,58.6425781 L166.405134,61.6210938 L164.608259,61.6210938 L164.608259,58.6425781 L162.869978,58.6425781 L162.869978,61.6210938 L156.746931,61.6210938 L156.746931,63.1152344 L162.430525,63.1152344 L161.092634,63.8574219 C161.34003,64.1113281 161.57115,64.3977865 161.785993,64.7167969 L161.785993,64.7167969 L157.225446,64.7167969 L157.225446,66.2207031 L164.608259,66.2207031 L164.608259,67.1972656 L157.733259,67.1972656 L157.733259,68.7011719 L164.608259,68.7011719 L164.608259,69.7167969 L156.785993,69.7167969 L156.785993,71.2207031 L164.608259,71.2207031 L164.608259,76.015625 L166.385603,76.015625 Z M160.086775,61.484375 L161.424665,60.5175781 C160.949405,59.8925781 160.356957,59.280599 159.647321,58.6816406 L159.647321,58.6816406 L158.309431,59.7167969 C158.9149,60.2050781 159.507347,60.7942708 160.086775,61.484375 L160.086775,61.484375 Z M166.952009,64.7167969 L163.924665,64.7167969 C163.566592,64.1178385 163.195499,63.5839844 162.811384,63.1152344 L162.811384,63.1152344 L168.06529,63.1152344 C167.75279,63.6751302 167.381696,64.2089844 166.952009,64.7167969 L166.952009,64.7167969 Z M173.612165,75.859375 L174.588728,74.4238281 C172.622582,73.297526 170.734561,72.3893229 168.924665,71.6992188 L168.924665,71.6992188 L167.889509,73.1445312 C169.78404,73.8411458 171.691592,74.7460938 173.612165,75.859375 L173.612165,75.859375 Z M157.967634,75.9179688 C159.588728,75.2278646 161.317243,74.2220052 163.153181,72.9003906 L163.153181,72.9003906 L161.766462,71.7382812 C160.034691,72.9882812 158.381045,73.9160156 156.805525,74.5214844 L156.805525,74.5214844 L157.967634,75.9179688 Z M191.825056,62.3046875 L191.825056,61.3574219 L194.012556,61.3574219 L194.012556,59.8046875 L191.825056,59.8046875 L191.825056,58.5644531 L190.067243,58.5644531 L190.067243,59.8046875 L188.866071,59.8046875 L188.866071,61.3574219 L190.067243,61.3574219 L190.067243,62.3046875 L191.825056,62.3046875 Z M186.952009,62.3046875 L186.952009,61.3574219 L188.104353,61.3574219 L188.104353,59.8046875 L186.952009,59.8046875 L186.952009,58.5644531 L185.184431,58.5644531 L185.184431,59.8046875 L182.733259,59.8046875 L182.733259,61.3574219 L185.184431,61.3574219 L185.184431,62.3046875 L186.952009,62.3046875 Z M180.770368,76.015625 L180.770368,66.2011719 C181.193545,66.7415365 181.672061,67.4674479 182.205915,68.3789062 L182.205915,68.3789062 L183.407087,67.0800781 C182.853702,66.233724 181.974795,65.172526 180.770368,63.8964844 L180.770368,63.8964844 L180.770368,63.6035156 L182.586775,63.6035156 L182.586775,61.8847656 L180.770368,61.8847656 L180.770368,58.5839844 L179.051618,58.5839844 L179.051618,61.8847656 L176.805525,61.8847656 L176.805525,63.6035156 L178.963728,63.6035156 C178.586124,65.2441406 177.775577,67.0703125 176.532087,69.0820312 L176.532087,69.0820312 L177.469587,70.9375 C177.99042,70 178.517764,68.8476562 179.051618,67.4804688 L179.051618,67.4804688 L179.051618,76.015625 L180.770368,76.015625 Z M182.889509,76.2597656 C185.981957,75.5240885 187.915551,74.1113281 188.69029,72.0214844 L188.69029,72.0214844 L194.2274,72.0214844 L194.2274,70.4589844 L189.012556,70.4589844 C189.07766,69.9707031 189.110212,69.5963542 189.110212,69.3359375 L189.110212,69.3359375 L192.889509,69.3359375 L192.889509,62.9003906 L183.885603,62.9003906 L183.885603,69.3359375 L187.313337,69.3359375 C187.287295,69.7135417 187.238467,70.0878906 187.166853,70.4589844 L187.166853,70.4589844 L182.332868,70.4589844 L182.332868,72.0214844 L186.766462,72.0214844 C185.881045,73.4147135 184.30878,74.3066406 182.049665,74.6972656 L182.049665,74.6972656 L182.889509,76.2597656 Z M191.151228,65.3808594 L185.604353,65.3808594 L185.604353,64.4433594 L191.151228,64.4433594 L191.151228,65.3808594 Z M191.151228,67.8222656 L185.604353,67.8222656 L185.604353,66.796875 L191.151228,66.796875 L191.151228,67.8222656 Z M193.485212,76.1035156 L194.452009,74.6191406 C192.993676,73.8183594 191.366071,73.1184896 189.569196,72.5195312 L189.569196,72.5195312 L188.709821,74.0234375 C190.467634,74.6028646 192.059431,75.296224 193.485212,76.1035156 L193.485212,76.1035156 Z M211.746931,76.0839844 C213.153181,76.0839844 213.973493,74.6289062 214.207868,71.71875 L214.207868,71.71875 L212.430525,70.8007812 C212.332868,73.0989583 212.082217,74.2480469 211.678571,74.2480469 C211.34654,74.2480469 210.814314,73.3935547 210.081892,71.6845703 C209.34947,69.9755859 208.944196,67.2395833 208.866071,63.4765625 L208.866071,63.4765625 L214.188337,63.4765625 L214.188337,61.796875 L208.787946,61.796875 C208.722842,60.390625 208.696801,59.3033854 208.709821,58.5351562 L208.709821,58.5351562 L206.932478,58.5351562 C206.912946,59.3554688 206.938988,60.4427083 207.010603,61.796875 L207.010603,61.796875 L196.805525,61.796875 L196.805525,63.4765625 L207.049665,63.4765625 C207.160342,67.2591146 207.663272,70.3059896 208.558454,72.6171875 C209.453637,74.9283854 210.516462,76.0839844 211.746931,76.0839844 Z M212.332868,61.5625 L213.631696,60.4394531 C213.006696,59.7688802 212.192894,59.1634115 211.19029,58.6230469 L211.19029,58.6230469 L209.832868,59.8242188 C210.653181,60.2213542 211.486514,60.8007812 212.332868,61.5625 L212.332868,61.5625 Z M197.489118,74.7753906 C200.01516,74.4628906 203.127139,73.844401 206.825056,72.9199219 L206.825056,72.9199219 L206.766462,71.1621094 C205.770368,71.4355469 204.458519,71.7480469 202.830915,72.0996094 L202.830915,72.0996094 L202.830915,67.1972656 L206.248884,67.1972656 L206.248884,65.4980469 L197.791853,65.4980469 L197.791853,67.1972656 L201.004743,67.1972656 L201.004743,72.5195312 C199.55292,72.7929688 198.247582,73.0013021 197.088728,73.1445312 L197.088728,73.1445312 L197.489118,74.7753906 Z M233.045759,70.5566406 L234.325056,69.7167969 C233.960472,69.1829427 233.449405,68.5026042 232.791853,67.6757812 L232.791853,67.6757812 L233.348493,67.6757812 L233.348493,62.0410156 L229.969587,62.0410156 L229.969587,61.1230469 L233.807478,61.1230469 L233.807478,59.6191406 L229.969587,59.6191406 L229.969587,58.4960938 L228.270368,58.4960938 L228.270368,59.6191406 L224.491071,59.6191406 L224.491071,61.1230469 L228.270368,61.1230469 L228.270368,62.0410156 L224.8524,62.0410156 L224.8524,67.6757812 L228.270368,67.6757812 L228.270368,68.7597656 C226.994327,68.8248698 225.607608,68.8574219 224.110212,68.8574219 L224.110212,68.8574219 L224.393415,70.2832031 C226.945499,70.2636719 229.644066,70.094401 232.489118,69.7753906 C232.697452,70.0423177 232.882999,70.3027344 233.045759,70.5566406 L233.045759,70.5566406 Z M221.268415,76.0644531 L221.268415,73.4179688 L223.787946,73.4179688 L223.787946,71.7773438 L221.268415,71.7773438 L221.268415,70.7226562 L223.592634,70.7226562 L223.592634,62.65625 L221.268415,62.65625 L221.268415,61.5039062 L223.924665,61.5039062 L223.924665,59.921875 L221.268415,59.921875 L221.268415,58.4960938 L219.647321,58.4960938 L219.647321,59.921875 L216.825056,59.921875 L216.825056,61.5039062 L219.647321,61.5039062 L219.647321,62.65625 L217.264509,62.65625 L217.264509,70.7226562 L219.647321,70.7226562 L219.647321,71.7773438 L216.805525,71.7773438 L216.805525,73.4179688 L219.647321,73.4179688 L219.647321,76.0644531 L221.268415,76.0644531 Z M231.707868,64.1992188 L229.969587,64.1992188 L229.969587,63.3789062 L231.707868,63.3789062 L231.707868,64.1992188 Z M228.270368,64.1992188 L226.493025,64.1992188 L226.493025,63.3789062 L228.270368,63.3789062 L228.270368,64.1992188 Z M222.088728,65.9179688 L221.268415,65.9179688 L221.268415,64.2578125 L222.088728,64.2578125 L222.088728,65.9179688 Z M219.647321,65.9179688 L218.787946,65.9179688 L218.787946,64.2578125 L219.647321,64.2578125 L219.647321,65.9179688 Z M231.707868,66.3574219 L229.969587,66.3574219 L229.969587,65.4980469 L231.707868,65.4980469 L231.707868,66.3574219 Z M228.270368,66.3574219 L226.493025,66.3574219 L226.493025,65.4980469 L228.270368,65.4980469 L228.270368,66.3574219 Z M222.088728,69.140625 L221.268415,69.140625 L221.268415,67.4609375 L222.088728,67.4609375 L222.088728,69.140625 Z M219.647321,69.140625 L218.787946,69.140625 L218.787946,67.4609375 L219.647321,67.4609375 L219.647321,69.140625 Z M229.969587,68.6425781 L229.969587,67.6757812 L232.264509,67.6757812 L231.131696,68.2226562 C231.222842,68.2877604 231.327009,68.3789062 231.444196,68.4960938 L231.444196,68.4960938 L229.969587,68.6425781 Z M231.043806,76.0644531 C231.356306,76.0644531 231.655785,75.9261068 231.942243,75.6494141 C232.228702,75.3727214 232.371931,75.0813802 232.371931,74.7753906 L232.371931,74.7753906 L232.371931,72.3828125 L234.2274,72.3828125 L234.2274,70.9179688 L232.371931,70.9179688 L232.371931,70.3027344 L230.653181,70.3027344 L230.653181,70.9179688 L224.325056,70.9179688 L224.325056,72.3828125 L230.653181,72.3828125 L230.653181,74.1601562 C230.653181,74.3880208 230.545759,74.5019531 230.330915,74.5019531 C229.875186,74.5019531 229.373884,74.4889323 228.827009,74.4628906 L228.827009,74.4628906 L229.364118,76.015625 C229.637556,76.0481771 230.197452,76.0644531 231.043806,76.0644531 Z M227.205915,75.0195312 L228.670759,74.1210938 C227.948103,73.4375 227.368676,72.9231771 226.932478,72.578125 L226.932478,72.578125 L225.467634,73.4375 C226.099144,73.9192708 226.678571,74.4466146 227.205915,75.0195312 L227.205915,75.0195312 Z M251.668806,69.296875 C252.261254,69.296875 252.733259,69.1438802 253.084821,68.8378906 C253.436384,68.531901 253.612165,68.1315104 253.612165,67.6367188 L253.612165,67.6367188 L253.612165,58.6621094 L251.912946,58.6621094 L251.912946,67.0996094 C251.912946,67.327474 251.839704,67.4853516 251.69322,67.5732422 C251.546735,67.6611328 250.985212,67.7050781 250.00865,67.7050781 C249.520368,67.7050781 249.048363,67.6888021 248.592634,67.65625 L248.592634,67.65625 L249.110212,69.296875 L251.668806,69.296875 Z M238.612165,69.4433594 C240.148624,68.063151 241.007999,66.468099 241.19029,64.6582031 L241.19029,64.6582031 L243.387556,64.6582031 L243.387556,68.6816406 L245.106306,68.6816406 L245.106306,64.6582031 L247.469587,64.6582031 L247.469587,63.0957031 L245.106306,63.0957031 L245.106306,60.4980469 L247.205915,60.4980469 L247.205915,58.8769531 L237.313337,58.8769531 L237.313337,60.4980469 L239.647321,60.4980469 L239.647321,63.0957031 L237.010603,63.0957031 L237.010603,64.6582031 L239.510603,64.6582031 C239.334821,65.9277344 238.628441,67.109375 237.391462,68.203125 L237.391462,68.203125 L238.612165,69.4433594 Z M250.028181,66.2792969 L250.028181,59.5214844 L248.2899,59.5214844 L248.2899,66.2792969 L250.028181,66.2792969 Z M243.387556,63.0957031 L241.34654,63.0957031 L241.34654,60.4980469 L243.387556,60.4980469 L243.387556,63.0957031 Z M254.246931,75.5957031 L254.246931,74.0234375 L246.444196,74.0234375 L246.444196,72.1386719 L253.06529,72.1386719 L253.06529,70.5371094 L246.444196,70.5371094 L246.444196,69.1601562 L244.62779,69.1601562 L244.62779,70.5371094 L238.06529,70.5371094 L238.06529,72.1386719 L244.62779,72.1386719 L244.62779,74.0234375 L236.844587,74.0234375 L236.844587,75.5957031 L254.246931,75.5957031 Z" id="商業模式轉型" fill="#FFFFFF" fill-rule="nonzero"></path>
            <path d="M289.981027,147.359096 C291.28311,147.027065 292.318266,146.467169 293.086496,145.679408 C294.24535,146.148158 295.238188,146.646205 296.065011,147.173549 L296.065011,147.173549 L296.963449,145.933315 C296.006417,145.353888 294.941964,144.83631 293.770089,144.38058 L293.770089,144.38058 L293.828683,144.214565 C294.968006,143.882533 296.019438,143.456101 296.98298,142.935268 L296.98298,142.935268 L296.123605,141.734096 C295.524647,142.098679 294.863839,142.398158 294.141183,142.632533 C294.186756,142.307013 294.222563,141.887091 294.248605,141.372768 L294.248605,141.372768 L292.60798,141.372768 C292.60798,142.980841 292.349191,144.072963 291.831613,144.649135 C291.314035,145.225307 290.391183,145.640346 289.063058,145.894252 L289.063058,145.894252 L289.981027,147.359096 Z M304.902902,147.41769 L305.850167,146.157924 C304.769438,145.552455 303.499907,145.00558 302.041574,144.517299 L302.041574,144.517299 L302.148996,144.341518 C303.079985,144.087612 304.193266,143.59282 305.488839,142.857143 L305.488839,142.857143 L304.590402,141.675502 C303.802641,142.176804 303.066964,142.538132 302.383371,142.759487 C302.441964,142.206101 302.461496,141.779669 302.441964,141.48019 L302.441964,141.48019 L300.820871,141.441127 C300.820871,143.081752 300.581613,144.17713 300.103097,144.72726 C299.624581,145.27739 298.685454,145.666388 297.285714,145.894252 L297.285714,145.894252 L297.988839,147.359096 C299.414621,147.131231 300.540923,146.610398 301.367746,145.796596 C302.813058,146.336961 303.991443,146.877325 304.902902,147.41769 L304.902902,147.41769 Z M290.527902,144.634487 L291.885324,143.921596 C291.559803,143.179408 291.094308,142.443731 290.488839,141.714565 L290.488839,141.714565 L289.141183,142.456752 C289.7141,143.127325 290.176339,143.853237 290.527902,144.634487 L290.527902,144.634487 Z M298.750558,144.712612 L300.147042,144.077846 C299.873605,143.290086 299.473214,142.544643 298.945871,141.841518 L298.945871,141.841518 L297.549386,142.456752 C298.08324,143.185919 298.483631,143.937872 298.750558,144.712612 L298.750558,144.712612 Z M290.606027,150.620815 L290.606027,149.077846 L303.965402,149.077846 L303.965402,150.620815 L305.742746,150.620815 L305.742746,147.593471 L288.887277,147.593471 L288.887277,150.620815 L290.606027,150.620815 Z M291.523996,158.892299 L291.523996,158.277065 L303.066964,158.277065 L303.066964,158.892299 L304.805246,158.892299 L304.805246,154.214565 L297.666574,154.214565 C297.848865,153.934617 298.00186,153.648158 298.125558,153.35519 L298.125558,153.35519 L302.861886,153.35519 L302.861886,149.937221 L291.523996,149.937221 L291.523996,153.35519 L296.065011,153.35519 C295.934803,153.6742 295.781808,153.960658 295.606027,154.214565 L295.606027,154.214565 L289.766183,154.214565 L289.766183,158.892299 L291.523996,158.892299 Z M301.20173,152.056362 L293.203683,152.056362 L293.203683,151.25558 L301.20173,151.25558 L301.20173,152.056362 Z M303.066964,156.939174 L291.523996,156.939174 L291.523996,155.581752 L303.066964,155.581752 L303.066964,156.939174 Z M312.266183,144.956752 L313.506417,143.75558 C312.718657,142.844122 311.663969,141.978237 310.342355,141.157924 L310.342355,141.157924 L309.063058,142.398158 C310.254464,143.140346 311.322173,143.993211 312.266183,144.956752 L312.266183,144.956752 Z M316.162667,145.07394 L316.162667,143.218471 L324.023996,143.218471 L324.023996,145.07394 L325.742746,145.07394 L325.742746,141.695033 L314.385324,141.695033 L314.385324,145.07394 L316.162667,145.07394 Z M320.928292,156.499721 L320.928292,154.976283 L326.084542,154.976283 L326.084542,153.560268 L320.928292,153.560268 L320.928292,152.613002 L325.186105,152.613002 L325.186105,146.773158 L320.928292,146.773158 L320.928292,145.85519 L323.447824,145.85519 L323.447824,144.497768 L320.928292,144.497768 L320.928292,143.696987 L319.209542,143.696987 L319.209542,144.497768 L316.729074,144.497768 L316.729074,145.85519 L319.209542,145.85519 L319.209542,146.773158 L314.863839,146.773158 L314.863839,152.613002 L319.209542,152.613002 L319.209542,153.560268 L313.945871,153.560268 L313.945871,154.976283 L319.209542,154.976283 L319.209542,156.499721 L320.928292,156.499721 Z M309.883371,159.019252 C310.514881,158.296596 311.130115,157.476283 311.729074,156.558315 C312.699126,157.378627 313.761951,157.941778 314.91755,158.247768 C316.073149,158.553757 318.402251,158.706752 321.904855,158.706752 C323.135324,158.706752 324.434152,158.677455 325.801339,158.618862 L325.801339,158.618862 L326.289621,156.997768 C324.844308,157.049851 323.359933,157.075893 321.836496,157.075893 C320.391183,157.075893 319.022368,157.056362 317.73005,157.017299 C316.437733,156.978237 315.370024,156.797573 314.526925,156.475307 C313.683826,156.153041 313.011626,155.721726 312.510324,155.181362 C312.985584,154.204799 313.350167,153.195685 313.604074,152.154018 L313.604074,152.154018 L313.604074,150.493862 L311.065011,150.493862 C312.061105,149.419643 312.842355,148.28032 313.408761,147.075893 L313.408761,147.075893 L313.408761,145.396205 L308.623605,145.396205 L308.623605,147.075893 L311.465402,147.075893 C310.833891,148.241257 309.968006,149.37407 308.867746,150.47433 L308.867746,150.47433 L308.867746,152.154018 L311.807199,152.154018 C311.344959,154.015997 310.238188,155.94308 308.486886,157.935268 L308.486886,157.935268 L309.883371,159.019252 Z M323.506417,149.077846 L320.928292,149.077846 L320.928292,148.120815 L323.506417,148.120815 L323.506417,149.077846 Z M319.209542,149.077846 L316.563058,149.077846 L316.563058,148.120815 L319.209542,148.120815 L319.209542,149.077846 Z M323.506417,151.275112 L320.928292,151.275112 L320.928292,150.31808 L323.506417,150.31808 L323.506417,151.275112 Z M319.209542,151.275112 L316.563058,151.275112 L316.563058,150.31808 L319.209542,150.31808 L319.209542,151.275112 Z M332.002511,158.892299 L332.002511,145.47433 L332.461496,143.999721 C332.760975,142.951544 332.962798,142.131231 333.066964,141.538783 L333.066964,141.538783 L331.426339,141.236049 C330.794829,144.237351 329.808501,146.805711 328.467355,148.941127 L328.467355,148.941127 L329.268136,151.001674 C329.541574,150.62407 329.880115,150.083705 330.283761,149.38058 L330.283761,149.38058 L330.283761,158.892299 L332.002511,158.892299 Z M344.229074,153.736049 L345.488839,152.915737 C345.104725,152.238653 344.717355,151.659226 344.32673,151.177455 L344.32673,151.177455 L345.801339,151.177455 L345.801339,148.657924 L344.209542,148.657924 L344.209542,143.794643 L339.961496,143.794643 C340.098214,143.547247 340.199126,143.293341 340.26423,143.032924 L340.26423,143.032924 L345.908761,143.032924 L345.908761,141.675502 L333.408761,141.675502 L333.408761,143.032924 L338.408761,143.032924 C338.350167,143.247768 338.249256,143.508185 338.106027,143.814174 L338.106027,143.814174 L334.609933,143.814174 L334.609933,148.657924 L333.008371,148.657924 L333.008371,151.236049 L334.688058,151.236049 C334.303943,151.841518 333.871001,152.368862 333.38923,152.81808 L333.38923,152.81808 L334.463449,153.716518 C335.296782,152.863653 335.938058,151.971726 336.387277,151.040737 L336.387277,151.040737 L335.186105,150.435268 C335.134022,150.526414 334.981027,150.77381 334.727121,151.177455 L334.727121,151.177455 L334.727121,149.898158 L344.082589,149.898158 L344.082589,150.85519 C343.809152,150.54269 343.610584,150.324591 343.486886,150.200893 L343.486886,150.200893 L342.344308,151.001674 C342.99535,151.737351 343.623605,152.64881 344.229074,153.736049 L344.229074,153.736049 Z M342.481027,145.493862 L336.387277,145.493862 L336.387277,144.839565 L342.481027,144.839565 L342.481027,145.493862 Z M342.481027,147.03683 L336.387277,147.03683 L336.387277,146.372768 L342.481027,146.372768 L342.481027,147.03683 Z M342.481027,148.657924 L336.387277,148.657924 L336.387277,147.954799 L342.481027,147.954799 L342.481027,148.657924 Z M340.26423,151.734096 L340.850167,150.718471 C340.244699,150.39295 339.684803,150.171596 339.17048,150.054408 L339.17048,150.054408 L338.662667,151.040737 C339.092355,151.157924 339.626209,151.389044 340.26423,151.734096 L340.26423,151.734096 Z M333.320871,159.058315 C335.918527,158.752325 337.985584,158.28683 339.522042,157.66183 C341.410063,158.260789 343.4641,158.687221 345.684152,158.941127 L345.684152,158.941127 L346.309152,157.41769 C344.303943,157.300502 342.68285,157.053106 341.445871,156.675502 C342.22061,156.193731 342.959542,155.614304 343.662667,154.937221 L343.662667,154.937221 L343.662667,153.75558 L338.750558,153.75558 C339.010975,153.521205 339.17699,153.335658 339.248605,153.19894 C340.609282,153.238002 341.476795,153.143601 341.851144,152.915737 C342.225493,152.687872 342.445219,152.26795 342.510324,151.655971 L342.510324,151.655971 L341.221261,151.021205 C341.123605,151.496466 341.025949,151.771531 340.928292,151.846401 C340.830636,151.92127 340.723214,151.958705 340.606027,151.958705 L340.606027,151.958705 L338.643136,152.017299 C338.363188,152.017299 338.223214,151.877325 338.223214,151.597377 L338.223214,151.597377 L338.223214,150.376674 L336.621652,150.376674 L336.621652,151.861049 C336.621652,152.446987 336.875558,152.853888 337.383371,153.081752 C337.06436,153.394252 336.67699,153.719773 336.221261,154.058315 C335.921782,153.83045 335.690662,153.644903 335.527902,153.501674 L335.527902,153.501674 L334.346261,154.38058 C334.463449,154.510789 334.642485,154.670294 334.883371,154.859096 C334.369048,155.145554 333.763579,155.432013 333.066964,155.718471 L333.066964,155.718471 L333.984933,156.939174 C334.538318,156.698289 335.257719,156.32394 336.143136,155.816127 C336.384022,155.998419 336.891834,156.317429 337.666574,156.773158 C336.305897,157.176804 334.632719,157.443731 332.647042,157.57394 L332.647042,157.57394 L333.320871,159.058315 Z M339.590402,156.079799 C338.815662,155.767299 338.106027,155.38644 337.461496,154.937221 L337.461496,154.937221 L341.465402,154.937221 C340.671131,155.471075 340.046131,155.851935 339.590402,156.079799 Z M352.783761,158.853237 L352.783761,145.435268 L353.330636,144.273158 C353.499907,143.895554 353.672433,143.465867 353.848214,142.984096 L353.848214,142.984096 L354.346261,141.616908 L352.481027,141.25558 C351.426339,144.517299 350.121001,147.017299 348.565011,148.75558 L348.565011,148.75558 L349.48298,150.601283 C350.036365,149.963263 350.524647,149.36756 350.947824,148.814174 L350.947824,148.814174 L350.947824,158.853237 L352.783761,158.853237 Z M361.567028,158.667166 C363.061586,158.661579 363.963583,158.611298 364.273019,158.516323 C364.601795,158.415411 364.891509,158.252651 365.14216,158.028041 C365.392811,157.803432 365.597889,157.448614 365.757394,156.963588 C365.916899,156.478562 366.025949,155.555711 366.084542,154.195033 L366.084542,154.195033 L364.268136,153.501674 C364.248605,155.526414 364.087472,156.603888 363.784738,156.734096 C363.482003,156.864304 362.640532,156.929408 361.260324,156.929408 C359.710844,156.929408 358.827055,156.888718 358.608956,156.807338 C358.390858,156.725958 358.281808,156.587612 358.281808,156.392299 L358.281808,156.392299 L358.281808,149.155971 L365.850167,149.155971 L365.850167,147.378627 L358.281808,147.378627 L358.281808,141.441127 L356.465402,141.441127 L356.465402,156.499721 C356.465402,157.014044 356.55492,157.445359 356.733956,157.793666 C356.912993,158.141974 357.184803,158.374721 357.549386,158.491908 C357.913969,158.609096 359.157459,158.66769 361.279855,158.66769 L361.567028,158.667166 Z M324.902902,180.413783 L326.182199,179.57394 C325.817615,179.040086 325.306548,178.359747 324.648996,177.532924 L324.648996,177.532924 L325.205636,177.532924 L325.205636,171.898158 L321.82673,171.898158 L321.82673,170.98019 L325.664621,170.98019 L325.664621,169.476283 L321.82673,169.476283 L321.82673,168.353237 L320.127511,168.353237 L320.127511,169.476283 L316.348214,169.476283 L316.348214,170.98019 L320.127511,170.98019 L320.127511,171.898158 L316.709542,171.898158 L316.709542,177.532924 L320.127511,177.532924 L320.127511,178.616908 C318.851469,178.682013 317.464751,178.714565 315.967355,178.714565 L315.967355,178.714565 L316.250558,180.140346 C318.802641,180.120815 321.501209,179.951544 324.346261,179.632533 C324.554594,179.899461 324.740141,180.159877 324.902902,180.413783 L324.902902,180.413783 Z M313.125558,185.921596 L313.125558,183.275112 L315.645089,183.275112 L315.645089,181.634487 L313.125558,181.634487 L313.125558,180.579799 L315.449777,180.579799 L315.449777,172.513393 L313.125558,172.513393 L313.125558,171.361049 L315.781808,171.361049 L315.781808,169.779018 L313.125558,169.779018 L313.125558,168.353237 L311.504464,168.353237 L311.504464,169.779018 L308.682199,169.779018 L308.682199,171.361049 L311.504464,171.361049 L311.504464,172.513393 L309.121652,172.513393 L309.121652,180.579799 L311.504464,180.579799 L311.504464,181.634487 L308.662667,181.634487 L308.662667,183.275112 L311.504464,183.275112 L311.504464,185.921596 L313.125558,185.921596 Z M323.565011,174.056362 L321.82673,174.056362 L321.82673,173.236049 L323.565011,173.236049 L323.565011,174.056362 Z M320.127511,174.056362 L318.350167,174.056362 L318.350167,173.236049 L320.127511,173.236049 L320.127511,174.056362 Z M313.945871,175.775112 L313.125558,175.775112 L313.125558,174.114955 L313.945871,174.114955 L313.945871,175.775112 Z M311.504464,175.775112 L310.645089,175.775112 L310.645089,174.114955 L311.504464,174.114955 L311.504464,175.775112 Z M323.565011,176.214565 L321.82673,176.214565 L321.82673,175.35519 L323.565011,175.35519 L323.565011,176.214565 Z M320.127511,176.214565 L318.350167,176.214565 L318.350167,175.35519 L320.127511,175.35519 L320.127511,176.214565 Z M313.945871,178.997768 L313.125558,178.997768 L313.125558,177.31808 L313.945871,177.31808 L313.945871,178.997768 Z M311.504464,178.997768 L310.645089,178.997768 L310.645089,177.31808 L311.504464,177.31808 L311.504464,178.997768 Z M321.82673,178.499721 L321.82673,177.532924 L324.121652,177.532924 L322.988839,178.079799 C323.079985,178.144903 323.184152,178.236049 323.301339,178.353237 L323.301339,178.353237 L321.82673,178.499721 Z M322.900949,185.921596 C323.213449,185.921596 323.512928,185.78325 323.799386,185.506557 C324.085844,185.229864 324.229074,184.938523 324.229074,184.632533 L324.229074,184.632533 L324.229074,182.239955 L326.084542,182.239955 L326.084542,180.775112 L324.229074,180.775112 L324.229074,180.159877 L322.510324,180.159877 L322.510324,180.775112 L316.182199,180.775112 L316.182199,182.239955 L322.510324,182.239955 L322.510324,184.017299 C322.510324,184.245164 322.402902,184.359096 322.188058,184.359096 C321.732329,184.359096 321.231027,184.346075 320.684152,184.320033 L320.684152,184.320033 L321.221261,185.872768 C321.494699,185.90532 322.054594,185.921596 322.900949,185.921596 Z M319.063058,184.876674 L320.527902,183.978237 C319.805246,183.294643 319.225818,182.78032 318.789621,182.435268 L318.789621,182.435268 L317.324777,183.294643 C317.956287,183.776414 318.535714,184.303757 319.063058,184.876674 L319.063058,184.876674 Z M343.525949,179.154018 C344.118397,179.154018 344.590402,179.001023 344.941964,178.695033 C345.293527,178.389044 345.469308,177.988653 345.469308,177.493862 L345.469308,177.493862 L345.469308,168.519252 L343.770089,168.519252 L343.770089,176.956752 C343.770089,177.184617 343.696847,177.342494 343.550363,177.430385 C343.403878,177.518276 342.842355,177.562221 341.865792,177.562221 C341.377511,177.562221 340.905506,177.545945 340.449777,177.513393 L340.449777,177.513393 L340.967355,179.154018 L343.525949,179.154018 Z M330.469308,179.300502 C332.005766,177.920294 332.865141,176.325242 333.047433,174.515346 L333.047433,174.515346 L335.244699,174.515346 L335.244699,178.538783 L336.963449,178.538783 L336.963449,174.515346 L339.32673,174.515346 L339.32673,172.952846 L336.963449,172.952846 L336.963449,170.35519 L339.063058,170.35519 L339.063058,168.734096 L329.17048,168.734096 L329.17048,170.35519 L331.504464,170.35519 L331.504464,172.952846 L328.867746,172.952846 L328.867746,174.515346 L331.367746,174.515346 C331.191964,175.784877 330.485584,176.966518 329.248605,178.060268 L329.248605,178.060268 L330.469308,179.300502 Z M341.885324,176.13644 L341.885324,169.378627 L340.147042,169.378627 L340.147042,176.13644 L341.885324,176.13644 Z M335.244699,172.952846 L333.203683,172.952846 L333.203683,170.35519 L335.244699,170.35519 L335.244699,172.952846 Z M346.104074,185.452846 L346.104074,183.88058 L338.301339,183.88058 L338.301339,181.995815 L344.922433,181.995815 L344.922433,180.394252 L338.301339,180.394252 L338.301339,179.017299 L336.484933,179.017299 L336.484933,180.394252 L329.922433,180.394252 L329.922433,181.995815 L336.484933,181.995815 L336.484933,183.88058 L328.70173,183.88058 L328.70173,185.452846 L346.104074,185.452846 Z" id="營運優化轉型" fill="#FFFFFF" fill-rule="nonzero"></path>
            <path d="M256.374163,317.590681 L257.448382,316.00865 C254.258278,314.862816 251.807106,313.603051 250.094866,312.229353 C251.768043,310.452009 253.105934,307.925967 254.108538,304.651228 L254.108538,304.651228 L257.331194,304.651228 L257.331194,302.864118 L249.635882,302.864118 C249.277809,301.926618 248.750465,300.888207 248.05385,299.748884 L248.05385,299.748884 L246.188616,300.344587 C246.742001,301.138858 247.217262,301.978702 247.614397,302.864118 L247.614397,302.864118 L239.967913,302.864118 L239.967913,304.651228 L252.135882,304.651228 C251.263486,307.476749 250.101376,309.595889 248.649554,311.00865 C247.256324,309.674014 246.071429,307.681827 245.094866,305.032087 L245.094866,305.032087 L243.376116,305.725446 C244.424293,308.472842 245.716611,310.640811 247.253069,312.229353 C245.508278,313.616071 243.034319,314.823754 239.831194,315.8524 L239.831194,315.8524 L240.827288,317.444196 C243.809059,316.571801 246.429501,315.24042 248.688616,313.450056 C250.77846,315.097191 253.340309,316.4774 256.374163,317.590681 L256.374163,317.590681 Z M264.069475,317.424665 L264.069475,304.006696 L264.61635,302.844587 C264.785621,302.466983 264.958147,302.037295 265.133929,301.555525 L265.133929,301.555525 L265.631975,300.188337 L263.766741,299.827009 C262.712054,303.088728 261.406715,305.588728 259.850725,307.327009 L259.850725,307.327009 L260.768694,309.172712 C261.32208,308.534691 261.810361,307.938988 262.233538,307.385603 L262.233538,307.385603 L262.233538,317.424665 L264.069475,317.424665 Z M272.852743,317.238595 C274.3473,317.233008 275.249297,317.182727 275.558733,317.087751 C275.887509,316.98684 276.177223,316.824079 276.427874,316.59947 C276.678525,316.37486 276.883603,316.020043 277.043108,315.535017 C277.202613,315.049991 277.311663,314.127139 277.370257,312.766462 L277.370257,312.766462 L275.55385,312.073103 C275.534319,314.097842 275.373186,315.175316 275.070452,315.305525 C274.767718,315.435733 273.926246,315.500837 272.546038,315.500837 C270.996559,315.500837 270.11277,315.460147 269.894671,315.378767 C269.676572,315.297387 269.567522,315.15904 269.567522,314.963728 L269.567522,314.963728 L269.567522,307.7274 L277.135882,307.7274 L277.135882,305.950056 L269.567522,305.950056 L269.567522,300.012556 L267.751116,300.012556 L267.751116,315.07115 C267.751116,315.585472 267.840634,316.016788 268.019671,316.365095 C268.198707,316.713402 268.470517,316.94615 268.8351,317.063337 C269.199684,317.180525 270.443173,317.239118 272.565569,317.239118 L272.852743,317.238595 Z M296.188616,311.985212 L297.467913,311.145368 C297.10333,310.611514 296.592262,309.931176 295.93471,309.104353 L295.93471,309.104353 L296.49135,309.104353 L296.49135,303.469587 L293.112444,303.469587 L293.112444,302.551618 L296.950335,302.551618 L296.950335,301.047712 L293.112444,301.047712 L293.112444,299.924665 L291.413225,299.924665 L291.413225,301.047712 L287.633929,301.047712 L287.633929,302.551618 L291.413225,302.551618 L291.413225,303.469587 L287.995257,303.469587 L287.995257,309.104353 L291.413225,309.104353 L291.413225,310.188337 C290.137184,310.253441 288.750465,310.285993 287.253069,310.285993 L287.253069,310.285993 L287.536272,311.711775 C290.088356,311.692243 292.786923,311.522972 295.631975,311.203962 C295.840309,311.470889 296.025856,311.731306 296.188616,311.985212 L296.188616,311.985212 Z M284.411272,317.493025 L284.411272,314.84654 L286.930804,314.84654 L286.930804,313.205915 L284.411272,313.205915 L284.411272,312.151228 L286.735491,312.151228 L286.735491,304.084821 L284.411272,304.084821 L284.411272,302.932478 L287.067522,302.932478 L287.067522,301.350446 L284.411272,301.350446 L284.411272,299.924665 L282.790179,299.924665 L282.790179,301.350446 L279.967913,301.350446 L279.967913,302.932478 L282.790179,302.932478 L282.790179,304.084821 L280.407366,304.084821 L280.407366,312.151228 L282.790179,312.151228 L282.790179,313.205915 L279.948382,313.205915 L279.948382,314.84654 L282.790179,314.84654 L282.790179,317.493025 L284.411272,317.493025 Z M294.850725,305.62779 L293.112444,305.62779 L293.112444,304.807478 L294.850725,304.807478 L294.850725,305.62779 Z M291.413225,305.62779 L289.635882,305.62779 L289.635882,304.807478 L291.413225,304.807478 L291.413225,305.62779 Z M285.231585,307.34654 L284.411272,307.34654 L284.411272,305.686384 L285.231585,305.686384 L285.231585,307.34654 Z M282.790179,307.34654 L281.930804,307.34654 L281.930804,305.686384 L282.790179,305.686384 L282.790179,307.34654 Z M294.850725,307.785993 L293.112444,307.785993 L293.112444,306.926618 L294.850725,306.926618 L294.850725,307.785993 Z M291.413225,307.785993 L289.635882,307.785993 L289.635882,306.926618 L291.413225,306.926618 L291.413225,307.785993 Z M285.231585,310.569196 L284.411272,310.569196 L284.411272,308.889509 L285.231585,308.889509 L285.231585,310.569196 Z M282.790179,310.569196 L281.930804,310.569196 L281.930804,308.889509 L282.790179,308.889509 L282.790179,310.569196 Z M293.112444,310.07115 L293.112444,309.104353 L295.407366,309.104353 L294.274554,309.651228 C294.365699,309.716332 294.469866,309.807478 294.587054,309.924665 L294.587054,309.924665 L293.112444,310.07115 Z M294.186663,317.493025 C294.499163,317.493025 294.798642,317.354678 295.0851,317.077985 C295.371559,316.801293 295.514788,316.509952 295.514788,316.203962 L295.514788,316.203962 L295.514788,313.811384 L297.370257,313.811384 L297.370257,312.34654 L295.514788,312.34654 L295.514788,311.731306 L293.796038,311.731306 L293.796038,312.34654 L287.467913,312.34654 L287.467913,313.811384 L293.796038,313.811384 L293.796038,315.588728 C293.796038,315.816592 293.688616,315.930525 293.473772,315.930525 C293.018043,315.930525 292.516741,315.917504 291.969866,315.891462 L291.969866,315.891462 L292.506975,317.444196 C292.780413,317.476749 293.340309,317.493025 294.186663,317.493025 Z M290.348772,316.448103 L291.813616,315.549665 C291.09096,314.866071 290.511533,314.351749 290.075335,314.006696 L290.075335,314.006696 L288.610491,314.866071 C289.242001,315.347842 289.821429,315.875186 290.348772,316.448103 L290.348772,316.448103 Z M314.811663,310.725446 C315.404111,310.725446 315.876116,310.572452 316.227679,310.266462 C316.579241,309.960472 316.755022,309.560082 316.755022,309.06529 L316.755022,309.06529 L316.755022,300.090681 L315.055804,300.090681 L315.055804,308.528181 C315.055804,308.756045 314.982561,308.913923 314.836077,309.001814 C314.689593,309.089704 314.128069,309.13365 313.151507,309.13365 C312.663225,309.13365 312.19122,309.117374 311.735491,309.084821 L311.735491,309.084821 L312.253069,310.725446 L314.811663,310.725446 Z M301.755022,310.871931 C303.291481,309.491722 304.150856,307.89667 304.333147,306.086775 L304.333147,306.086775 L306.530413,306.086775 L306.530413,310.110212 L308.249163,310.110212 L308.249163,306.086775 L310.612444,306.086775 L310.612444,304.524275 L308.249163,304.524275 L308.249163,301.926618 L310.348772,301.926618 L310.348772,300.305525 L300.456194,300.305525 L300.456194,301.926618 L302.790179,301.926618 L302.790179,304.524275 L300.15346,304.524275 L300.15346,306.086775 L302.65346,306.086775 C302.477679,307.356306 301.771298,308.537946 300.534319,309.631696 L300.534319,309.631696 L301.755022,310.871931 Z M313.171038,307.707868 L313.171038,300.950056 L311.432757,300.950056 L311.432757,307.707868 L313.171038,307.707868 Z M306.530413,304.524275 L304.489397,304.524275 L304.489397,301.926618 L306.530413,301.926618 L306.530413,304.524275 Z M317.389788,317.024275 L317.389788,315.452009 L309.587054,315.452009 L309.587054,313.567243 L316.208147,313.567243 L316.208147,311.965681 L309.587054,311.965681 L309.587054,310.588728 L307.770647,310.588728 L307.770647,311.965681 L301.208147,311.965681 L301.208147,313.567243 L307.770647,313.567243 L307.770647,315.452009 L299.987444,315.452009 L299.987444,317.024275 L317.389788,317.024275 Z" id="文化轉型" fill="#FFFFFF" fill-rule="nonzero"></path>
            <path d="M94.0848214,303.344029 C94.7684152,301.358352 95.1102121,298.812779 95.1102121,295.70731 L95.1102121,295.70731 L95.1102121,292.406529 L101.848493,292.406529 L101.848493,288.646763 L95.1102121,288.646763 L95.1102121,287.73856 C97.2326079,287.647414 99.4038318,287.354446 101.623884,286.859654 C101.539249,286.729446 101.40904,286.495071 101.233259,286.156529 C101.057478,285.817987 100.917504,285.573847 100.813337,285.424107 C98.7104725,285.925409 96.2690662,286.231399 93.4891183,286.342076 L93.4891183,286.342076 L93.4891183,295.101842 C93.4891183,297.998977 93.2091704,300.326451 92.6492746,302.084263 L92.6492746,302.084263 L94.0848214,303.344029 Z M103.166853,303.304967 C104.436384,302.478144 105.416202,301.524368 106.106306,300.443638 L106.106306,300.443638 L105.110212,299.486607 L109.612165,299.486607 L109.612165,289.379185 L106.887556,289.379185 C107.082868,288.741164 107.235863,288.135696 107.34654,287.562779 L107.34654,287.562779 L110.2274,287.562779 L110.2274,286.000279 L102.209821,286.000279 L102.209821,287.562779 L105.452009,287.562779 C105.380394,288.083612 105.2274,288.689081 104.993025,289.379185 L104.993025,289.379185 L102.952009,289.379185 L102.952009,299.486607 L104.768415,299.486607 C104.280134,300.274368 103.420759,301.10119 102.19029,301.967076 L102.19029,301.967076 L103.166853,303.304967 Z M100.207868,291.01981 L95.1102121,291.01981 L95.1102121,290.043248 L100.2274,290.043248 L100.207868,291.01981 Z M108.010603,292.240513 L104.612165,292.240513 L104.612165,290.941685 L108.010603,290.941685 L108.010603,292.240513 Z M97.8445871,303.099888 L97.8445871,302.220982 L101.965681,302.220982 L101.965681,300.804967 L100.530134,300.804967 L100.530134,299.945592 L101.7899,299.945592 L101.7899,298.539342 L100.530134,298.539342 L100.530134,297.660435 L101.7899,297.660435 L101.7899,296.342076 L100.530134,296.342076 L100.530134,295.482701 L102.268415,295.482701 L102.268415,294.125279 L100.62779,294.125279 C100.595238,293.708612 100.487816,293.28869 100.305525,292.865513 L100.305525,292.865513 L98.7918527,293.080357 C98.9611235,293.451451 99.0652902,293.799758 99.1043527,294.125279 L99.1043527,294.125279 L98.0106027,294.125279 C98.1277902,293.877883 98.2547433,293.529576 98.3914621,293.080357 L98.3914621,293.080357 L96.9461496,292.660435 C96.5425037,294.001581 95.9956287,295.176711 95.3055246,296.185826 L95.3055246,296.185826 L95.8914621,297.982701 C95.9956287,297.904576 96.1486235,297.73856 96.3504464,297.484654 L96.3504464,297.484654 L96.3504464,303.099888 L97.8445871,303.099888 Z M108.010603,295.043248 L104.612165,295.043248 L104.612165,293.705357 L108.010603,293.705357 L108.010603,295.043248 Z M99.1043527,296.342076 L97.8445871,296.342076 L97.8445871,295.482701 L99.1043527,295.482701 L99.1043527,296.342076 Z M108.010603,297.96317 L104.612165,297.96317 L104.612165,296.498326 L108.010603,296.498326 L108.010603,297.96317 Z M99.1043527,298.539342 L97.8445871,298.539342 L97.8445871,297.660435 L99.1043527,297.660435 L99.1043527,298.539342 Z M109.387556,303.265904 L110.510603,302.006138 C109.644717,301.179315 108.638858,300.417597 107.493025,299.720982 L107.493025,299.720982 L106.389509,300.961217 C107.437686,301.612258 108.437035,302.380487 109.387556,303.265904 L109.387556,303.265904 Z M99.1043527,300.804967 L97.8445871,300.804967 L97.8445871,299.945592 L99.1043527,299.945592 L99.1043527,300.804967 Z M129.524275,297.601842 L130.168806,296.01981 C127.864118,295.804967 125.637556,295.332961 123.489118,294.603795 C124.634952,293.90718 125.855655,293.021763 127.151228,291.947545 L127.151228,291.947545 L127.151228,290.385045 L119.866071,290.385045 C120.139509,290.085565 120.380394,289.799107 120.588728,289.52567 L120.588728,289.52567 L119.231306,288.763951 L127.97154,288.763951 L127.97154,291.527623 L129.768415,291.527623 L129.768415,287.142857 L122.463728,287.142857 C122.131696,286.381138 121.861514,285.853795 121.653181,285.560826 L121.653181,285.560826 L119.768415,286.000279 C120.126488,286.618769 120.325056,286.999628 120.364118,287.142857 L120.364118,287.142857 L113.225446,287.142857 L113.225446,291.527623 L115.012556,291.527623 L115.012556,288.763951 L118.948103,288.763951 C117.626488,290.443638 115.839379,291.931269 113.586775,293.226842 L113.586775,293.226842 L114.768415,294.52567 C115.575707,294.030878 116.40253,293.464472 117.248884,292.826451 C117.665551,293.184524 118.453311,293.763951 119.612165,294.564732 C117.450707,295.241815 115.188337,295.681269 112.825056,295.883092 L112.825056,295.883092 L113.50865,297.504185 C116.425316,297.133092 119.117374,296.491815 121.584821,295.580357 C123.941592,296.543899 126.588077,297.217727 129.524275,297.601842 L129.524275,297.601842 Z M121.526228,293.803013 C120.497582,293.269159 119.566592,292.65067 118.733259,291.947545 L118.733259,291.947545 L124.44615,291.947545 C123.684431,292.559524 122.711124,293.178013 121.526228,293.803013 Z M117.151228,303.226842 L117.151228,302.484654 L125.8524,302.484654 L125.8524,303.226842 L127.668806,303.226842 L127.668806,297.504185 L115.325056,297.504185 L115.325056,303.226842 L117.151228,303.226842 Z M125.8524,300.86356 L117.151228,300.86356 L117.151228,299.105748 L125.8524,299.105748 L125.8524,300.86356 Z M149.807478,293.002232 L149.807478,287.084263 L147.424665,287.084263 L147.424665,285.658482 L145.891462,285.658482 L145.891462,287.084263 L144.993025,287.084263 L144.993025,285.658482 L143.528181,285.658482 L143.528181,287.084263 L141.086775,287.084263 L141.086775,293.002232 L149.807478,293.002232 Z M136.506696,303.178013 C137.463728,303.164993 138.183129,303.052688 138.6649,302.841099 C139.14667,302.629511 139.387556,302.123326 139.387556,301.322545 L139.387556,301.322545 L139.387556,293.705357 L140.393415,293.705357 L140.393415,290.765904 L139.787946,290.765904 L139.787946,285.844029 L133.586775,285.844029 L133.586775,290.765904 L132.864118,290.765904 L132.864118,293.705357 L133.811384,293.705357 L133.811384,297.845982 C133.811384,299.473586 133.410993,300.899368 132.610212,302.123326 L132.610212,302.123326 L133.987165,303.080357 C134.644717,302.18192 135.08417,301.029576 135.305525,299.623326 L135.305525,299.623326 L135.8524,300.502232 C136.522972,300.170201 137.154483,299.825149 137.746931,299.467076 L137.746931,299.467076 L137.746931,301.097935 C137.746931,301.267206 137.698103,301.382766 137.600446,301.444615 C137.50279,301.506464 137.203311,301.537388 136.702009,301.537388 C136.513207,301.537388 136.269066,301.530878 135.969587,301.517857 L135.969587,301.517857 L136.506696,303.178013 Z M135.930525,290.765904 L135.149275,290.765904 L135.149275,287.406529 L138.205915,287.406529 L138.205915,288.246373 L135.930525,288.246373 L135.930525,290.765904 Z M148.264509,289.418248 L147.424665,289.418248 L147.424665,288.402623 L148.264509,288.402623 L148.264509,289.418248 Z M145.891462,289.418248 L144.993025,289.418248 L144.993025,288.402623 L145.891462,288.402623 L145.891462,289.418248 Z M143.528181,289.418248 L142.57115,289.418248 L142.57115,288.402623 L143.528181,288.402623 L143.528181,289.418248 Z M138.205915,290.765904 L137.248884,290.765904 L137.248884,289.584263 L138.205915,289.584263 L138.205915,290.765904 Z M148.264509,291.683873 L147.424665,291.683873 L147.424665,290.61942 L148.264509,290.61942 L148.264509,291.683873 Z M145.891462,291.683873 L144.993025,291.683873 L144.993025,290.61942 L145.891462,290.61942 L145.891462,291.683873 Z M143.528181,291.683873 L142.57115,291.683873 L142.57115,290.61942 L143.528181,290.61942 L143.528181,291.683873 Z M138.791853,293.402623 L134.485212,293.402623 L134.485212,292.299107 L138.791853,292.299107 L138.791853,293.402623 Z M150.051618,295.365513 L150.051618,293.920201 L140.705915,293.920201 L140.705915,295.365513 L150.051618,295.365513 Z M135.412946,298.978795 C135.452009,298.536086 135.47154,297.97619 135.47154,297.299107 C135.855655,297.383743 136.340681,297.530227 136.926618,297.73856 L136.926618,297.73856 L137.385603,296.303013 C136.929874,296.153274 136.291853,295.980748 135.47154,295.785435 L135.47154,295.785435 L135.47154,294.945592 L137.746931,294.945592 L137.746931,297.699498 C137.050316,298.122675 136.272321,298.549107 135.412946,298.978795 Z M150.188337,302.826451 L150.188337,301.381138 L147.952009,301.381138 C148.264509,300.580357 148.437035,300.114862 148.469587,299.984654 L148.469587,299.984654 L149.44615,299.984654 L149.44615,296.185826 L141.369978,296.185826 L141.369978,299.984654 L142.268415,299.984654 C142.385603,300.251581 142.564639,300.717076 142.805525,301.381138 L142.805525,301.381138 L140.2274,301.381138 L140.2274,302.826451 L150.188337,302.826451 Z M147.746931,298.666295 L143.069196,298.666295 L143.069196,297.445592 L147.746931,297.445592 L147.746931,298.666295 Z M146.086775,301.381138 L144.592634,301.381138 C144.442894,300.93192 144.260603,300.466425 144.045759,299.984654 L144.045759,299.984654 L146.604353,299.984654 C146.493676,300.375279 146.32115,300.840774 146.086775,301.381138 L146.086775,301.381138 Z M169.709821,291.64481 L170.491071,290.08231 C168.479353,288.916946 166.94615,287.631138 165.891462,286.224888 C166.002139,286.081659 166.093285,285.941685 166.1649,285.804967 L166.1649,285.804967 L164.348493,285.404576 C163.469587,287.019159 161.868025,288.539342 159.543806,289.965123 L159.543806,289.965123 L160.364118,291.605748 C160.780785,291.338821 161.396019,290.883092 162.209821,290.23856 L162.209821,290.23856 L162.209821,291.263951 L167.57115,291.263951 L167.57115,290.23856 C168.20266,290.713821 168.915551,291.182571 169.709821,291.64481 L169.709821,291.64481 Z M157.131696,303.070592 C158.303571,303.070592 159.019717,302.696243 159.280134,301.947545 C159.540551,301.198847 159.670759,298.66955 159.670759,294.359654 L159.670759,294.359654 L157.912946,294.359654 L157.912946,292.96317 L159.309431,292.96317 L159.309431,291.566685 L157.912946,291.566685 L157.912946,290.258092 L159.309431,290.258092 L159.309431,288.822545 L157.912946,288.822545 L157.912946,287.58231 L159.827009,287.58231 L159.827009,286.01981 L153.489118,286.01981 L153.489118,295.902623 L158.147321,295.902623 C158.062686,299.170852 157.976423,300.90425 157.888532,301.102818 C157.800642,301.301386 157.681827,301.40067 157.532087,301.40067 L157.532087,301.40067 L155.871931,301.420201 L156.428571,303.041295 C156.728051,303.060826 156.962426,303.070592 157.131696,303.070592 Z M156.369978,288.822545 L155.110212,288.822545 L155.110212,287.58231 L156.369978,287.58231 L156.369978,288.822545 Z M166.965681,289.779576 L162.785993,289.779576 C163.599795,289.089472 164.312686,288.370071 164.924665,287.621373 C165.588728,288.461217 166.269066,289.180618 166.965681,289.779576 L166.965681,289.779576 Z M156.369978,291.566685 L155.110212,291.566685 L155.110212,290.258092 L156.369978,290.258092 L156.369978,291.566685 Z M169.407087,297.367467 L169.407087,292.240513 L165.325056,292.240513 L165.325056,297.367467 L169.407087,297.367467 Z M164.426618,297.367467 L164.426618,292.240513 L160.432478,292.240513 L160.432478,297.367467 L164.426618,297.367467 Z M156.369978,294.359654 L155.110212,294.359654 L155.110212,292.96317 L156.369978,292.96317 L156.369978,294.359654 Z M167.991071,295.824498 L166.7899,295.824498 L166.7899,293.74442 L167.991071,293.74442 L167.991071,295.824498 Z M163.030134,295.824498 L161.809431,295.824498 L161.809431,293.74442 L163.030134,293.74442 L163.030134,295.824498 Z M157.073103,299.965123 L157.785993,299.720982 C157.720889,298.44494 157.587426,297.370722 157.385603,296.498326 L157.385603,296.498326 L156.692243,296.64481 C156.94615,297.875279 157.073103,298.98205 157.073103,299.965123 L157.073103,299.965123 Z M153.469587,301.742467 C153.840681,300.101842 154.026228,298.467727 154.026228,296.840123 L154.026228,296.840123 L153.186384,296.683873 C153.134301,298.35705 152.942243,299.942336 152.610212,301.439732 L152.610212,301.439732 L153.469587,301.742467 Z M155.891462,300.678013 L156.692243,300.482701 C156.64016,298.946243 156.526228,297.692987 156.350446,296.722935 L156.350446,296.722935 L155.588728,296.820592 C155.790551,297.946894 155.891462,299.232701 155.891462,300.678013 L155.891462,300.678013 Z M154.44615,301.40067 L155.344587,301.224888 C155.364118,300.808222 155.373884,300.3883 155.373884,299.965123 C155.373884,298.871373 155.318545,297.816685 155.207868,296.80106 L155.207868,296.80106 L154.407087,296.918248 C154.478702,297.777623 154.514509,298.633743 154.514509,299.486607 C154.514509,300.15067 154.491722,300.78869 154.44615,301.40067 L154.44615,301.40067 Z M165.725446,303.285435 C166.291853,302.595331 166.786644,301.895461 167.209821,301.185826 C168.010603,301.830357 168.6649,302.487909 169.172712,303.158482 L169.172712,303.158482 L170.393415,301.820592 C169.761905,301.104446 168.941592,300.372024 167.932478,299.623326 C168.205915,299.004836 168.378441,298.477493 168.450056,298.041295 L168.450056,298.041295 L166.7899,297.73856 C166.184431,299.541946 165.312035,301.084914 164.172712,302.367467 L164.172712,302.367467 L165.725446,303.285435 Z M160.969587,303.285435 C161.516462,302.621373 162.037295,301.833612 162.532087,300.922154 C162.870629,301.208612 163.248233,301.602493 163.6649,302.103795 L163.6649,302.103795 L164.787946,300.86356 C164.364769,300.368769 163.837426,299.860956 163.205915,299.340123 C163.368676,298.962519 163.51516,298.555618 163.645368,298.11942 L163.645368,298.11942 L161.965681,297.73856 C161.295108,299.665644 160.455264,301.192336 159.44615,302.318638 L159.44615,302.318638 L160.969587,303.285435 Z M129.045759,324.699498 L130.325056,323.859654 C129.960472,323.3258 129.449405,322.645461 128.791853,321.818638 L128.791853,321.818638 L129.348493,321.818638 L129.348493,316.183873 L125.969587,316.183873 L125.969587,315.265904 L129.807478,315.265904 L129.807478,313.761998 L125.969587,313.761998 L125.969587,312.638951 L124.270368,312.638951 L124.270368,313.761998 L120.491071,313.761998 L120.491071,315.265904 L124.270368,315.265904 L124.270368,316.183873 L120.8524,316.183873 L120.8524,321.818638 L124.270368,321.818638 L124.270368,322.902623 C122.994327,322.967727 121.607608,323.000279 120.110212,323.000279 L120.110212,323.000279 L120.393415,324.42606 C122.945499,324.406529 125.644066,324.237258 128.489118,323.918248 C128.697452,324.185175 128.882999,324.445592 129.045759,324.699498 L129.045759,324.699498 Z M117.268415,330.20731 L117.268415,327.560826 L119.787946,327.560826 L119.787946,325.920201 L117.268415,325.920201 L117.268415,324.865513 L119.592634,324.865513 L119.592634,316.799107 L117.268415,316.799107 L117.268415,315.646763 L119.924665,315.646763 L119.924665,314.064732 L117.268415,314.064732 L117.268415,312.638951 L115.647321,312.638951 L115.647321,314.064732 L112.825056,314.064732 L112.825056,315.646763 L115.647321,315.646763 L115.647321,316.799107 L113.264509,316.799107 L113.264509,324.865513 L115.647321,324.865513 L115.647321,325.920201 L112.805525,325.920201 L112.805525,327.560826 L115.647321,327.560826 L115.647321,330.20731 L117.268415,330.20731 Z M127.707868,318.342076 L125.969587,318.342076 L125.969587,317.521763 L127.707868,317.521763 L127.707868,318.342076 Z M124.270368,318.342076 L122.493025,318.342076 L122.493025,317.521763 L124.270368,317.521763 L124.270368,318.342076 Z M118.088728,320.060826 L117.268415,320.060826 L117.268415,318.40067 L118.088728,318.40067 L118.088728,320.060826 Z M115.647321,320.060826 L114.787946,320.060826 L114.787946,318.40067 L115.647321,318.40067 L115.647321,320.060826 Z M127.707868,320.500279 L125.969587,320.500279 L125.969587,319.640904 L127.707868,319.640904 L127.707868,320.500279 Z M124.270368,320.500279 L122.493025,320.500279 L122.493025,319.640904 L124.270368,319.640904 L124.270368,320.500279 Z M118.088728,323.283482 L117.268415,323.283482 L117.268415,321.603795 L118.088728,321.603795 L118.088728,323.283482 Z M115.647321,323.283482 L114.787946,323.283482 L114.787946,321.603795 L115.647321,321.603795 L115.647321,323.283482 Z M125.969587,322.785435 L125.969587,321.818638 L128.264509,321.818638 L127.131696,322.365513 C127.222842,322.430618 127.327009,322.521763 127.444196,322.638951 L127.444196,322.638951 L125.969587,322.785435 Z M127.043806,330.20731 C127.356306,330.20731 127.655785,330.068964 127.942243,329.792271 C128.228702,329.515578 128.371931,329.224237 128.371931,328.918248 L128.371931,328.918248 L128.371931,326.52567 L130.2274,326.52567 L130.2274,325.060826 L128.371931,325.060826 L128.371931,324.445592 L126.653181,324.445592 L126.653181,325.060826 L120.325056,325.060826 L120.325056,326.52567 L126.653181,326.52567 L126.653181,328.303013 C126.653181,328.530878 126.545759,328.64481 126.330915,328.64481 C125.875186,328.64481 125.373884,328.631789 124.827009,328.605748 L124.827009,328.605748 L125.364118,330.158482 C125.637556,330.191034 126.197452,330.20731 127.043806,330.20731 Z M123.205915,329.162388 L124.670759,328.263951 C123.948103,327.580357 123.368676,327.066034 122.932478,326.720982 L122.932478,326.720982 L121.467634,327.580357 C122.099144,328.062128 122.678571,328.589472 123.205915,329.162388 L123.205915,329.162388 Z M147.668806,323.439732 C148.261254,323.439732 148.733259,323.286737 149.084821,322.980748 C149.436384,322.674758 149.612165,322.274368 149.612165,321.779576 L149.612165,321.779576 L149.612165,312.804967 L147.912946,312.804967 L147.912946,321.242467 C147.912946,321.470331 147.839704,321.628209 147.69322,321.716099 C147.546735,321.80399 146.985212,321.847935 146.00865,321.847935 C145.520368,321.847935 145.048363,321.831659 144.592634,321.799107 L144.592634,321.799107 L145.110212,323.439732 L147.668806,323.439732 Z M134.612165,323.586217 C136.148624,322.206008 137.007999,320.610956 137.19029,318.80106 L137.19029,318.80106 L139.387556,318.80106 L139.387556,322.824498 L141.106306,322.824498 L141.106306,318.80106 L143.469587,318.80106 L143.469587,317.23856 L141.106306,317.23856 L141.106306,314.640904 L143.205915,314.640904 L143.205915,313.01981 L133.313337,313.01981 L133.313337,314.640904 L135.647321,314.640904 L135.647321,317.23856 L133.010603,317.23856 L133.010603,318.80106 L135.510603,318.80106 C135.334821,320.070592 134.628441,321.252232 133.391462,322.345982 L133.391462,322.345982 L134.612165,323.586217 Z M146.028181,320.422154 L146.028181,313.664342 L144.2899,313.664342 L144.2899,320.422154 L146.028181,320.422154 Z M139.387556,317.23856 L137.34654,317.23856 L137.34654,314.640904 L139.387556,314.640904 L139.387556,317.23856 Z M150.246931,329.73856 L150.246931,328.166295 L142.444196,328.166295 L142.444196,326.281529 L149.06529,326.281529 L149.06529,324.679967 L142.444196,324.679967 L142.444196,323.303013 L140.62779,323.303013 L140.62779,324.679967 L134.06529,324.679967 L134.06529,326.281529 L140.62779,326.281529 L140.62779,328.166295 L132.844587,328.166295 L132.844587,329.73856 L150.246931,329.73856 Z" id="顧客體驗轉型" fill="#FFFFFF" fill-rule="nonzero"></path>
            <path d="M32.5697545,153.736049 C34.7116815,153.325893 36.5411086,152.873419 38.0580357,152.378627 C38.188244,152.7367 38.2793899,153.081752 38.3314732,153.413783 L38.3314732,153.413783 L39.8549107,152.779018 C39.4577753,151.353237 39.0834263,150.233445 38.7318638,149.419643 L38.7318638,149.419643 L37.2377232,149.995815 C37.3679315,150.301804 37.4720982,150.588263 37.5502232,150.85519 C36.6973586,151.128627 35.9128534,151.33045 35.1967076,151.460658 C36.8568638,149.787481 38.390067,147.665086 39.796317,145.093471 L39.796317,145.093471 L38.1947545,144.253627 C37.8106399,144.995815 37.4232701,145.656622 37.0326451,146.236049 C36.3164993,146.39881 35.6036086,146.512742 34.8939732,146.577846 C35.9747024,145.223679 36.9089472,143.651414 37.6967076,141.861049 L37.6967076,141.861049 L35.8510045,141.275112 C34.7572545,143.937872 33.5658482,145.884487 32.2767857,147.114955 L32.2767857,147.114955 L32.5990513,148.560268 C33.8164993,148.397507 34.9004836,148.238002 35.8510045,148.081752 C34.718192,149.754929 33.4714472,151.112351 32.1107701,152.154018 L32.1107701,152.154018 L32.5697545,153.736049 Z M49.4935826,158.433315 L49.4935826,156.753627 L48.3314732,156.753627 L48.3314732,141.958705 L40.2943638,141.958705 L40.2943638,156.753627 L39.249442,156.753627 L39.249442,158.433315 L49.4935826,158.433315 Z M46.5541295,146.675502 L42.0912388,146.675502 L42.0912388,143.657924 L46.5541295,143.657924 L46.5541295,146.675502 Z M46.5541295,151.519252 L42.0912388,151.519252 L42.0912388,148.394252 L46.5541295,148.394252 L46.5541295,151.519252 Z M46.5541295,156.753627 L42.0912388,156.753627 L42.0912388,153.159877 L46.5541295,153.159877 L46.5541295,156.753627 Z M38.1166295,156.734096 L39.5326451,156.177455 C39.2331659,155.116257 38.953218,154.282924 38.6928013,153.677455 L38.6928013,153.677455 L37.3549107,154.13644 C37.6543899,154.891648 37.9082961,155.757533 38.1166295,156.734096 L38.1166295,156.734096 Z M35.4896763,158.452846 L37.1303013,158.052455 C37.0717076,156.704799 36.8796503,155.38644 36.5541295,154.097377 L36.5541295,154.097377 L35.0697545,154.400112 C35.4017857,155.94308 35.5417597,157.293992 35.4896763,158.452846 L35.4896763,158.452846 Z M33.5365513,158.960658 C34.1159784,157.58045 34.4740513,156.09933 34.6107701,154.517299 L34.6107701,154.517299 L32.9701451,154.116908 C32.8008743,155.607794 32.4623326,156.94894 31.9545201,158.140346 L31.9545201,158.140346 L33.5365513,158.960658 Z M52.218192,153.472377 C53.858817,153.159877 55.2845982,152.840867 56.4955357,152.515346 C56.593192,152.938523 56.6517857,153.251023 56.671317,153.452846 L56.671317,153.452846 L58.0970982,153.120815 C57.8366815,151.616908 57.5144159,150.396205 57.1303013,149.458705 L57.1303013,149.458705 L55.811942,149.859096 C55.968192,150.334356 56.0756138,150.721726 56.1342076,151.021205 C55.4896763,151.216518 54.8972284,151.363002 54.3568638,151.460658 C55.6524368,149.670294 56.8308222,147.528367 57.8920201,145.034877 L57.8920201,145.034877 L56.436942,144.341518 C56.0984003,145.187872 55.8054315,145.819382 55.5580357,146.236049 C54.7116815,146.41183 54.2103795,146.512742 54.0541295,146.538783 C54.8353795,145.529669 55.655692,143.996466 56.515067,141.939174 L56.515067,141.939174 L54.9330357,141.25558 C54.1062128,143.670945 53.1784784,145.510138 52.1498326,146.773158 L52.1498326,146.773158 L52.3939732,148.316127 L54.7572545,147.935268 C53.780692,149.706101 52.8269159,151.09282 51.8959263,152.095424 L51.8959263,152.095424 L52.218192,153.472377 Z M63.4779576,159.058315 C64.1810826,158.485398 64.9265253,157.785528 65.7142857,156.958705 C66.1765253,158.345424 66.827567,159.038783 67.6674107,159.038783 C68.2468378,159.038783 68.6797805,158.752325 68.9662388,158.179408 C69.2526972,157.606492 69.4903274,156.665737 69.6791295,155.357143 L69.6791295,155.357143 L68.233817,154.419643 C68.2142857,155.122768 68.1345331,155.74614 67.9945592,156.28976 C67.8545852,156.83338 67.7553013,157.10519 67.6967076,157.10519 C67.6511347,157.10519 67.5599888,156.94894 67.4232701,156.63644 C67.2865513,156.32394 67.156343,155.803106 67.0326451,155.07394 C67.8920201,153.876023 68.6472284,152.163783 69.2982701,149.937221 L69.2982701,149.937221 L67.8334263,149.253627 C67.5664993,150.275763 67.1986607,151.304408 66.7299107,152.339565 C66.625744,151.551804 66.5736607,150.298549 66.5736607,148.579799 L66.5736607,148.579799 L69.4349888,148.579799 L69.4349888,146.919643 L66.5345982,146.919643 L66.5345982,146.919643 L66.534921,146.188835 C66.5370732,143.832172 66.5499865,142.269134 66.5736607,141.499721 L66.5736607,141.499721 L64.8939732,141.499721 L64.8549107,146.919643 L63.233817,146.919643 C63.4486607,146.210007 63.6211868,145.46782 63.7513951,144.69308 L63.7513951,144.69308 L64.2982701,144.69308 L64.2982701,143.081752 L62.0326451,143.081752 C61.921968,142.652065 61.7168899,142.069382 61.4174107,141.333705 L61.4174107,141.333705 L59.718192,141.616908 C59.9981399,142.228888 60.1901972,142.717169 60.2943638,143.081752 L60.2943638,143.081752 L57.9115513,143.081752 L57.9115513,144.69308 L58.5170201,144.69308 C58.8360305,145.598028 59.0411086,146.340216 59.1322545,146.919643 L59.1322545,146.919643 L57.4720982,146.919643 L57.4720982,148.579799 L64.8939732,148.579799 C64.8939732,150.949591 65.0209263,153.075242 65.2748326,154.956752 C64.6888951,155.672898 64.187593,156.200242 63.7709263,156.538783 L63.7709263,156.538783 L63.7709263,149.38058 L58.4779576,149.38058 L58.4779576,156.675502 L63.6146763,156.675502 C63.2110305,157.059617 62.703218,157.486049 62.0912388,157.954799 L62.0912388,157.954799 L63.4779576,159.058315 Z M67.9506138,146.519252 L69.4154576,145.952846 C69.2526972,144.969773 68.8783482,143.710007 68.2924107,142.173549 L68.2924107,142.173549 L66.9154576,142.632533 C67.5144159,144.221075 67.859468,145.516648 67.9506138,146.519252 L67.9506138,146.519252 Z M61.515067,146.919643 L60.8314732,146.919643 C60.6361607,146.09282 60.4310826,145.350632 60.2162388,144.69308 L60.2162388,144.69308 L62.0521763,144.69308 C61.8763951,145.650112 61.6973586,146.392299 61.515067,146.919643 L61.515067,146.919643 Z M62.1107701,152.320033 L60.1185826,152.320033 L60.1185826,151.040737 L62.1107701,151.040737 L62.1107701,152.320033 Z M62.1107701,155.034877 L60.1185826,155.034877 L60.1185826,153.775112 L62.1107701,153.775112 L62.1107701,155.034877 Z M56.7103795,157.534877 L58.0385045,157.320033 C57.9603795,156.297898 57.7455357,155.135789 57.3939732,153.833705 L57.3939732,153.833705 L56.1537388,154.097377 C56.4727493,155.334356 56.6582961,156.48019 56.7103795,157.534877 L56.7103795,157.534877 Z M53.0189732,158.960658 C53.077567,158.921596 53.2533482,158.376349 53.546317,157.324916 C53.8392857,156.273484 54.0345982,155.223679 54.1322545,154.175502 L54.1322545,154.175502 L52.7943638,153.872768 C52.6706659,155.15532 52.3223586,156.629929 51.749442,158.296596 L51.749442,158.296596 L53.0189732,158.960658 Z M54.7767857,158.316127 L56.0951451,158.120815 C56.1276972,157.001023 55.9942336,155.659877 55.6947545,154.097377 L55.6947545,154.097377 L54.4349888,154.38058 C54.6628534,155.825893 54.7767857,157.137742 54.7767857,158.316127 L54.7767857,158.316127 Z M89.4935826,158.179408 L89.4935826,156.372768 L81.749442,156.372768 L81.749442,143.960658 L88.6928013,143.960658 L88.6928013,142.095424 L72.8920201,142.095424 L72.8920201,143.960658 L79.8353795,143.960658 L79.8353795,156.372768 L72.0326451,156.372768 L72.0326451,158.179408 L89.4935826,158.179408 Z M95.9974888,158.814174 L95.9974888,145.796596 L96.8470982,143.814174 C97.1140253,143.176153 97.390718,142.450242 97.6771763,141.63644 L97.6771763,141.63644 L95.8705357,141.236049 C94.9590774,144.139695 93.6732701,146.613653 92.0131138,148.657924 L92.0131138,148.657924 L92.8529576,150.513393 C93.2305618,150.122768 93.6765253,149.569382 94.1908482,148.853237 L94.1908482,148.853237 L94.1908482,158.814174 L95.9974888,158.814174 Z M103.272879,158.833705 L103.272879,154.712612 L109.054129,154.712612 L109.054129,153.081752 L103.272879,153.081752 L103.272879,150.181362 L109.034598,150.181362 L109.034598,148.521205 L103.272879,148.521205 L103.272879,145.581752 L109.493583,145.581752 L109.493583,143.921596 L101.534598,143.921596 C101.957775,142.801804 102.218192,142.040086 102.315848,141.63644 L102.315848,141.63644 L100.538504,141.25558 C99.6465774,144.185268 98.3379836,146.685268 96.6127232,148.75558 L96.6127232,148.75558 L97.9115513,149.995815 C98.8685826,148.921596 99.828869,147.450242 100.792411,145.581752 L100.792411,145.581752 L101.476004,145.581752 L101.476004,158.833705 L103.272879,158.833705 Z M47.1107701,172.16183 L47.1107701,171.214565 L49.2982701,171.214565 L49.2982701,169.66183 L47.1107701,169.66183 L47.1107701,168.421596 L45.3529576,168.421596 L45.3529576,169.66183 L44.1517857,169.66183 L44.1517857,171.214565 L45.3529576,171.214565 L45.3529576,172.16183 L47.1107701,172.16183 Z M42.2377232,172.16183 L42.2377232,171.214565 L43.390067,171.214565 L43.390067,169.66183 L42.2377232,169.66183 L42.2377232,168.421596 L40.4701451,168.421596 L40.4701451,169.66183 L38.0189732,169.66183 L38.0189732,171.214565 L40.4701451,171.214565 L40.4701451,172.16183 L42.2377232,172.16183 Z M36.0560826,185.872768 L36.0560826,176.058315 C36.4792597,176.598679 36.9577753,177.324591 37.4916295,178.236049 L37.4916295,178.236049 L38.6928013,176.937221 C38.1394159,176.090867 37.2605097,175.029669 36.0560826,173.753627 L36.0560826,173.753627 L36.0560826,173.460658 L37.8724888,173.460658 L37.8724888,171.741908 L36.0560826,171.741908 L36.0560826,168.441127 L34.3373326,168.441127 L34.3373326,171.741908 L32.0912388,171.741908 L32.0912388,173.460658 L34.249442,173.460658 C33.8718378,175.101283 33.0612909,176.927455 31.8178013,178.939174 L31.8178013,178.939174 L32.7553013,180.794643 C33.2761347,179.857143 33.8034784,178.704799 34.3373326,177.337612 L34.3373326,177.337612 L34.3373326,185.872768 L36.0560826,185.872768 Z M38.1752232,186.116908 C41.2676711,185.381231 43.2012649,183.968471 43.9760045,181.878627 L43.9760045,181.878627 L49.5131138,181.878627 L49.5131138,180.316127 L44.2982701,180.316127 C44.3633743,179.827846 44.3959263,179.453497 44.3959263,179.19308 L44.3959263,179.19308 L48.1752232,179.19308 L48.1752232,172.757533 L39.171317,172.757533 L39.171317,179.19308 L42.5990513,179.19308 C42.5730097,179.570685 42.5241815,179.945033 42.452567,180.316127 L42.452567,180.316127 L37.6185826,180.316127 L37.6185826,181.878627 L42.0521763,181.878627 C41.1667597,183.271856 39.594494,184.163783 37.3353795,184.554408 L37.3353795,184.554408 L38.1752232,186.116908 Z M46.436942,175.238002 L40.890067,175.238002 L40.890067,174.300502 L46.436942,174.300502 L46.436942,175.238002 Z M46.436942,177.679408 L40.890067,177.679408 L40.890067,176.654018 L46.436942,176.654018 L46.436942,177.679408 Z M48.7709263,185.960658 L49.7377232,184.476283 C48.2793899,183.675502 46.6517857,182.975632 44.8549107,182.376674 L44.8549107,182.376674 L43.9955357,183.88058 C45.7533482,184.460007 47.3451451,185.153367 48.7709263,185.960658 L48.7709263,185.960658 Z M67.0326451,185.941127 C68.4388951,185.941127 69.2592076,184.486049 69.4935826,181.575893 L69.4935826,181.575893 L67.7162388,180.657924 C67.6185826,182.956101 67.3679315,184.10519 66.9642857,184.10519 C66.6322545,184.10519 66.1000279,183.250698 65.367606,181.541713 C64.6351842,179.832729 64.2299107,177.096726 64.1517857,173.333705 L64.1517857,173.333705 L69.4740513,173.333705 L69.4740513,171.654018 L64.0736607,171.654018 C64.0085565,170.247768 63.9825149,169.160528 63.9955357,168.392299 L63.9955357,168.392299 L62.218192,168.392299 C62.1986607,169.212612 62.2247024,170.299851 62.296317,171.654018 L62.296317,171.654018 L52.0912388,171.654018 L52.0912388,173.333705 L62.3353795,173.333705 C62.4460565,177.116257 62.9489862,180.163132 63.8441685,182.47433 C64.7393508,184.785528 65.8021763,185.941127 67.0326451,185.941127 Z M67.6185826,171.419643 L68.9174107,170.296596 C68.2924107,169.626023 67.4786086,169.020554 66.4760045,168.48019 L66.4760045,168.48019 L65.1185826,169.681362 C65.9388951,170.078497 66.7722284,170.657924 67.6185826,171.419643 L67.6185826,171.419643 Z M52.7748326,184.632533 C55.3008743,184.320033 58.4128534,183.701544 62.1107701,182.777065 L62.1107701,182.777065 L62.0521763,181.019252 C61.0560826,181.29269 59.7442336,181.60519 58.1166295,181.956752 L58.1166295,181.956752 L58.1166295,177.054408 L61.5345982,177.054408 L61.5345982,175.35519 L53.077567,175.35519 L53.077567,177.054408 L56.2904576,177.054408 L56.2904576,182.376674 C54.8386347,182.650112 53.5332961,182.858445 52.374442,183.001674 L52.374442,183.001674 L52.7748326,184.632533 Z M88.3314732,180.413783 L89.6107701,179.57394 C89.2461868,179.040086 88.735119,178.359747 88.077567,177.532924 L88.077567,177.532924 L88.6342076,177.532924 L88.6342076,171.898158 L85.2553013,171.898158 L85.2553013,170.98019 L89.093192,170.98019 L89.093192,169.476283 L85.2553013,169.476283 L85.2553013,168.353237 L83.5560826,168.353237 L83.5560826,169.476283 L79.7767857,169.476283 L79.7767857,170.98019 L83.5560826,170.98019 L83.5560826,171.898158 L80.1381138,171.898158 L80.1381138,177.532924 L83.5560826,177.532924 L83.5560826,178.616908 C82.2800409,178.682013 80.8933222,178.714565 79.3959263,178.714565 L79.3959263,178.714565 L79.6791295,180.140346 C82.2312128,180.120815 84.9297805,179.951544 87.7748326,179.632533 C87.9831659,179.899461 88.1687128,180.159877 88.3314732,180.413783 L88.3314732,180.413783 Z M76.5541295,185.921596 L76.5541295,183.275112 L79.0736607,183.275112 L79.0736607,181.634487 L76.5541295,181.634487 L76.5541295,180.579799 L78.8783482,180.579799 L78.8783482,172.513393 L76.5541295,172.513393 L76.5541295,171.361049 L79.2103795,171.361049 L79.2103795,169.779018 L76.5541295,169.779018 L76.5541295,168.353237 L74.9330357,168.353237 L74.9330357,169.779018 L72.1107701,169.779018 L72.1107701,171.361049 L74.9330357,171.361049 L74.9330357,172.513393 L72.5502232,172.513393 L72.5502232,180.579799 L74.9330357,180.579799 L74.9330357,181.634487 L72.0912388,181.634487 L72.0912388,183.275112 L74.9330357,183.275112 L74.9330357,185.921596 L76.5541295,185.921596 Z M86.9935826,174.056362 L85.2553013,174.056362 L85.2553013,173.236049 L86.9935826,173.236049 L86.9935826,174.056362 Z M83.5560826,174.056362 L81.7787388,174.056362 L81.7787388,173.236049 L83.5560826,173.236049 L83.5560826,174.056362 Z M77.374442,175.775112 L76.5541295,175.775112 L76.5541295,174.114955 L77.374442,174.114955 L77.374442,175.775112 Z M74.9330357,175.775112 L74.0736607,175.775112 L74.0736607,174.114955 L74.9330357,174.114955 L74.9330357,175.775112 Z M86.9935826,176.214565 L85.2553013,176.214565 L85.2553013,175.35519 L86.9935826,175.35519 L86.9935826,176.214565 Z M83.5560826,176.214565 L81.7787388,176.214565 L81.7787388,175.35519 L83.5560826,175.35519 L83.5560826,176.214565 Z M77.374442,178.997768 L76.5541295,178.997768 L76.5541295,177.31808 L77.374442,177.31808 L77.374442,178.997768 Z M74.9330357,178.997768 L74.0736607,178.997768 L74.0736607,177.31808 L74.9330357,177.31808 L74.9330357,178.997768 Z M85.2553013,178.499721 L85.2553013,177.532924 L87.5502232,177.532924 L86.4174107,178.079799 C86.5085565,178.144903 86.6127232,178.236049 86.7299107,178.353237 L86.7299107,178.353237 L85.2553013,178.499721 Z M86.3295201,185.921596 C86.6420201,185.921596 86.9414993,185.78325 87.2279576,185.506557 C87.5144159,185.229864 87.6576451,184.938523 87.6576451,184.632533 L87.6576451,184.632533 L87.6576451,182.239955 L89.5131138,182.239955 L89.5131138,180.775112 L87.6576451,180.775112 L87.6576451,180.159877 L85.9388951,180.159877 L85.9388951,180.775112 L79.6107701,180.775112 L79.6107701,182.239955 L85.9388951,182.239955 L85.9388951,184.017299 C85.9388951,184.245164 85.8314732,184.359096 85.6166295,184.359096 C85.1609003,184.359096 84.6595982,184.346075 84.1127232,184.320033 L84.1127232,184.320033 L84.6498326,185.872768 C84.9232701,185.90532 85.4831659,185.921596 86.3295201,185.921596 Z M82.4916295,184.876674 L83.9564732,183.978237 C83.233817,183.294643 82.6543899,182.78032 82.218192,182.435268 L82.218192,182.435268 L80.7533482,183.294643 C81.3848586,183.776414 81.9642857,184.303757 82.4916295,184.876674 L82.4916295,184.876674 Z M106.95452,179.154018 C107.546968,179.154018 108.018973,179.001023 108.370536,178.695033 C108.722098,178.389044 108.897879,177.988653 108.897879,177.493862 L108.897879,177.493862 L108.897879,168.519252 L107.198661,168.519252 L107.198661,176.956752 C107.198661,177.184617 107.125419,177.342494 106.978934,177.430385 C106.83245,177.518276 106.270926,177.562221 105.294364,177.562221 C104.806083,177.562221 104.334077,177.545945 103.878348,177.513393 L103.878348,177.513393 L104.395926,179.154018 L106.95452,179.154018 Z M93.8978795,179.300502 C95.4343378,177.920294 96.2937128,176.325242 96.4760045,174.515346 L96.4760045,174.515346 L98.6732701,174.515346 L98.6732701,178.538783 L100.39202,178.538783 L100.39202,174.515346 L102.755301,174.515346 L102.755301,172.952846 L100.39202,172.952846 L100.39202,170.35519 L102.491629,170.35519 L102.491629,168.734096 L92.5990513,168.734096 L92.5990513,170.35519 L94.9330357,170.35519 L94.9330357,172.952846 L92.296317,172.952846 L92.296317,174.515346 L94.796317,174.515346 C94.6205357,175.784877 93.9141555,176.966518 92.6771763,178.060268 L92.6771763,178.060268 L93.8978795,179.300502 Z M105.313895,176.13644 L105.313895,169.378627 L103.575614,169.378627 L103.575614,176.13644 L105.313895,176.13644 Z M98.6732701,172.952846 L96.6322545,172.952846 L96.6322545,170.35519 L98.6732701,170.35519 L98.6732701,172.952846 Z M109.532645,185.452846 L109.532645,183.88058 L101.729911,183.88058 L101.729911,181.995815 L108.351004,181.995815 L108.351004,180.394252 L101.729911,180.394252 L101.729911,179.017299 L99.9135045,179.017299 L99.9135045,180.394252 L93.3510045,180.394252 L93.3510045,181.995815 L99.9135045,181.995815 L99.9135045,183.88058 L92.1303013,183.88058 L92.1303013,185.452846 L109.532645,185.452846 Z" id="組織工作模式轉型" fill="#FFFFFF" fill-rule="nonzero"></path>
        </g>
    </g>
</svg>