<?xml version="1.0" encoding="UTF-8"?>
<svg width="457px" height="306px" viewBox="0 0 457 306" version="1.1" xmlns="http://www.w3.org/2000/svg" xmlns:xlink="http://www.w3.org/1999/xlink">
    <title>Combined Shape Copy</title>
    <defs>
        <linearGradient x1="50%" y1="-9.15030413%" x2="50%" y2="100%" id="linearGradient-1">
            <stop stop-color="#44A8F2" offset="0%"></stop>
            <stop stop-color="#4ED497" offset="100%"></stop>
        </linearGradient>
    </defs>
    <g id="Page-1" stroke="none" stroke-width="1" fill="none" fill-rule="evenodd">
        <path d="M66.3172,134.120169 L67.8212995,289.010544 L97,305.0052 L3,306 L34.2214582,289.365212 L32.7173587,134.959261 C32.6262012,125.141017 40.1715596,117.100437 49.5773605,117 C58.7304064,116.901477 66.221899,124.570088 66.3172,134.120169 Z M87.3668721,0 C94.5023331,-0.0717144259 100.972045,4.1708786 103.767337,10.7419844 L183.081059,197.45453 C183.678526,198.860183 185.641631,198.94136 186.354324,197.59125 L236.059297,99.2511055 C240.066592,91.6545995 249.344399,88.5698541 257.094397,92.2527496 C266.453288,96.6961502 270.558739,107.804652 266.346598,117.272513 L186.73841,299.35794 C183.1152,306.826271 172.518699,306.894631 168.797334,299.47757 L45.4801793,38.5858704 C39.9450759,27.5500015 28.6145441,20.6370957 16.2811216,20.7609982 L2.00166423,20.9062632 C0.99877347,20.9148082 0.175122762,20.1115781 0.166587522,19.1075405 L0,2.70968342 C-0.0126525288,1.7056458 0.793927698,0.881053193 1.79681846,0.872508192 L87.3668721,0 Z M365.964757,35.0037466 C402.281819,34.6368807 456.451094,61.2133305 456.995186,114.285178 C457.534994,167.35276 412.585292,192.798751 368.792321,193.242403 C345.139318,193.481292 343.59701,164.968132 368.50528,164.716445 C409.976221,160.258597 438.256147,63.7557966 336.652341,64.7838744 L336.652341,64.7838744 L338.730173,268.80825 L376.992257,303.762894 L255,305 L290.194605,271.65786 L287.983964,54.2684733 C287.87686,44.0644817 296.102501,35.7076173 306.350279,35.6052361 L306.350279,35.6052361 Z" id="Combined-Shape-Copy" fill="url(#linearGradient-1)"></path>
    </g>
</svg>