<?xml version="1.0" encoding="UTF-8"?>
<svg width="695px" height="97px" viewBox="0 0 695 97" version="1.1" xmlns="http://www.w3.org/2000/svg" xmlns:xlink="http://www.w3.org/1999/xlink">
    <title>animation_newlife</title>
    <g id="Page-1" stroke="none" stroke-width="1" fill="none" fill-rule="evenodd">
        <g id="index" transform="translate(-371.000000, -1101.000000)" fill="#FFFFFF" fill-rule="nonzero">
            <path d="M433.3,1196.9 C437.433333,1196.9 440.5,1196.8 442.5,1196.6 C445.3,1196.4 447.633333,1195.9 449.5,1195.1 C451.5,1194.23333 452.866667,1192.96667 453.6,1191.3 C454.333333,1189.76667 454.7,1187.46667 454.7,1184.4 L454.7,1184.4 L454.7,1175.5 L460.1,1175.5 C462.366667,1175.5 464.133333,1175.6 465.4,1175.8 C465.6,1175.66667 465.7,1173.81667 465.7,1170.25 C465.7,1166.68333 465.6,1164.83333 465.4,1164.7 C463.733333,1164.9 461.966667,1165 460.1,1165 L460.1,1165 L454.7,1165 L454.7,1163.9 C454.7,1163.50513 454.986391,1163.18185 455.559172,1162.93018 L455.577,1162.924 L455.666667,1163.15556 C455.755556,1163.39753 455.834568,1163.63292 455.903704,1163.86173 L456,1164.2 L465.9,1159.3 C464.566667,1156.16667 462.433333,1152.5 459.5,1148.3 L459.5,1148.3 L462.3,1148.3 L462.3,1120.9 L445,1120.9 L445,1118.3 L454.5,1118.3 C457.7,1118.3 460.833333,1118.43333 463.9,1118.7 C464.1,1118.5 464.2,1116.61667 464.2,1113.05 C464.2,1109.48333 464.1,1107.6 463.9,1107.4 C459.766667,1107.66667 456.633333,1107.8 454.5,1107.8 L445,1107.8 L445,1105.1 C445,1104.16667 445.533333,1103.3 446.6,1102.5 C446.6,1101.9 444.8,1101.46667 441.2,1101.2 C438.266667,1101 435.433333,1100.96667 432.7,1101.1 C432.833333,1102.56667 432.9,1103.73333 432.9,1104.6 L432.9,1104.6 L432.9,1107.8 L423.9,1107.8 C420.833333,1107.8 417.833333,1107.66667 414.9,1107.4 C414.7,1107.6 414.6,1109.48333 414.6,1113.05 L414.600312,1113.38991 C414.606556,1116.73642 414.706452,1118.50645 414.9,1118.7 C418.9,1118.43333 421.9,1118.3 423.9,1118.3 L423.9,1118.3 L432.9,1118.3 L432.9,1120.9 L416.2,1120.9 L416.2,1148.3 L432.9,1148.3 L432.9,1151.6 C425.833333,1151.8 419.5,1151.9 413.9,1151.9 L413.9,1151.9 L414.7,1162 C416.433333,1161.93333 419.3,1161.86667 423.3,1161.8 C436.9,1161.46667 447.333333,1161.13333 454.6,1160.8 C454.822222,1161.22222 455.022222,1161.62963 455.2,1162.02222 L455.306,1162.264 L455.250098,1162.24033 C454.462337,1161.93695 452.958431,1161.69867 450.738379,1161.52549 L450.4,1161.5 C447.333333,1161.3 444.366667,1161.26667 441.5,1161.4 C441.5,1161.66667 441.533333,1162.03333 441.6,1162.5 L441.6,1162.5 L441.6,1165 L414.1,1165 L414.1,1168.9 L399.7,1168.9 L399.7,1164.2 L412.1,1164.2 L412.1,1127 L399.7,1127 L399.7,1122.8 L406.3,1122.8 C409.1,1122.8 411.3,1122.9 412.9,1123.1 C413.1,1122.96667 413.2,1120.8 413.2,1116.6 C413.2,1112.4 413.1,1110.23333 412.9,1110.1 C410.7,1110.3 408.5,1110.4 406.3,1110.4 L406.3,1110.4 L399.7,1110.4 L399.7,1106.5 C399.7,1105.1 400.233333,1103.8 401.3,1102.6 C401.3,1102 399.466667,1101.56667 395.8,1101.3 C392.733333,1101.1 389.8,1101.06667 387,1101.2 C387.133333,1103.2 387.2,1104.8 387.2,1106 L387.2,1106 L387.2,1110.4 L380.4,1110.4 C377.6,1110.4 375.333333,1110.3 373.6,1110.1 C373.4,1110.23333 373.3,1112.4 373.3,1116.6 L373.30026,1116.96531 C373.305969,1120.92569 373.405882,1122.97059 373.6,1123.1 C375.8,1122.9 378.066667,1122.8 380.4,1122.8 L380.4,1122.8 L387.2,1122.8 L387.2,1127 L375.4,1127 L375.4,1164.2 L387.2,1164.2 L387.2,1168.9 L379.7,1168.9 C376.5,1168.9 374,1168.8 372.2,1168.6 C372,1168.73333 371.9,1170.93333 371.9,1175.2 L371.9,1175.57111 C371.905969,1179.59429 372.005882,1181.67059 372.2,1181.8 C374.733333,1181.6 377.233333,1181.5 379.7,1181.5 L379.7,1181.5 L387.2,1181.5 L387.2,1189 C387.2,1192.13333 387.1,1194.6 386.9,1196.4 C387.033333,1196.73333 389.233333,1196.9 393.5,1196.9 C397.7,1196.9 399.866667,1196.73333 400,1196.4 C399.8,1194.6 399.7,1192.13333 399.7,1189 L399.7,1189 L399.7,1181.5 L414.1,1181.5 L414.1,1175.5 L421.6,1175.5 L417.9,1177.7 C421.433333,1181.5 424.1,1185.6 425.9,1190 L425.9,1190 L430.5,1187.1 C432.1,1191.56667 433.033333,1194.83333 433.3,1196.9 Z M432.9,1131 L427.1,1131 L427.1,1128.4 L432.9,1128.4 L432.9,1131 Z M450.8,1131 L445,1131 L445,1128.4 L450.8,1128.4 L450.8,1131 Z M388.9,1140.9 L385.2,1140.9 L385.2,1136.9 L388.9,1136.9 L388.9,1140.9 Z M401.9,1140.9 L397.9,1140.9 L397.9,1136.9 L401.9,1136.9 L401.9,1140.9 Z M432.9,1140.8 L427.1,1140.8 L427.1,1138.1 L432.9,1138.1 L432.9,1140.8 Z M450.8,1140.8 L445,1140.8 L445,1138.1 L450.8,1138.1 L450.8,1140.8 Z M445,1151.4 L445,1148.3 L449.8,1148.3 L447.5,1149.3 C447.633333,1149.43333 447.833333,1149.7 448.1,1150.1 L448.1,1150.1 L448.3,1150.3 C448.366667,1150.36667 448.433333,1150.46667 448.5,1150.6 C448.766667,1150.86667 448.933333,1151.1 449,1151.3 L449,1151.3 L445,1151.4 Z M388.9,1154.3 L385.2,1154.3 L385.2,1150.2 L388.9,1150.2 L388.9,1154.3 Z M401.9,1154.3 L397.9,1154.3 L397.9,1150.2 L401.9,1150.2 L401.9,1154.3 Z M439.8,1185.5 C437.266667,1185.5 435.033333,1185.46667 433.1,1185.4 L433.1,1185.4 L436,1183.6 C435.466667,1182.4 434.733333,1181.1 433.8,1179.7 C432.866667,1178.23333 431.833333,1176.83333 430.7,1175.5 L430.7,1175.5 L441.6,1175.5 L441.6,1184 C441.6,1184.93333 441,1185.43333 439.8,1185.5 Z M521.8,1197.4 C529.333333,1191.13333 534.833333,1182.76667 538.3,1172.3 C541.1,1163.56667 542.9,1151.8 543.7,1137 L543.7,1137 L549.7,1137 C549.433333,1152.13333 549.066667,1162.93333 548.6,1169.4 C548.133333,1176.06667 547.433333,1180.03333 546.5,1181.3 C545.7,1182.5 544.6,1183.1 543.2,1183.1 C539.666667,1183.1 536.6,1182.96667 534,1182.7 C535.066667,1184.56667 536,1186.86667 536.8,1189.6 C537.533333,1192.13333 537.966667,1194.43333 538.1,1196.5 C543.966667,1196.63333 548.1,1196.43333 550.5,1195.9 C552.366667,1195.43333 553.866667,1194.83333 555,1194.1 C556.333333,1193.23333 557.6,1191.9 558.8,1190.1 C560.266667,1187.83333 561.333333,1182.26667 562,1173.4 C562.533333,1165.8 563,1151.3 563.4,1129.9 C563.466667,1127.83333 563.5,1125.76667 563.5,1123.7 L563.5,1123.7 L544.1,1123.7 C544.161667,1119.75333 544.194813,1113.6676 544.199438,1105.44281 L544.199938,1104.09031 L544.199938,1104.09031 L544.2,1103.4 L530.6,1103.4 L530.6,1103.4 L530.6,1123.7 L526.5,1123.7 C525.166667,1123.7 523.833333,1123.63333 522.5,1123.5 C522.466667,1123.51111 522.436111,1123.58333 522.408333,1123.71667 L522.4,1123.758 C522.4,1120.36933 522.306556,1118.52517 522.119667,1118.2255 L522.1,1118.2 C518.233333,1118.46667 515.3,1118.6 513.3,1118.6 L504.4,1118.6 L504.4,1115.1 C511.466667,1114.3 517.133333,1113.43333 521.4,1112.5 L521.4,1112.5 L515.4,1101.8 C504.266667,1104.2 490.1,1105.8 472.9,1106.6 C474.5,1110.06667 475.533333,1113.46667 476,1116.8 C481.133333,1116.66667 486.333333,1116.46667 491.6,1116.2 L491.6,1116.2 L491.6,1118.6 L482.3,1118.6 C479.233333,1118.6 476.166667,1118.46667 473.1,1118.2 C472.9,1118.4 472.8,1120.25 472.8,1123.75 L472.800333,1124.0945 C472.806778,1127.3715 472.906667,1129.10667 473.1,1129.3 C477.1,1129.03333 480.166667,1128.9 482.3,1128.9 L482.3,1128.9 L491.6,1128.9 L491.6,1131.4 L475.5,1131.4 L475.5,1163.2 L491.6,1163.2 L491.6,1165.8 L483.3,1165.8 C480.5,1165.8 477.766667,1165.66667 475.1,1165.4 C474.9,1165.6 474.8,1167.41667 474.8,1170.85 L474.800333,1171.18794 C474.806778,1174.40265 474.906667,1176.10667 475.1,1176.3 C478.7,1176.03333 481.433333,1175.9 483.3,1175.9 L483.3,1175.9 L491.6,1175.9 L491.6,1180.2 C485.266667,1180.66667 478.866667,1181.06667 472.4,1181.4 L472.4,1181.4 L473.9,1193.4 C488.366667,1192.13333 502.266667,1190.83333 515.6,1189.5 C518.666667,1192.63333 520.733333,1195.26667 521.8,1197.4 Z M521.5,1175.9 L521.5,1165.8 L504.4,1165.8 L504.4,1163.2 L520.9,1163.2 L520.9,1131.4 L504.4,1131.4 L504.4,1128.9 L513.3,1128.9 C516.233333,1128.9 519.166667,1129.03333 522.1,1129.3 C522.133333,1129.26667 522.163889,1129.1875 522.191667,1129.0625 L522.203,1129.004 L522.202083,1129.22917 C522.20162,1129.34306 522.201235,1129.45864 522.200926,1129.57593 L522.200926,1131.02438 C522.21142,1135.01553 522.311111,1137.07407 522.5,1137.2 C524.233333,1137.06667 525.533333,1137 526.4,1137 L526.4,1137 L530.3,1137 C529.9,1145.73333 529.1,1152.96667 527.9,1158.7 C526.5,1165.43333 524.366667,1171.16667 521.5,1175.9 L521.5,1175.9 Z M491.6,1143.2 L486.7,1143.2 L486.7,1140.2 L491.6,1140.2 L491.6,1143.2 Z M509.2,1143.2 L504.4,1143.2 L504.4,1140.2 L509.2,1140.2 L509.2,1143.2 Z M491.6,1154.4 L486.7,1154.4 L486.7,1151.4 L491.6,1151.4 L491.6,1154.4 Z M509.2,1154.4 L504.4,1154.4 L504.4,1151.4 L509.2,1151.4 L509.2,1154.4 Z M504.4,1179.3 L504.4,1175.9 L521.5,1175.9 C521.166667,1176.43333 520.666667,1177.16667 520,1178.1 L520,1178.1 L504.4,1179.3 Z M658.2,1196.7 C659.133333,1194.5 660.4,1192.13333 662,1189.6 C663.733333,1186.86667 665.3,1184.73333 666.7,1183.2 C651.9,1182.4 641.3,1179.4 634.9,1174.2 L634.9,1174.2 L649.6,1174.2 C655.8,1174.2 660.7,1174.4 664.3,1174.8 C664.5,1174.46667 664.6,1172.16667 664.6,1167.9 C664.6,1163.63333 664.5,1161.36667 664.3,1161.1 C660.633333,1161.43333 657.266667,1161.6 654.2,1161.6 L654.2,1161.6 L623.9,1161.6 C624.033333,1160.66667 624.233333,1159.2 624.5,1157.2 L624.5,1157.2 L643.8,1157.2 C651.533333,1157.2 657.966667,1157.46667 663.1,1158 C663.3,1157.6 663.4,1155.18333 663.4,1150.75 C663.4,1146.31667 663.3,1143.9 663.1,1143.5 C656.566667,1144.03333 650.433333,1144.3 644.7,1144.3 L644.7,1144.3 L626.2,1144.3 L626.2,1141 L640.9,1141 C647.1,1141 652,1141.2 655.6,1141.6 C655.8,1141.26667 655.9,1139.03333 655.9,1134.9 C655.9,1130.76667 655.8,1128.56667 655.6,1128.3 C650.733333,1128.7 645.833333,1128.9 640.9,1128.9 L640.9,1128.9 L626.2,1128.9 L626.2,1125.6 L642.7,1125.6 C648.9,1125.6 654.4,1125.83333 659.2,1126.3 C659.4,1125.96667 659.5,1123.63333 659.5,1119.3 C659.5,1114.96667 659.4,1112.7 659.2,1112.5 C655.6,1112.76667 652.866667,1112.9 651,1112.9 L642.7,1112.9 C643.9,1111.3 644.8,1110.03333 645.4,1109.1 C646,1108.23333 646.666667,1107.73333 647.4,1107.6 C647.8,1107.53333 648.1,1107.33333 648.3,1107 C648.633333,1106.6 647.116667,1105.75 643.75,1104.45 C640.383333,1103.15 636.766667,1102.03333 632.9,1101.1 C631.366667,1105.1 629.466667,1108.83333 627.2,1112.3 L627.2,1112.3 L629.4,1112.9 L607.7,1112.9 L609.6,1112.1 C608.2,1108.3 606,1104.66667 603,1101.2 L603,1101.2 L590.3,1106.2 C591.433333,1107.66667 592.766667,1109.9 594.3,1112.9 L594.3,1112.9 L586.5,1112.9 C583.9,1112.9 581.333333,1112.76667 578.8,1112.5 C578.6,1112.7 578.5,1114.96667 578.5,1119.3 L578.50026,1119.67716 C578.505969,1123.76886 578.605882,1125.97647 578.8,1126.3 C585.133333,1125.83333 590.566667,1125.6 595.1,1125.6 L595.1,1125.6 L611.5,1125.6 L611.5,1128.9 L596.62071,1128.89911 C591.004339,1128.88432 586.497436,1128.68462 583.1,1128.3 C582.9,1128.56667 582.8,1130.76667 582.8,1134.9 L582.800275,1135.27052 C582.806152,1139.16694 582.906061,1141.27677 583.1,1141.6 C587.833333,1141.2 592.566667,1141 597.3,1141 L597.3,1141 L611.5,1141 L611.5,1144.3 L593.1,1144.3 C585.7,1144.3 579.6,1144.03333 574.8,1143.5 C574.6,1143.9 574.5,1146.31667 574.5,1150.75 L574.50026,1151.13586 C574.505969,1155.32176 574.605882,1157.57647 574.8,1157.9 C581.466667,1157.43333 587.233333,1157.2 592.1,1157.2 L592.1,1157.2 L609.4,1157.2 C609.133333,1159.2 608.9,1160.66667 608.7,1161.6 L608.7,1161.6 L591.4,1161.6 C584.933333,1161.6 579.2,1161.36667 574.2,1160.9 C574,1161.23333 573.9,1163.55 573.9,1167.85 L573.900275,1168.23545 C573.906152,1172.28858 574.006061,1174.47677 574.2,1174.8 C578.8,1174.4 583.433333,1174.2 588.1,1174.2 L588.1,1174.2 L602,1174.2 C596.933333,1178.4 587,1181.43333 572.2,1183.3 C573.533333,1184.9 574.916667,1187 576.35,1189.6 C577.783333,1192.2 578.766667,1194.46667 579.3,1196.4 C590.7,1194.53333 599.633333,1191.9 606.1,1188.5 C612.1,1185.36667 616.5,1181.3 619.3,1176.3 C623.233333,1182.36667 628.233333,1187 634.3,1190.2 C640.366667,1193.4 648.333333,1195.56667 658.2,1196.7 Z M681.8,1196.9 C688.866667,1192.36667 694.6,1186.56667 699,1179.5 C702.933333,1183.5 705.6,1186.56667 707,1188.7 L707,1188.7 L715.6,1177 C713.4,1174.06667 709.966667,1170.6 705.3,1166.6 C707.433333,1160.93333 709.1,1154.33333 710.3,1146.8 C710.6,1145.08333 710.879167,1143.28125 711.1375,1141.39375 L711.16875,1141.16563 L711.16875,1141.16563 L711.175,1141.11 L711.176,1141.104 L711.181481,1141.06173 L711.181481,1141.06173 L711.189,1141.002 L711.19,1141 L711.19,1140.998 L711.191,1140.992 L711.191,1140.989 L711.193,1140.975 L711.193,1140.974 L711.194676,1140.96809 L711.194,1140.968 L711.246939,1140.57959 C711.931973,1135.39014 712.46352,1129.57139 712.841582,1123.12334 L712.9,1122.1 L704.5,1120.7 L702,1121 L695.7,1121 C696.5,1116.86667 697.066667,1113.8 697.4,1111.8 C697.666667,1110.06667 698.266667,1108.8 699.2,1108 C699.733333,1107.46667 700.066667,1106.86667 700.2,1106.2 C700.333333,1105.33333 698.766667,1104.4 695.5,1103.4 C692.433333,1102.53333 689.133333,1101.9 685.6,1101.5 C684.4,1109.76667 683.366667,1116.26667 682.5,1121 L682.5,1121 L677.9,1121 C676.3,1121 674.766667,1120.93333 673.3,1120.8 C673.111111,1120.86296 673.01142,1122.90314 673.000926,1126.92052 L673.000926,1128.37978 C673.01142,1132.40067 673.111111,1134.47407 673.3,1134.6 C674.766667,1134.46667 675.9,1134.4 676.7,1134.4 L676.7,1134.4 L680.1,1134.4 C677.433333,1147.93333 675.233333,1157.86667 673.5,1164.2 L673.5,1164.2 L685.1,1170.4 L685.7,1168 L688.4,1170.2 C684.4,1177.13333 679.366667,1182.2 673.3,1185.4 C676.5,1188.33333 679.333333,1192.16667 681.8,1196.9 Z M722.7,1196.5 C730.3,1196.63333 735.9,1195.76667 739.5,1193.9 C741.566667,1192.76667 743,1191.16667 743.8,1189.1 C744.6,1187.23333 745,1184.53333 745,1181 L745,1181 L745,1154.7 L755.3,1154.7 C759.366667,1154.7 762.8,1154.86667 765.6,1155.2 C765.8,1154.93333 765.9,1152.48333 765.9,1147.85 C765.9,1143.21667 765.8,1140.76667 765.6,1140.5 C761.8,1140.83333 758.366667,1141 755.3,1141 L755.3,1141 L745,1141 L745,1136.8 C750.666667,1130.73333 756.7,1122.76667 763.1,1112.9 L763.1,1112.9 L753.9,1105.7 L750.9,1106.5 L723.6,1106.5 C720.533333,1106.5 717.533333,1106.36667 714.6,1106.1 C714.411429,1106.28857 714.311755,1108.38845 714.30098,1112.39963 L714.30026,1113.54165 C714.305969,1117.79035 714.405882,1120.07647 714.6,1120.4 C719.133333,1120 723.7,1119.8 728.3,1119.8 L728.3,1119.8 L742.1,1119.8 C739.766667,1123.8 737.366667,1127.3 734.9,1130.3 L734.9,1130.3 L730.7,1130.3 L730.7,1141 L721,1141 C717.733333,1141 714.5,1140.86667 711.3,1140.6 C711.266667,1140.63333 711.236111,1140.72824 711.208333,1140.88472 L711.194,1140.968 L711.194676,1140.96809 L711.193,1140.974 L711.193,1140.975 L711.191,1140.989 L711.191,1140.992 L711.19,1140.998 L711.19,1141 L711.189,1141.002 L711.181481,1141.06173 L711.181481,1141.06173 L711.176,1141.104 L711.175,1141.11 L711.16875,1141.16563 C711.064583,1142.07419 711.008642,1144.05175 711.000926,1147.0983 L711.000926,1148.6017 C711.01142,1152.74501 711.111111,1154.91111 711.3,1155.1 C715.566667,1154.83333 718.8,1154.7 721,1154.7 L721,1154.7 L730.7,1154.7 L730.7,1180.8 C730.7,1181.93333 730,1182.5 728.6,1182.5 C726.733333,1182.63333 723.1,1182.56667 717.7,1182.3 C720.233333,1187.23333 721.9,1191.96667 722.7,1196.5 Z M693.9,1157.8 C691.833333,1156.2 690.166667,1155 688.9,1154.2 C688.9,1154.06667 688.933333,1153.86667 689,1153.6 C690.866667,1145.2 692.2,1138.8 693,1134.4 L693,1134.4 L698.8,1134.4 C698.266667,1139.06667 697.633333,1143.16667 696.9,1146.7 C696.1,1150.56667 695.1,1154.26667 693.9,1157.8 Z M797.1,1196.9 C801.766667,1196.9 804.133333,1196.73333 804.2,1196.4 C804.066667,1194.93333 804,1193.36667 804,1191.7 L804,1191.7 L804,1177.5 C805.733333,1179.43333 807.366667,1181.33333 808.9,1183.2 L808.9,1183.2 L817,1172.9 C811.6,1168.56667 807.266667,1165.33333 804,1163.2 L804,1163.2 L804,1163.1 L811.5,1163.1 C814.7,1163.1 817.2,1163.2 819,1163.4 C819.2,1163.26667 819.3,1161.15 819.3,1157.05 C819.3,1152.95 819.2,1150.83333 819,1150.7 C816.533333,1150.9 814.033333,1151 811.5,1151 L811.5,1151 L804,1151 L804,1144.9 L812,1144.9 C814.666667,1144.9 817.333333,1145.03333 820,1145.3 C820.2,1145.1 820.3,1143 820.3,1139 C820.3,1135 820.2,1132.96667 820,1132.9 C818.133333,1133.03333 816.733333,1133.1 815.8,1133.1 L815.8,1133.1 L811.6,1133.1 C811.866667,1132.5 812.3,1131.46667 812.9,1130 C814.033333,1127.26667 814.966667,1125.13333 815.7,1123.6 L815.7,1123.6 L811.5,1122.8 L815.5,1122.8 C816.9,1122.8 818.2,1122.86667 819.4,1123 C819.6,1122.86667 819.7,1120.83333 819.7,1116.9 C819.7,1112.96667 819.6,1110.9 819.4,1110.7 C816.066667,1110.96667 813.5,1111.1 811.7,1111.1 L811.7,1111.1 L804,1111.1 L804,1107.3 C804,1106.03333 804.533333,1104.8 805.6,1103.6 C805.6,1103 803.6,1102.56667 799.6,1102.3 C796.333333,1102.1 793.133333,1102.06667 790,1102.2 C790.133333,1104.06667 790.2,1105.6 790.2,1106.8 L790.2,1106.8 L790.2,1111.1 L782.5,1111.1 C779.9,1111.1 777.333333,1110.96667 774.8,1110.7 C774.6,1110.9 774.5,1112.96667 774.5,1116.9 L774.500275,1117.25234 C774.506152,1120.95482 774.606061,1122.87071 774.8,1123 C776.8,1122.86667 778.366667,1122.8 779.5,1122.8 L779.5,1122.8 L784.3,1122.8 L779.1,1124.1 C780.366667,1127.16667 781.2,1130.16667 781.6,1133.1 L781.6,1133.1 L777.6,1133.1 C776.266667,1133.1 774.933333,1133.03333 773.6,1132.9 C773.4,1132.96667 773.3,1135 773.3,1139 L773.300275,1139.3584 C773.306152,1143.12553 773.406061,1145.10606 773.6,1145.3 C777.2,1145.03333 779.966667,1144.9 781.9,1144.9 L781.9,1144.9 L790.2,1144.9 L790.2,1151 L782,1151 C779.266667,1151 776.566667,1150.86667 773.9,1150.6 C773.7,1150.8 773.6,1152.95 773.6,1157.05 L773.600275,1157.41726 C773.606152,1161.27646 773.706061,1163.27071 773.9,1163.4 C776.1,1163.2 778.366667,1163.1 780.7,1163.1 L780.7,1163.1 L787.5,1163.1 C782.766667,1170.63333 777.233333,1176.46667 770.9,1180.6 C773.966667,1183.13333 777.033333,1186.56667 780.1,1190.9 C783.7,1187.83333 787.066667,1184.13333 790.2,1179.8 L790.2,1179.8 L790.2,1188.1 C790.2,1190.96667 790.066667,1193.73333 789.8,1196.4 C790,1196.73333 792.433333,1196.9 797.1,1196.9 Z M821.1,1196.6 C830.633333,1186.13333 835.633333,1169.8 836.1,1147.6 L836.1,1147.6 L843.3,1147.6 L843.3,1183.9 C843.3,1188.63333 843.133333,1192.66667 842.8,1196 C843.066667,1196.33333 845.566667,1196.5 850.3,1196.5 L850.70049,1196.49959 C855.180163,1196.49034 857.646667,1196.32381 858.1,1196 C857.433333,1189.33333 857.1,1181.26667 857.1,1171.8 L857.1,1171.8 L857.1,1147.6 L861.3,1147.6 C862.766667,1147.6 864.166667,1147.66667 865.5,1147.8 C865.7,1147.66667 865.8,1145.33333 865.8,1140.8 C865.8,1136.26667 865.7,1133.86667 865.5,1133.6 C860.633333,1134 855.733333,1134.2 850.8,1134.2 L850.8,1134.2 L836.1,1134.2 L836.1,1122.3 C843.766667,1120.56667 850.4,1118.73333 856,1116.8 C857.8,1116.06667 859.4,1115.9 860.8,1116.3 C861.666667,1116.5 862.433333,1116.46667 863.1,1116.2 C864.033333,1115.86667 863.483333,1114.16667 861.45,1111.1 C859.416667,1108.03333 856.966667,1105.16667 854.1,1102.5 C848.3,1105.76667 840.366667,1108.73333 830.3,1111.4 L830.3,1111.4 L822.5,1109.2 L822.5,1144.1 C822.5,1152.9 821.9,1160.16667 820.7,1165.9 C818.9,1174.36667 815.633333,1181.3 810.9,1186.7 C812.5,1187.56667 814.383333,1189.03333 816.55,1191.1 C818.716667,1193.16667 820.233333,1195 821.1,1196.6 Z M805.7,1133.1 L788.9,1133.1 L793.2,1131.9 C792.866667,1129.03333 792,1126 790.6,1122.8 L790.6,1122.8 L802.7,1122.8 C802.433333,1123.8 801.966667,1125.36667 801.3,1127.5 C800.766667,1129.3 800.266667,1130.76667 799.8,1131.9 L799.8,1131.9 L805.7,1133.1 Z M963.9,1194.7 C964.1,1194.23333 964.2,1191.56667 964.2,1186.7 C964.2,1181.83333 964.1,1179.2 963.9,1178.8 C957.3,1179.33333 951.1,1179.6 945.3,1179.6 L945.3,1179.6 L926.6,1179.6 L926.6,1162.4 L940.7,1162.4 C946.633333,1162.4 951.333333,1162.6 954.8,1163 C955,1162.66667 955.1,1160.11667 955.1,1155.35 C955.1,1150.58333 955,1148.06667 954.8,1147.8 C950.133333,1148.2 945.433333,1148.4 940.7,1148.4 L940.7,1148.4 L926.6,1148.4 L926.6,1133.1 L942.7,1133.1 C948.7,1133.1 954.033333,1133.33333 958.7,1133.8 C958.9,1133.46667 959,1130.86667 959,1126 C959,1121.13333 958.9,1118.53333 958.7,1118.2 C952.5,1118.66667 947.166667,1118.9 942.7,1118.9 L942.7,1118.9 L926.6,1118.9 L926.6,1110.7 C926.6,1107.9 927.4,1105.16667 929,1102.5 C929,1101.9 926.7,1101.46667 922.1,1101.2 C918.366667,1101 914.766667,1100.96667 911.3,1101.1 C911.566667,1104.43333 911.7,1107.46667 911.7,1110.2 L911.7,1110.2 L911.7,1118.9 L899.2,1118.9 C899.6,1117.83333 900.166667,1116.26667 900.9,1114.2 C901.233333,1113.4 901.466667,1112.8 901.6,1112.4 C902,1111.13333 902.566667,1110.2 903.3,1109.6 C903.766667,1109.33333 904.066667,1108.96667 904.2,1108.5 C904.4,1107.9 902.8,1106.96667 899.4,1105.7 C896.133333,1104.43333 892.566667,1103.36667 888.7,1102.5 C887.033333,1109.43333 884.7,1116 881.7,1122.2 C878.633333,1128.66667 875.266667,1133.9 871.6,1137.9 C876.8,1140.76667 881.066667,1143.7 884.4,1146.7 C887.266667,1143.1 890.1,1138.56667 892.9,1133.1 L892.9,1133.1 L911.7,1133.1 L911.7,1148.4 L899,1148.4 C893.733333,1148.4 889.533333,1148.2 886.4,1147.8 C886.210811,1148.05225 886.111103,1150.31784 886.100877,1154.59675 L886.100926,1156.12392 C886.11142,1160.39316 886.211111,1162.68519 886.4,1163 C890.6,1162.6 894.8,1162.4 899,1162.4 L899,1162.4 L911.7,1162.4 L911.7,1179.6 L893.2,1179.6 C885.8,1179.6 879.633333,1179.33333 874.7,1178.8 C874.511111,1179.17778 874.41142,1181.54763 874.400926,1185.90957 L874.400926,1187.49074 C874.41142,1191.85617 874.511111,1194.25926 874.7,1194.7 C882.1,1194.1 889.533333,1193.8 897,1193.8 L897,1193.8 L942.449128,1193.80083 C951.448699,1193.81846 958.59899,1194.11818 963.9,1194.7 Z M1014.8,1196.9 C1019.13333,1196.9 1021.33333,1196.73333 1021.4,1196.4 L1021.4,1196.4 L1021.4,1195.6 C1021.33333,1195.06667 1021.3,1194.66667 1021.3,1194.4 L1021.3,1194.4 L1021.3,1192.4 L1047.7,1192.4 L1047.7,1194.2 C1047.7,1194.4 1047.66667,1194.76667 1047.6,1195.3 L1047.6,1195.3 L1047.6,1196 C1047.66667,1196.33333 1050,1196.5 1054.6,1196.5 L1054.99472,1196.49957 C1059.27863,1196.49005 1061.64706,1196.32353 1062.1,1196 C1061.5,1190.93333 1061.2,1184.1 1061.2,1175.5 L1061.2,1155 L1041.4,1155 L1041.4,1144.4 L1053.4,1144.4 C1058.06667,1144.4 1062.06667,1144.56667 1065.4,1144.9 C1065.6,1144.63333 1065.7,1142.15 1065.7,1137.45 C1065.7,1132.75 1065.6,1130.26667 1065.4,1130 C1060.93333,1130.33333 1056.93333,1130.5 1053.4,1130.5 L1053.4,1130.5 L1041.4,1130.5 L1041.4,1118.8 C1045.53333,1117.93333 1049.23333,1117 1052.5,1116 C1054.3,1115.4 1055.86667,1115.33333 1057.2,1115.8 C1058,1116.06667 1058.76667,1116.06667 1059.5,1115.8 C1060.43333,1115.46667 1059.93333,1113.66667 1058,1110.4 C1056.13333,1107.26667 1053.83333,1104.23333 1051.1,1101.3 C1045.9,1103.56667 1039.13333,1105.56667 1030.8,1107.3 C1023.13333,1108.9 1014.96667,1110.13333 1006.3,1111 C1008.3,1115.6 1009.56667,1119.73333 1010.1,1123.4 C1016.03333,1122.86667 1021.96667,1122.16667 1027.9,1121.3 L1027.9,1121.3 L1027.9,1130.5 L1015.3,1130.5 C1010.43333,1130.5 1006.26667,1130.33333 1002.8,1130 C1002.61111,1130.25185 1002.51142,1132.48092 1002.50093,1136.68719 L1002.50093,1138.21281 C1002.51142,1142.41908 1002.61111,1144.64815 1002.8,1144.9 C1007.33333,1144.56667 1011.5,1144.4 1015.3,1144.4 L1015.3,1144.4 L1027.9,1144.4 L1027.9,1155 L1008.4,1155 L1008.4,1186.1 C1008.4,1190.16667 1008.23333,1193.6 1007.9,1196.4 C1008.16667,1196.73333 1010.46667,1196.9 1014.8,1196.9 Z M995.4,1124.3 L1003.8,1112.6 C1001.26667,1111 995.8,1108 987.4,1103.6 C986.666667,1103.26667 986.133333,1103 985.8,1102.8 L985.8,1102.8 L977.7,1113.3 C978.1,1113.56667 978.766667,1113.96667 979.7,1114.5 C983.033333,1116.43333 985.533333,1117.9 987.2,1118.9 C987.314286,1118.97619 987.461224,1119.07415 987.640816,1119.19388 L987.934694,1119.3898 L987.934694,1119.3898 L988.1,1119.5 C991.833333,1121.76667 994.266667,1123.36667 995.4,1124.3 L995.4,1124.3 Z M991.6,1151.9 L999.5,1139.8 C995.966667,1137.66667 989.7,1134.5 980.7,1130.3 L980.7,1130.3 L973,1141.1 C976.066667,1142.7 979.366667,1144.53333 982.9,1146.6 C986.833333,1148.73333 989.733333,1150.5 991.6,1151.9 L991.6,1151.9 Z M986.1,1195.4 C990.433333,1188.13333 994.533333,1180.8 998.4,1173.4 C999.333333,1171.6 1000.43333,1170.36667 1001.7,1169.7 C1002.5,1169.23333 1003.06667,1168.7 1003.4,1168.1 C1003.8,1167.3 1002.76667,1165.4 1000.3,1162.4 C998.3,1160 995.733333,1157.33333 992.6,1154.4 C989.866667,1159.86667 986.666667,1165.6 983,1171.6 C980,1176.66667 977,1181.33333 974,1185.6 L974,1185.6 L986.1,1195.4 Z M1047.7,1179.3 L1021.3,1179.3 L1021.3,1168.1 L1047.7,1168.1 L1047.7,1179.3 Z" id="animation_newlife"></path>
        </g>
    </g>
</svg>