<?xml version="1.0" encoding="UTF-8"?>
<svg width="395px" height="97px" viewBox="0 0 395 97" version="1.1" xmlns="http://www.w3.org/2000/svg" xmlns:xlink="http://www.w3.org/1999/xlink">
    <title>animation_digtal</title>
    <g id="Page-1" stroke="none" stroke-width="1" fill="none" fill-rule="evenodd">
        <g id="index" transform="translate(-522.000000, -930.000000)" fill="#FFFFFF" fill-rule="nonzero">
            <path d="M577.9,1027 C583.9,1023.4 589.166667,1018.83333 593.7,1013.3 C597.3,1018.76667 601.7,1023.26667 606.9,1026.8 C607.9,1024.93333 609.316667,1022.85 611.15,1020.55 C612.983333,1018.25 614.633333,1016.46667 616.1,1015.2 C610.433333,1011.8 605.6,1006.76667 601.6,1000.1 C605.933333,990.633333 608.933333,978.266667 610.6,963 L610.6,963 L613.1,963 C613.433333,963 613.933333,963.033333 614.6,963.1 L614.6,963.1 L615.6,963.1 C615.8,963.033333 615.9,960.75 615.9,956.25 C615.9,951.75 615.8,949.433333 615.6,949.3 C613.8,949.5 612,949.6 610.2,949.6 L610.2,949.6 L593.8,949.6 C594.4,946.733333 594.9,944.066667 595.3,941.6 C595.5,940 596.033333,938.8 596.9,938 C597.433333,937.533333 597.733333,937 597.8,936.4 C597.866667,935.666667 596.233333,934.766667 592.9,933.7 C589.833333,932.7 586.5,931.933333 582.9,931.4 C581.033333,948.466667 577.8,961.733333 573.2,971.2 L573.2,971.2 L573.2,969.1 L555.5,969.1 L555.5,966.8 L571.5,966.8 L571.5,956.3 L574.6,956.3 C575.666667,956.3 576.666667,956.366667 577.6,956.5 C577.8,956.366667 577.9,954.6 577.9,951.2 C577.9,947.8 577.8,946.066667 577.6,946 C576.266667,946.133333 575.266667,946.2 574.6,946.2 L574.6,946.2 L571.5,946.2 L571.5,935.8 L555.5,935.8 L555.5,934.1 C555.5,933.566667 555.9,933.033333 556.7,932.5 C556.7,931.9 554.966667,931.466667 551.5,931.2 C548.7,931 545.966667,930.966667 543.3,931.1 C543.3,931.433333 543.333333,931.9 543.4,932.5 L543.4,932.5 L543.4,935.8 L528.4,935.8 L528.4,946.2 L525.4,946.2 C524.4,946.2 523.433333,946.133333 522.5,946 C522.3,946.066667 522.2,947.8 522.2,951.2 L522.2,951.534556 C522.206778,954.715963 522.306667,956.371111 522.5,956.5 C523.7,956.366667 524.666667,956.3 525.4,956.3 L525.4,956.3 L528.4,956.3 L528.4,966.8 L543.4,966.8 L543.4,969.1 L526.7,969.1 L526.7,988.8 L540.2,988.8 L538.7,991.6 C535.047619,991.661905 530.216837,991.695068 524.207653,991.69949 L522.8,991.7 L523.2,1002.1 L532.9,1002 C531.233333,1004.86667 529.533333,1007.53333 527.8,1010 L527.8,1010 L539.2,1012.7 L539.5,1012.2 L541.9,1013.2 C537.7,1014.46667 532.1,1015.36667 525.1,1015.9 C527.566667,1019.16667 529.166667,1022.83333 529.9,1026.9 C540.966667,1025.1 549.233333,1022.6 554.7,1019.4 C558.5,1021.46667 561.9,1023.56667 564.9,1025.7 L564.9,1025.7 L572.5,1017.9 C575.033333,1021.36667 576.833333,1024.4 577.9,1027 Z M543.4,947 L540,947 L540,944.6 L543.4,944.6 L543.4,947 Z M559.2,947 L555.5,947 L555.5,944.6 L559.2,944.6 L559.2,947 Z M543.4,957.9 L540,957.9 L540,955.5 L543.4,955.5 L543.4,957.9 Z M559.2,957.9 L555.5,957.9 L555.5,955.5 L559.2,955.5 L559.2,957.9 Z M594.3,982.2 C592.766667,976.8 591.5,970.533333 590.5,963.4 L590.5,963.4 L590.6,963 L597.4,963 C597.133333,966.4 596.733333,969.733333 596.2,973 C595.666667,976.533333 595.033333,979.6 594.3,982.2 Z M543.4,980.4 L538.2,980.4 L538.2,977.6 L543.4,977.6 L543.4,980.4 Z M561,980.4 L555.5,980.4 L555.5,977.6 L561,977.6 L561,980.4 Z M570.5,1015.1 C568.033333,1013.7 565.766667,1012.5 563.7,1011.5 C565.7,1008.96667 567.333333,1005.56667 568.6,1001.3 L568.6,1001.3 L577,1001.1 L577.4,991.1 C574.6,991.166667 570.3,991.233333 564.5,991.3 C559.224138,991.424138 555.21962,991.490488 552.486445,991.499049 L551.9,991.5 L553.1,989.1 L551.9,988.8 L573.2,988.8 L573.2,982.1 C575.466667,984.366667 577.4,986.633333 579,988.9 C580.133333,987.5 581.1,985.966667 581.9,984.3 C583.366667,990.233333 585,995.5 586.8,1000.1 C582.733333,1006.43333 577.3,1011.43333 570.5,1015.1 Z M552.8,1006.5 C551.933333,1006.1 550.633333,1005.56667 548.9,1004.9 C547.633333,1004.36667 546.333333,1003.86667 545,1003.4 L545,1003.4 L546,1001.7 L556,1001.6 C555.066667,1003.46667 554,1005.1 552.8,1006.5 Z M641.4,1026.7 C646.066667,1026.7 648.6,1026.53333 649,1026.2 C648.466667,1021.53333 648.2,1015.6 648.2,1008.4 L648.2,1008.4 L648.2,954.9 C649.866667,952.033333 651.466667,948.9 653,945.5 C653.8,943.7 654.8,942.466667 656,941.8 C656.733333,941.333333 657.233333,940.766667 657.5,940.1 C657.9,939.233333 656.533333,937.9 653.4,936.1 C650.466667,934.433333 647.233333,932.966667 643.7,931.7 C641.166667,938.5 637.833333,945.1 633.7,951.5 C629.633333,957.9 625.333333,963.233333 620.8,967.5 C622,969.366667 623.383333,971.95 624.95,975.25 C626.516667,978.55 627.566667,981.066667 628.1,982.8 C629.833333,981.133333 632.033333,978.666667 634.7,975.4 L634.7,975.4 L634.7,1000.8 C634.7,1011.13333 634.333333,1019.6 633.6,1026.2 C634.133333,1026.53333 636.733333,1026.7 641.4,1026.7 Z M714.2,963 C714.4,962.666667 714.5,960.183333 714.5,955.55 C714.5,950.916667 714.4,948.466667 714.2,948.2 C709.866667,948.533333 705.966667,948.7 702.5,948.7 L702.5,948.7 L690.8,948.7 L690.8,941.3 C690.8,938.766667 691.466667,936.3 692.8,933.9 C692.8,933.3 690.666667,932.866667 686.4,932.6 C682.866667,932.4 679.4,932.366667 676,932.5 C676.266667,935.566667 676.4,938.333333 676.4,940.8 L676.4,940.8 L676.4,948.7 L665.5,948.7 C661.233333,948.7 657.6,948.533333 654.6,948.2 C654.411111,948.451852 654.31142,950.651183 654.300926,954.797994 L654.300926,956.323224 C654.311755,960.460122 654.411429,962.685714 654.6,963 C659.533333,962.6 664.5,962.4 669.5,962.4 L669.5,962.4 L699.3,962.4 C705.566667,962.4 710.533333,962.6 714.2,963 Z M715.9,1023.2 C716.1,1022.86667 716.2,1020.36667 716.2,1015.7 C716.2,1011.03333 716.1,1008.6 715.9,1008.4 C712.033333,1008.66667 709.066667,1008.8 707,1008.8 L698.1,1008.8 C701.1,998.8 703.6,988.733333 705.6,978.6 C706,976.466667 706.766667,974.9 707.9,973.9 C708.566667,973.233333 708.966667,972.533333 709.1,971.8 C709.3,970.8 707.5,969.6 703.7,968.2 C700.3,967 696.466667,966.033333 692.2,965.3 C691.6,972.033333 690.566667,979.5 689.1,987.7 C687.7,995.5 686.133333,1002.53333 684.4,1008.8 L684.4,1008.8 L668.6,1008.8 C662.6,1008.8 657.333333,1008.56667 652.8,1008.1 C652.611111,1008.41481 652.51142,1010.67711 652.500926,1014.88688 L652.500926,1016.41312 C652.51142,1020.62289 652.611111,1022.88519 652.8,1023.2 C658.866667,1022.73333 664.1,1022.5 668.5,1022.5 L668.5,1022.5 L700.1,1022.5 C706.1,1022.5 711.366667,1022.73333 715.9,1023.2 Z M665.9,1006.6 L679.9,1003.6 C679.633333,998.866667 678.9,992.866667 677.7,985.6 C676.5,978.733333 675.1,972.133333 673.5,965.8 L673.5,965.8 L660.7,968.1 C662.233333,974.9 663.433333,981.666667 664.3,988.4 C665.3,995.866667 665.833333,1001.93333 665.9,1006.6 L665.9,1006.6 Z M805.8,1026.5 C808.133333,1026.5 810.233333,1025.23333 812.1,1022.7 C814.633333,1019.3 816.5,1013.73333 817.7,1006 C813.033333,1002.73333 809.966667,999.933333 808.5,997.6 C808.166667,1005.2 807.533333,1009 806.6,1009 C805.6,1009 804.7,1004.93333 803.9,996.8 C803.166667,988.933333 802.633333,978.7 802.3,966.1 L802.3,966.1 L809,966.1 C811.8,966.1 814,966.2 815.6,966.4 C815.8,966.266667 815.9,964.2 815.9,960.2 C815.9,956.2 815.8,954.133333 815.6,954 C813.4,954.2 811.166667,954.3 808.9,954.3 L808.9,954.3 L802.1,954.3 L802.1,954.3 L802.1,940 C804.633333,944.933333 806.266667,949.2 807,952.8 L807,952.8 L817,948.2 C815.933333,944.133333 813.833333,939.566667 810.7,934.5 L810.7,934.5 L802.1,938.2 L802.2,931.5 L789.4,931.5 C789.4,939.5 789.5,947.1 789.7,954.3 L789.7,954.3 L773.7,954.3 C767.7,954.3 762.366667,954.066667 757.7,953.6 C757.5,953.933333 757.4,956.116667 757.4,960.15 L757.4,960.511387 C757.406152,964.309856 757.506061,966.306061 757.7,966.5 C761.166667,966.233333 763.833333,966.1 765.7,966.1 L765.7,966.1 L789.9,966.1 C790.566667,986.366667 792,1001.16667 794.2,1010.5 C796.733333,1021.1 800.6,1026.43333 805.8,1026.5 Z M731.7,1026.8 C736.1,1021.66667 739.7,1014.93333 742.5,1006.6 C745.433333,1012.6 747.433333,1017.83333 748.5,1022.3 L748.5,1022.3 L758.3,1018.1 L760.2,1022.7 C760.666667,1022.56667 761.366667,1022.4 762.3,1022.2 C775.5,1018.93333 785.466667,1016.4 792.2,1014.6 L792.2,1014.6 L791.1,1003.6 L784,1005 L784,991.4 L787,991.4 C788,991.4 788.966667,991.466667 789.9,991.6 C790.1,991.466667 790.2,989.6 790.2,986 C790.2,982.4 790.1,980.566667 789.9,980.5 C788.7,980.633333 787.733333,980.7 787,980.7 L787,980.7 L784,980.7 L784,974.3 C784,972.166667 784.666667,970.033333 786,967.9 C786,967.3 784.3,966.866667 780.9,966.6 C778.1,966.4 775.266667,966.366667 772.4,966.5 C772.648276,968.734483 772.845184,971.214388 772.990725,973.939715 L773.013,974.381 L772.968164,974.330957 C772.511133,973.885775 770.86582,973.550618 768.032227,973.325488 L767.7,973.3 C764.766667,973.1 761.933333,973.066667 759.2,973.2 C759.733333,978.4 760,984.533333 760,991.6 L760,991.6 L760,1009.7 L756.3,1010.3 C754.766667,1006.76667 753.233333,1003.66667 751.7,1001 L751.801,1001.178 L751.978395,1001.18673 C753.27963,1001.25463 754.499383,1001.34105 755.637654,1001.44599 L756.2,1001.5 C756.666667,1001.5 756.9,1001.33333 756.9,1001 C756.433333,996.2 756.2,990.733333 756.2,984.6 L756.2,984.6 L756.2,935.2 L740.823731,935.199177 C735.00791,935.184911 730.366667,934.985185 726.9,934.6 C726.1,934.6 725.7,934.8 725.7,935.2 C726.5,942.666667 726.9,952.666667 726.9,965.2 L726.9,965.2 L726.9,1001 L730.9,1001 C728.7,1008.93333 725.4,1015.16667 721,1019.7 C725.133333,1021.9 728.7,1024.26667 731.7,1026.8 Z M761.3,949.2 C765.5,948.8 769.766667,948.6 774.1,948.6 L774.1,948.6 L780.5,948.6 C783.166667,948.6 785.3,948.7 786.9,948.9 C787.1,948.766667 787.2,946.816667 787.2,943.05 C787.2,939.283333 787.1,937.333333 786.9,937.2 C784.833333,937.4 782.7,937.5 780.5,937.5 L780.5,937.5 L767.7,937.5 C765.033333,937.5 762.9,937.4 761.3,937.2 C761.1,937.333333 761,939.283333 761,943.05 L761.000312,943.409157 C761.006556,946.947138 761.106452,948.877419 761.3,949.2 Z M744.1,953.8 L738.3,953.8 L738.3,946.6 L744.1,946.6 L744.1,953.8 Z M744.1,971.7 L738.3,971.7 L738.3,964.4 L744.1,964.4 L744.1,971.7 Z M770.3,1007.7 L770.3,985 C770.3,982.666667 770.6,980.6 771.2,978.8 C771.533333,977.733333 772.166667,976.333333 773.1,974.6 L773.031,974.729 L773.059215,975.32283 C773.209037,978.59782 773.288942,982.206857 773.29893,986.149941 L773.3,987 L773.3,1007.2 L770.3,1007.7 Z M744.1,989.6 L738.3,989.6 L738.3,982.2 L744.1,982.2 L744.1,989.6 Z M743.3,1004.2 L743.4,1003.8 L731.8,1001 L744,1001 C746.4,1001 748.616667,1001.04167 750.65,1001.125 L751.296,1001.154 L743.3,1004.2 Z M900.9,977.3 C905.833333,977.3 909.366667,976.1 911.5,973.7 C913.7,971.233333 915.133333,966.7 915.8,960.1 C913.8,959.7 911.6,959 909.2,958 C906.6,956.933333 904.633333,955.866667 903.3,954.8 C903.1,958.866667 902.766667,961.483333 902.3,962.65 C901.833333,963.816667 900.9,964.4 899.5,964.4 L899.5,964.4 L891.4,964.4 C889.8,964.4 888.783333,964.166667 888.35,963.7 C887.916667,963.233333 887.7,962.1 887.7,960.3 L887.7,960.3 L887.7,956.7 C892.233333,955.366667 897,953.733333 902,951.8 C903.8,951 905.4,950.766667 906.8,951.1 C907.666667,951.3 908.433333,951.233333 909.1,950.9 C909.966667,950.5 909.633333,948.766667 908.1,945.7 C906.633333,942.7 904.766667,939.833333 902.5,937.1 C898.433333,939.633333 893.5,942.166667 887.7,944.7 L887.7,944.7 L887.7,938.8 C887.7,936.8 888.366667,934.866667 889.7,933 C889.7,932.4 887.566667,931.966667 883.3,931.7 C879.833333,931.5 876.466667,931.466667 873.2,931.6 C873.4,933.666667 873.5,936.166667 873.5,939.1 L873.5,939.1 L873.5,961.5 C871.766667,955.033333 868.066667,947.2 862.4,938 L862.4,938 L850.3,942.6 C850.966667,943.666667 851.866667,945.4 853,947.8 C853.044444,947.888889 853.087654,947.975309 853.12963,948.059259 L853.366667,948.533333 C853.477778,948.755556 853.577778,948.955556 853.666667,949.133333 L853.82963,949.459259 L853.82963,949.459259 L853.9,949.6 L844.7,950 C845.5,948.333333 846.633333,945.7 848.1,942.1 C848.7,940.5 849.533333,939.4 850.6,938.8 C851.266667,938.4 851.7,937.933333 851.9,937.4 C852.166667,936.6 850.6,935.5 847.2,934.1 C843.866667,932.766667 840.266667,931.666667 836.4,930.8 C834.933333,937.266667 832.833333,943.866667 830.1,950.6 C826.966667,950.733333 824.433333,950.833333 822.5,950.9 L822.5,950.9 L823.5,964.6 C824.633333,964.533333 826.4,964.4 828.8,964.2 C842,963.266667 852.1,962.566667 859.1,962.1 C859.766667,964.1 860.233333,965.766667 860.5,967.1 L860.5,967.1 L873.5,961.9 C873.633333,967.766667 874.766667,971.766667 876.9,973.9 C879.1,976.166667 883.233333,977.3 889.3,977.3 L889.3,977.3 L900.9,977.3 Z M834.8,1026.9 C839.266667,1026.9 841.6,1026.73333 841.8,1026.4 C841.533333,1023.46667 841.4,1020.43333 841.4,1017.3 L841.4,1017.3 L841.4,1008.2 L852.5,1008.2 L852.5,1012.1 C852.5,1013.1 852,1013.6 851,1013.6 C849.066667,1013.73333 846.466667,1013.7 843.2,1013.5 C845.4,1017.63333 846.9,1021.9 847.7,1026.3 C851.1,1026.3 853.7,1026.16667 855.5,1025.9 C858.033333,1025.56667 860.133333,1024.9 861.8,1023.9 C863.6,1022.9 864.866667,1021.46667 865.6,1019.6 C866.266667,1017.93333 866.6,1015.53333 866.6,1012.4 L866.6,1012.4 L866.6,967.9 L847.4,967.9 C839.733333,967.9 833.333333,967.633333 828.2,967.1 C827.8,967.1 827.6,967.366667 827.6,967.9 C828,971.5 828.2,976.366667 828.2,982.5 L828.2,982.5 L828.2,1011.8 C828.2,1017.93333 828,1022.8 827.6,1026.4 C827.933333,1026.73333 830.333333,1026.9 834.8,1026.9 Z M901.2,1025.9 C906.266667,1025.9 909.9,1024.58333 912.1,1021.95 C914.3,1019.31667 915.733333,1014.4 916.4,1007.2 C914.333333,1006.73333 912.166667,1006 909.9,1005 C907.366667,1004 905.4,1002.96667 904,1001.9 C903.733333,1006.7 903.35,1009.8 902.85,1011.2 C902.35,1012.6 901.366667,1013.3 899.9,1013.3 L899.9,1013.3 L891.5,1013.3 C889.833333,1013.3 888.766667,1013.06667 888.3,1012.6 C887.833333,1012.13333 887.6,1010.96667 887.6,1009.1 L887.6,1009.1 L887.6,1003.2 C893.333333,1001.26667 898.5,999.3 903.1,997.3 C904.9,996.433333 906.5,996.166667 907.9,996.5 C908.7,996.7 909.433333,996.633333 910.1,996.3 C910.966667,995.833333 910.6,994.033333 909,990.9 C907.4,987.9 905.4,985.033333 903,982.3 C898.466667,985.366667 893.333333,988.2 887.6,990.8 L887.6,990.8 L887.6,985.3 C887.6,983.433333 888.266667,981.633333 889.6,979.9 C889.6,979.3 887.5,978.866667 883.3,978.6 C879.833333,978.4 876.433333,978.366667 873.1,978.5 C873.366667,981.566667 873.5,984.233333 873.5,986.5 L873.5,986.5 L873.5,1009.2 C873.5,1015.6 874.533333,1019.96667 876.6,1022.3 C878.8,1024.7 883.033333,1025.9 889.3,1025.9 L889.3,1025.9 L901.2,1025.9 Z M852.5,983.1 L841.4,983.1 L841.4,979.7 L852.5,979.7 L852.5,983.1 Z M852.5,997.6 L841.4,997.6 L841.4,993.7 L852.5,993.7 L852.5,997.6 Z" id="animation_digtal"></path>
        </g>
    </g>
</svg>