<svg xmlns="http://www.w3.org/2000/svg" width="30" height="25" viewBox="0 0 30 25">
    <g fill="none" fill-rule="evenodd">
        <g fill="#0ECEA2" fill-rule="nonzero">
            <g>
                <g>
                    <g>
                        <path d="M24.655 23.951c3.182 0 5.345-2.162 5.345-5.57 0-3.014-1.909-4.98-4.645-4.98-.636 0-1.081.132-1.527.132-.7 0-1.209-.59-1.209-1.376 0-2.556 2.164-5.308 6.936-8.715L28.855 2c-7.381 3.997-10.562 8.715-10.562 14.35 0 4.653 2.354 7.601 6.362 7.601zm-18.292 0c3.181 0 5.344-2.162 5.344-5.57 0-3.014-1.908-4.98-4.644-4.98-.637 0-1.082.132-1.527.132-.7 0-1.21-.59-1.21-1.376 0-2.556 2.164-5.308 6.936-8.715L10.562 2C3.182 5.997 0 10.715 0 16.35c0 4.653 2.354 7.601 6.363 7.601z" transform="translate(-1302 -788) translate(417 380) translate(86 408) translate(799) rotate(180 15 12.976)"/>
                    </g>
                </g>
            </g>
        </g>
    </g>
</svg>
