<svg xmlns="http://www.w3.org/2000/svg" width="30" height="25" viewBox="0 0 30 25">
    <g fill="none" fill-rule="evenodd">
        <g fill="#00A472" fill-rule="nonzero">
            <g>
                <path d="M24.522 23.5c3.26 0 5.478-2.216 5.478-5.709 0-3.09-1.957-5.104-4.76-5.104-.653 0-1.11.134-1.566.134-.717 0-1.24-.605-1.24-1.41 0-2.62 2.218-5.44 7.11-8.933L28.825 1C21.261 5.097 18 9.933 18 15.709c0 4.769 2.413 7.791 6.522 7.791zm-18 0c3.26 0 5.478-2.216 5.478-5.709 0-3.09-1.957-5.104-4.76-5.104-.653 0-1.11.134-1.566.134-.717 0-1.24-.605-1.24-1.41 0-2.62 2.218-5.44 7.11-8.933L10.825 1C3.261 5.097 0 9.933 0 15.709 0 20.478 2.413 23.5 6.522 23.5z" transform="translate(-100 -1588) translate(100 1588)"/>
            </g>
        </g>
    </g>
</svg>
