<svg xmlns="http://www.w3.org/2000/svg" width="24" height="24" viewBox="0 0 24 24">
    <g fill="none" fill-rule="evenodd">
        <g>
            <g>
                <g transform="translate(-1357 -380) translate(417 380) translate(940)">
                    <circle cx="12" cy="12" r="12" fill="#000" opacity=".195"/>
                    <path fill-rule="nonzero" stroke="#FFF" d="M14.52 14.186c.662 0 1.2.555 1.2 1.238 0 .682-.538 1.237-1.2 1.237-.662 0-1.2-.555-1.2-1.237 0-.683.538-1.238 1.2-1.238zM9 11.072c.662 0 1.2.555 1.2 1.237 0 .683-.538 1.238-1.2 1.238-.662 0-1.2-.555-1.2-1.238 0-.682.538-1.237 1.2-1.237zm5.52-3.733c.662 0 1.2.555 1.2 1.237 0 .683-.538 1.238-1.2 1.238-.662 0-1.2-.555-1.2-1.238 0-.682.538-1.237 1.2-1.237zm-1.214 2.01L9.907 11.42m0 1.674l3.4 1.69"/>
                </g>
            </g>
        </g>
    </g>
</svg>
