<svg xmlns="http://www.w3.org/2000/svg" width="187" height="30" viewBox="0 0 187 30">
    <defs>
        <linearGradient id="4q06lz3z0a" x1="70.207%" x2="50%" y1="89.721%" y2="10.279%">
            <stop offset="0%" stop-color="#44A8F2"/>
            <stop offset="100%" stop-color="#4DD497"/>
        </linearGradient>
        <linearGradient id="wbcp2gvwtb" x1="97.824%" x2="0%" y1="50.748%" y2="48.422%">
            <stop offset="0%" stop-color="#44A8F2"/>
            <stop offset="100%" stop-color="#4DD497"/>
        </linearGradient>
    </defs>
    <g fill="none" fill-rule="evenodd">
        <g>
            <g>
                <g fill="url(#4q06lz3z0a)" transform="translate(-60 -25) translate(60 25)">
                    <g>
                        <path d="M16.829 13.895l.25.004c4.312.133 7.778 3.692 7.778 8.048l-.003.25C24.72 26.523 21.173 30 16.829 30l-.25-.004c-4.311-.133-7.778-3.692-7.778-8.049 0-4.44 3.601-8.052 8.028-8.052zm0 4.024l-.2.005c-2.122.105-3.817 1.87-3.817 4.023 0 2.222 1.802 4.03 4.017 4.03l.2-.005c2.123-.105 3.817-1.87 3.817-4.025l-.005-.2c-.104-2.129-1.864-3.828-4.012-3.828zm0-17.919l16.83 12.637-6.673-.047-10.157-7.564L6.268 12.59 0 12.637 16.829 0z"/>
                    </g>
                </g>
                <path fill="url(#wbcp2gvwtb)" d="M142.712 12.045l1.901.488 1.9.461-.377.902c-1.389 3.281-2.837 6.28-4.346 8.999l.302-.008c2.156-.055 5.195-.152 9.116-.29l-.295-.441c-1.074-1.593-2.034-2.92-2.88-3.98l3.013-1.438.105.128c1.34 1.671 5.494 7.946 6.11 9.23l-3.175 1.709-.054-.135c-.193-.468-.528-1.137-1.005-2.008l-.709.037c-5.005.26-10.876.528-17.613.804l-.38-3.39h.516l.355-.01c1.277-.033 2.28-.066 3.01-.1l.284-.526c.754-1.43 1.5-3.044 2.24-4.844.815-2.008 1.476-3.87 1.982-5.588zm-18.34-9.467l.074.006c.191.036.333.209.323.41l-.122 2.46.004.083c.03.186.189.332.386.334l.232.003c.496.006 1.175.01 1.638.003l.08.007c.18.033.317.187.322.377l.005.24c.01.52.008 1.24-.005 1.686l-.01.082c-.045.184-.22.311-.417.299l-.343-.016-.342-.006h-1.11l1.527.339.072.023c.183.079.284.283.223.48l-.067.215c-.263.849-.725 2.332-1 3.162l-.017.078c-.028.233.159.448.407.441l1.025-.028.081.006c.184.033.324.19.328.384l.004.245c.008.53.016 1.262.011 1.714l-.009.08c-.04.181-.201.314-.395.31l-.242-.003c-.608-.006-1.484.007-1.985.015l-.079.01c-.178.039-.31.198-.31.387v1.988l.007.08c.036.179.193.315.383.317l.23.003c.497.006 1.185.011 1.653.003l.08.007c.18.033.317.187.322.377l.006.237c.009.51.007 1.211-.006 1.645l-.01.079c-.041.177-.201.307-.391.304l-.243-.002h-.561c-.391.002-.794.006-1.08.01l-.079.009c-.179.038-.312.197-.312.388v5.558l-.008.08c-.037.182-.197.318-.39.318h-2.18l-.081-.008c-.182-.037-.318-.197-.318-.39V21.85l-.008-.08c-.036-.18-.193-.315-.383-.318l-.235-.002c-.507-.006-1.213-.012-1.688-.004l-.08-.006c-.18-.034-.317-.187-.322-.377l-.006-.237c-.009-.51-.007-1.211.005-1.646l.01-.078c.042-.178.203-.308.392-.305l.248.003c.529.002 1.24-.005 1.675-.01l.08-.01c.18-.038.312-.198.312-.387v-1.988l-.008-.079c-.036-.179-.193-.315-.383-.318l-.225-.004c-.567-.01-1.394-.019-1.908-.007l-.08-.006c-.182-.032-.323-.186-.329-.377l-.005-.246c-.009-.528-.008-1.259.004-1.71l.011-.08c.043-.181.21-.312.403-.304l.196.007c.135.005.276.009.401.011l.075-.005c.196-.032.346-.207.336-.411l-.035-.488c-.084-.973-.262-1.928-.535-2.866l-.015-.08c-.017-.183.095-.359.28-.413l1.648-.482h-1.327l-.141.001c-.202.004-.458.014-.766.03l-.082-.004c-.186-.028-.334-.184-.34-.378l-.005-.243c-.01-.523-.008-1.24.005-1.684l.01-.079c.042-.178.204-.308.395-.304l.257.003c.555.004 1.321-.007 1.783-.015l.08-.01c.182-.04.315-.204.31-.397l-.061-2.481.006-.082c.034-.184.196-.325.392-.325h2.342zm-75.998-.383c.598.002 1.217.01 1.478.015l.04.006c.05.018.086.066.086.122V4.76l.007.04c.016.051.063.088.12.089l.116.002c.71.01 2.774.038 3.452.003l.04.005c.05.013.089.058.092.112l.007.13c.025.596.022 2.064-.006 2.503l-.01.04c-.019.048-.067.08-.123.078l-.14-.006c-.16-.005-.37-.008-.61-.01h-.513c-.897.002-1.95.017-2.306.022l-.04.008c-.051.017-.086.065-.086.121v1.118l.007.04c.017.052.066.09.123.09h3.304l.041.006c.051.017.089.065.089.122v9.562l-.007.041c-.017.051-.066.088-.123.088h-3.27l-.04.007c-.052.017-.09.065-.09.122v1.34l.007.04c.017.05.066.088.123.088l3.843.034.042-.006c.052-.017.09-.066.09-.123v-.856l.006-.04c.017-.052.066-.089.124-.089h7.72V18.887l-.013-.25-.007-.101c-.005-.095-.007-.17-.007-.225l.484-.019c.489-.01.993.006 1.513.047l.186.017c.715.074 1.072.186 1.072.336l-.1.056c-.152.096-.228.204-.228.325v.408h1.532l.487-.008c.322-.01.636-.031.944-.063l.04.002c.05.01.09.048.1.102l.008.067c.023.2.035.56.035 1.084v.187c-.003.48-.017.8-.043.96l-.012.037c-.022.047-.07.074-.125.068l-.194-.022c-.34-.032-.753-.047-1.24-.047h-1.402l-.041.006c-.052.017-.089.065-.089.122v2.945l-.003.235c-.016.607-.098 1.064-.243 1.37l-.07.139c-.179.313-.484.557-.915.732l-.13.045c-.728.237-2.03.358-3.908.363l-.047-.009c-.044-.016-.08-.056-.085-.104l-.026-.175c-.093-.54-.316-1.24-.668-2.097l-.024-.04c-.041-.044-.11-.059-.165-.025l-.15.093-.691.43-.042.017c-.056.012-.115-.017-.14-.074l-.167-.355c-.469-.941-1.122-1.846-1.96-2.714l-.026-.04c-.025-.056-.006-.124.05-.158l1.176-.706h-2.386l-.042.006c-.051.017-.089.065-.089.122v1.347l-.006.041c-.017.051-.066.089-.123.089h-3.844l-.041.006c-.052.017-.09.065-.09.123v4.012l-.006.04c-.017.052-.065.09-.123.09h-2.612l-.041-.007c-.052-.017-.09-.066-.09-.123v-4.015l-.006-.04c-.016-.051-.061-.088-.118-.09l-.115-.001c-.441-.009-1.416-.025-2.327-.028l-.534.001c-.43.002-.815.01-1.078.024l-.04-.004c-.052-.013-.09-.056-.093-.112l-.007-.13c-.025-.597-.023-2.072.006-2.513l.01-.04c.02-.048.069-.08.124-.077l.15.008c.938.037 3.327-.004 3.902-.015l.04-.007c.051-.017.087-.065.087-.122v-1.34l-.007-.04c-.017-.052-.066-.089-.123-.089h-3.133l-.04-.006c-.052-.017-.09-.066-.09-.123V9.273l.007-.04c.017-.052.066-.089.123-.089h3.149l.041-.006c.052-.017.089-.066.089-.123V7.897l-.006-.04c-.017-.05-.063-.088-.12-.089l-.119-.001c-.726-.011-2.863-.039-3.568-.004l-.04-.004c-.05-.014-.089-.058-.092-.113l-.006-.102c-.015-.345-.021-1.024-.017-1.61l.007-.112c.06-.515.499-.913 1.033-.911h.203c.97 0 2.207-.016 2.6-.022l.04-.007c.05-.017.085-.066.085-.122V3.622l.003-.22c.007-.308.023-.667.004-1.06l.005-.042c.014-.052.059-.092.116-.094.224-.008.547-.01.891-.01zm59.951.366l.08.008c.182.037.318.197.318.389v2.55l.008.08c.036.179.193.315.383.318l.236.003c.423.005.974.01 1.367.003l.08.006c.18.034.319.187.324.377l.006.24c.009.514.007 1.224-.006 1.663l-.01.08c-.042.18-.206.31-.398.303l-.131-.004c-.634-.018-1.591-.028-1.821-.03h-.05l2.246.485-.017.076c-.02.085-.051.194-.092.33l-.096.344c-.378 1.348-.682 2.349-.91 3.016l-.018.076c-.03.23.146.443.39.446l.24.004h.477l.08.007c.18.034.318.191.32.383l.002.241c0 .519-.01 1.229-.017 1.663l-.01.08c-.039.178-.198.31-.388.31h-1.837l-.08.008c-.181.037-.318.197-.318.389v1.314l.008.08c.04.204.237.347.452.313l.256-.042c.451-.073 1.011-.162 1.398-.221l.077-.005c.2.007.367.165.38.372l.114 1.815-.002.074c-.02.167-.146.308-.317.34l-.217.042c-.617.116-1.514.275-1.971.354l-.07.02c-.136.05-.233.174-.253.32l-.055.361c-.427 2.617-1.534 4.624-3.321 6.022l-.069.043c-.167.08-.373.027-.49-.127l-.239-.303c-.324-.397-.679-.77-1.062-1.119l-.055-.06c-.127-.17-.108-.415.068-.547l.213-.168c.97-.803 1.62-1.9 1.95-3.29l.011-.075c.012-.249-.211-.46-.47-.415l-.297.052-1.046.185-.08.006c-.18-.003-.34-.133-.379-.317l-.404-1.96-.008-.074c-.003-.197.14-.37.342-.399l.227-.032c.645-.09 1.57-.22 2.073-.293l.07-.017c.16-.054.27-.203.27-.376v-1.881l-.009-.08c-.036-.178-.192-.314-.382-.317l-.22-.004c-.55-.009-1.35-.018-1.85-.007l-.08-.006c-.183-.034-.322-.192-.324-.385l-.002-.24c0-.519.01-1.227.017-1.66l.01-.079c.039-.178.198-.31.388-.31h.701l.08-.008c.183-.037.323-.195.32-.387l-.012-.332c-.047-.899-.224-1.904-.532-3.029l-.013-.08c-.013-.184.103-.36.289-.411l1.414-.388.077-.014c.18-.013.353.096.41.273l.124.418c.275.983.45 2.029.522 3.137l-.003.08c-.021.155-.135.289-.291.331l-1.5.41h4.276l-1.191-.269-.078-.026c-.173-.079-.268-.272-.216-.463l.121-.467c.235-.946.427-1.975.576-3.085l.003-.078c-.014-.205-.186-.375-.4-.375h-2.22c-.257.003-1.453.016-2.164.038l-.081-.006c-.184-.032-.325-.19-.327-.385l-.002-.241c0-.519.01-1.23.017-1.664l.01-.079c.038-.178.198-.31.388-.31h1.715l.08-.008c.182-.037.318-.197.318-.39V2.959l.008-.08c.037-.181.198-.317.39-.317h2.181zm6.32 0l.08.008c.182.037.319.196.319.388l-.001.311c-.005 1.276-.02 2.895-.047 4.844l.007.081c.035.184.196.326.39.326h2.686l.081.008c.184.037.322.198.32.392l-.01.432-.015.438-.007.538c-.07 5.682-.159 9.518-.264 11.508l-.018.316c-.128 2.172-.339 3.507-.632 4.006l-.102.166c-.355.533-.844.864-1.468.996l-.136.03c-.388.073-.965.102-1.732.087l-.073-.008c-.165-.036-.29-.179-.31-.352l-.048-.362c-.074-.472-.187-.908-.34-1.308l-.02-.073c-.044-.242.145-.471.405-.461l.284.009c.195.004.4.007.617.007l.111-.007c.25-.034.439-.185.566-.453l.03-.058c.183-.384.317-1.473.402-3.264l.01-.194c.083-1.797.151-4.865.202-9.205l-.007-.08c-.035-.185-.196-.326-.39-.326h-.246l-.078.008c-.176.035-.31.189-.319.374l-.032.675c-.162 3.123-.471 5.859-.926 8.208l-.114.558c-.514 2.396-1.257 4.463-2.232 6.202l-.05.069c-.147.166-.418.18-.58.013l-.155-.156c-.326-.316-.737-.662-1.232-1.04l-.063-.058c-.11-.128-.13-.314-.038-.464l.191-.324c.877-1.54 1.552-3.446 2.026-5.719l.083-.428c.404-2.172.665-4.812.784-7.918h-.643c-.054.003-.129.007-.224.014l-.117.007c-.072.004-.132.006-.18.006l-.011-.01c-.047-.077-.07-.547-.07-1.408v-.192c.004-.8.03-1.21.08-1.226h.218l.126.012c.119.01.212.015.28.015h.622l.008-1.08c.008-1.45.007-2.947-.005-4.476l.008-.08c.036-.183.196-.322.39-.322h1.61zm-28.01.672v.017c.003.14.02 1.15.024 1.959v.355c0 .39-.007.673-.024.684l-.068-.006c-.41-.026-1.794.006-1.794.006v2.794h.014c.177.004 1.956.035 2.469 0l.007.02c.046.25.044 2.822-.007 2.856l-.072-.005c-.528-.028-2.41.005-2.41.005v4.707h2.266v2.079h.01c.186.003 2.638.043 4.751.047h.5c1.062 0 1.975-.013 2.375-.047l.007.025c.047.302.045 3.048-.007 3.134l-.079-.007c-.324-.026-1.042-.038-1.912-.04h-.74c-2.21.004-4.905.047-4.905.047v1.89h.04c.39.007 3.6.059 6.38.063h.549c1.444 0 2.703-.017 3.284-.064l.007.03c.042.34-.007 3.291-.007 3.291H73.468v-3.32h10.32v-1.89h-.01c-.164-.003-2.081-.034-3.981-.044l-.517-.003h-.998c-.96.003-1.77.016-2.143.047l-.007-.027c-.047-.318-.045-3.063.007-3.132l.08.007c.358.029 1.183.04 2.162.04h.501c.34 0 .692-.002 1.044-.004l.526-.004c1.743-.014 3.336-.04 3.336-.04v-1.62h-1.956v-5.165h-2.428l-.07.33c-.57 2.495-1.93 4.34-4.086 5.565l-.1-.137c-.213-.284-.512-.635-.898-1.051l-.164-.176c-.374-.396-.679-.688-.915-.877l.292-.16c1.523-.865 2.505-2.02 2.946-3.494h-.014c-.091-.002-.619-.01-1.192-.014l-.346-.002c-.46-.001-.9.002-1.12.016l-.007-.022c-.02-.113-.03-.647-.032-1.223v-.386c.002-.64.015-1.228.04-1.245l.059.007c.524.043 2.935-.007 2.935-.007V6.248h-.016c-.086-.002-.498-.01-.944-.014l-.335-.002c-.333 0-.644.003-.81.016l-.005-.016c-.027-.144-.019-1.233-.009-2.057l.008-.11c.06-.47.462-.832.946-.832h11.068zm89.808-1.038l.081.007c.21.038.37.22.37.441v.85l.007.08c.037.207.215.365.434.368l.186.003c1.805.028 6.997.097 8.788.019l.082.003c.216.03.383.208.388.432l.004.222c.006.478.005 1.154 0 1.857l-.006.706c-.007.82-.017 1.597-.024 2.062l-.008.08c-.04.205-.223.359-.443.359h-2.053l-.081.007c-.21.038-.37.22-.37.44v1.057l-.007.081c-.039.21-.222.367-.444.367h-1.561l-.083.007c-.368.064-.507.549-.193.795l.362.287c1.542 1.232 2.732 2.325 3.57 3.278l.051.07c.116.197.068.454-.126.592l-1.74 1.235-.075.043c-.183.083-.404.038-.536-.12l-.12-.142c-.21-.248-.472-.546-.785-.895l-.057-.054c-.083-.065-.189-.102-.296-.098l-4.785.143-.08.01c-.204.042-.358.222-.358.438v1.396l.007.08c.037.206.215.364.434.368l.187.004c.736.012 2.027.03 3.357.04l.727.003.36.002h.703c.802-.003 1.524-.012 2.035-.032l.082.004c.213.03.378.208.384.43l.005.256c.01.55.008 1.293-.005 1.767l-.01.081c-.044.21-.235.362-.459.353l-.215-.007c-.457-.014-1.07-.02-1.752-.021h-.701c-1.792.004-3.822.034-4.698.048l-.08.009c-.207.04-.36.221-.36.44v1.01l.006.079c.037.207.215.365.434.368l.184.003c1.121.017 3.563.05 5.765.054h.765c1.124-.001 2.129-.012 2.783-.039l.082.004c.213.03.379.207.384.43l.004.176c.005.248.007.546.008.85v.454c-.002.298-.006.58-.012.8l-.01.082c-.043.21-.232.362-.456.353l-.174-.006c-1.607-.056-5.78-.086-10.153-.09l-2.024.001c-4.548.005-8.92.037-10.47.098l-.083-.004c-.214-.03-.38-.208-.386-.43l-.005-.247c-.011-.62-.01-1.5.004-2.034l.01-.08c.044-.21.236-.363.46-.353l.217.008c.535.018 1.29.026 2.14.027h.75c2.303-.003 5.014-.041 6.06-.057l.08-.008c.206-.04.36-.223.36-.44v-1.01l-.007-.08c-.037-.206-.216-.364-.435-.367l-.196-.003c-.913-.014-2.654-.036-4.201-.039h-.697c-.675.003-1.275.01-1.699.025l-.082-.004c-.213-.031-.379-.208-.384-.43l-.006-.257c-.009-.55-.007-1.295.005-1.769l.01-.08c.043-.209.232-.362.453-.354l.216.007c.383.01.885.014 1.444.015h.694c1.667-.003 3.594-.028 4.443-.04l.08-.009c.208-.04.362-.222.362-.44v-1.26l-.007-.082c-.04-.213-.229-.372-.454-.365l-.21.007-1.868.06-.42.012c-2.064.057-3.608.095-4.633.116l-.08-.006c-.206-.032-.365-.206-.375-.422l-.094-1.977.003-.083c.03-.215.215-.383.441-.386l3.075-.044.082-.009c.134-.026.25-.11.313-.234l.047-.093c.033-.064.07-.134.112-.21l.123-.266c.199-.432.367-.803.506-1.116l.026-.074c.068-.274-.141-.552-.44-.552h-2.713l-.08-.007c-.211-.038-.37-.22-.37-.44v-1.057l-.008-.08c-.038-.21-.222-.368-.444-.368h-2.046l-.081-.008c-.21-.037-.37-.22-.37-.44V6.863l-.002-.262c-.007-.726-.04-1.648-.038-2.195l.008-.083c.04-.214.234-.37.462-.36l.212.008c2.03.067 7.296-.006 8.854-.03l.08-.008c.208-.04.362-.222.362-.44v-.847l.007-.08c.038-.21.222-.368.443-.369l2.76-.002h.001zM61.838 21.848H58.25l-.045.007c-.082.03-.113.14-.045.21l.263.283c.597.661 1.077 1.338 1.438 2.032l.014.047c.005.048-.018.096-.061.124l-1.02.642c.73.037 1.623.054 2.68.054l.104-.01c.26-.038.39-.171.39-.397v-2.864l-.007-.04c-.017-.052-.066-.088-.123-.088zm.186-19.637l.041.007c.052.017.09.066.09.122v1.616l.006.04c.017.052.066.089.123.089h5.134l.041.006c.052.017.089.066.089.123V6.43l-.007.04c-.017.052-.065.089-.123.089h-5.134l-.041.006c-.052.017-.089.066-.089.123v.694l.007.04c.017.052.066.089.123.089h4.642l.04.006c.052.017.09.066.09.123v7.032l-.007.04c-.017.052-.066.089-.123.089h-.713l-.044.007c-.08.029-.113.133-.052.205l.325.392c.632.786 1.163 1.589 1.592 2.407l.013.04c.009.055-.019.11-.071.137l-2.008.998-.04.012c-.054.007-.11-.022-.136-.073l-.09-.178c-.117-.23-.22-.425-.306-.586l-.03-.038c-.024-.02-.056-.03-.09-.028l-.917.032c-3.637.124-6.868.211-9.86.262l-.042-.006c-.052-.017-.09-.066-.09-.124V16.21l.007-.041c.017-.051.066-.088.123-.088l.401-.001c1.338-.006 2.693-.031 4.424-.077l.04-.008c.051-.017.089-.066.089-.121v-.943l-.007-.04c-.017-.052-.066-.09-.123-.09h-4.418l-.041-.006c-.052-.017-.09-.065-.09-.122V7.641l.007-.04c.018-.052.067-.09.124-.09h4.404l.041-.006c.052-.017.09-.065.09-.122v-.694l-.007-.04c-.018-.052-.066-.09-.124-.09h-4.813l-.04-.005c-.051-.017-.089-.062-.09-.119l-.001-.102c-.006-.268-.014-.733-.018-1.17l.005-.115c.053-.528.5-.938 1.046-.933l.215.001h.701c1.213-.002 2.583-.023 2.999-.03l.04-.006c.05-.018.086-.066.086-.123V2.34l.007-.04c.017-.052.066-.089.123-.089h2.457zm34.188.716l-.052 11.375-.004.251c-.017.65-.106 1.142-.266 1.478l-.075.157c-.19.354-.498.626-.923.815l-.091.036c-.903.318-4.064.476-4.064.476l-.145-2.807h.015c.088.003.55.013 1.04.015h.328c.27 0 .524-.005.704-.015l.102-.011c.256-.043.384-.192.384-.448l-.13-11.295 3.177-.027zm-48.79 12.202h-1.273l-.041.006c-.052.017-.089.066-.089.123v.685c0 .437.356.79.795.79h.607l.041-.006c.052-.017.089-.065.089-.122v-1.347l-.007-.041c-.017-.051-.065-.088-.123-.088zm3.692 0h-1.381l-.041.006c-.052.017-.09.066-.09.123v1.347c0 .071.059.129.13.129h.691l.103-.007c.405-.05.718-.393.718-.809v-.66l-.007-.041c-.017-.051-.066-.088-.123-.088zm12.878-.327h-1.703l-.041.006c-.052.018-.09.066-.09.123v.882c0 .072.06.13.13.13h.003l1.591-.026-.083-.102c-.105-.127-.187-.22-.245-.279l-.083-.102c-.106-.127-.187-.22-.245-.278l.766-.354zm74.241-8.318l3.006 2.33-5.855 7.055-2.58-2.278 5.43-7.107zm3.245-3.191l9.568.1.224.54c.697 1.616 1.6 3.18 2.707 4.694l.323.432c1.189 1.555 2.439 2.822 3.749 3.8l-.191.108c-.391.231-.839.553-1.343.963l-.244.203c-.475.398-.86.76-1.154 1.086l-.356-.324c-2.243-2.084-4.242-4.869-5.995-8.357l-8.17.163V4.166c0-.483.391-.873.873-.873h.01zm36.382 8.343h-3.875l-.08.008c-.13.024-.246.106-.312.222l-.244.42c-.24.411-.47.796-.691 1.155-.185.3.034.678.385.678h.007l2.612-.041 2.22-.053.082-.009c.362-.07.493-.55.185-.792l-.032-.026-.032-.025-.064-.061c-.169-.197-.133-.504.093-.657l.066-.054c.276-.268.094-.765-.32-.765zm-53.88-3.09h-1.805l-.08.008c-.227.045-.371.283-.297.516l.153.501c.288.999.47 1.972.543 2.919l-.002.08c-.02.155-.134.288-.29.332l-1.42.398h4.521l-1.361-.335-.077-.027c-.17-.081-.26-.274-.208-.463l.18-.684c.23-.916.41-1.847.541-2.792l.003-.078c-.013-.206-.186-.375-.4-.375zM89.602 3.892c.769.001 1.575.011 1.765.013l.042.001v.046c-.004.334-.026 2.425-.035 4.535l-.003.575-.001.568-.001.553c-.001 1.45.008 2.658.04 2.959l-.026.008c-.084.016-.355.022-.705.024h-.372c-.91-.006-2.052-.032-2.052-.032v-.102c.004-.444.019-2.268.027-4.177l.003-.861.001-.567V6.096c-.002-1.085-.01-1.933-.031-2.188.243-.012.696-.016 1.184-.016zM64.3 11.973h-2.01l-.041.007c-.052.017-.09.065-.09.123v.83c0 .07.059.128.13.128h1.55l.096-.007c.281-.046.496-.289.496-.581v-.37l-.007-.041c-.017-.052-.066-.089-.124-.089zm-4.978 0H57.42l-.04.007c-.052.017-.09.065-.09.123v.375c0 .322.263.583.587.583h1.445l.041-.006c.052-.017.089-.066.089-.123v-.83l-.007-.04c-.017-.052-.066-.089-.123-.089zm-11.9-.57h-.588l-.102.005c-.401.05-.712.39-.712.803v.667c0 .071.058.129.13.129h1.272l.041-.007c.052-.017.089-.065.089-.122V11.53l-.007-.04c-.017-.052-.065-.089-.123-.089zm3.005 0h-.693l-.041.006c-.052.017-.09.065-.09.122v1.347c0 .071.059.129.13.129h1.382l.041-.007c.052-.017.089-.065.089-.122v-.663l-.006-.102c-.051-.4-.395-.71-.812-.71zm8.895-2.15h-1.447l-.094.008c-.279.045-.49.285-.49.574v.35c0 .071.058.129.13.129h1.901l.041-.007c.052-.017.089-.065.089-.122v-.803l-.007-.04c-.017-.052-.066-.089-.123-.089zm4.522 0H62.29l-.041.007c-.052.017-.09.065-.09.122v.803c0 .071.059.129.13.129H64.3l.042-.007c.051-.017.089-.065.089-.122v-.348l-.008-.095c-.045-.277-.287-.489-.579-.489zM81.15 6.248h-.87l-.101.007c-.331.05-.585.335-.585.68v1.418c0 .38.308.69.689.69h.854l.094-.007c.34-.046.602-.338.602-.69V6.93l-.007-.101c-.05-.33-.333-.582-.676-.582zm101.925.723H166.83l-.081.008c-.21.038-.37.22-.37.44v1.03c0 .248.202.449.45.449h16.245l.081-.008c.21-.038.37-.22.37-.44V7.42l-.007-.08c-.039-.21-.223-.369-.444-.369z" transform="translate(-60 -25) translate(60 25)"/>
            </g>
        </g>
    </g>
</svg>
