<?xml version="1.0" encoding="UTF-8"?>
<svg width="124px" height="124px" viewBox="0 0 124 124" version="1.1" xmlns="http://www.w3.org/2000/svg" xmlns:xlink="http://www.w3.org/1999/xlink">
    <title>ICON/play</title>
    <defs>
        <linearGradient x1="90.4011835%" y1="30.701358%" x2="50%" y2="100%" id="linearGradient-1">
            <stop stop-color="#00D7D0" offset="0%"></stop>
            <stop stop-color="#10E49A" offset="100%"></stop>
        </linearGradient>
    </defs>
    <g id="Symbols" stroke="none" stroke-width="1" fill="none" fill-rule="evenodd">
        <g id="ICON/play" fill="url(#linearGradient-1)" fill-rule="nonzero">
            <path d="M62,0 C96.2416545,0 124,27.7583455 124,62 C124,96.2416545 96.2416545,124 62,124 C27.7583455,124 0,96.2416545 0,62 C0,27.7583455 27.7583455,0 62,0 Z M46,47 L43,47 C40.790861,47 39,48.790861 39,51 L39,51 L39,76 C39,78.209139 40.790861,80 43,80 L43,80 L46,80 C48.209139,80 50,78.209139 50,76 L50,76 L50,51 C50,48.790861 48.209139,47 46,47 L46,47 Z M57.4477495,50.6672647 C57.1520874,51.3890594 57,52.1615784 57,52.9415808 L57,73.5050935 C57,76.818802 59.6862915,79.5050935 63,79.5050935 C64.0704935,79.5050935 65.121494,79.218693 66.0439924,78.6755973 L86.6416316,66.5493017 C89.4972221,64.8681511 90.4492937,61.1903959 88.7681431,58.3348055 C88.1028088,57.2046734 87.0855269,56.3236512 85.8719553,55.8265473 L65.2743161,47.3893302 C62.2078928,46.1332601 58.7038196,47.6008414 57.4477495,50.6672647 Z" id="Combined-Shape"></path>
        </g>
    </g>
</svg>