<svg xmlns="http://www.w3.org/2000/svg" width="1000" height="78" viewBox="0 0 1000 78">
    <defs>
        <linearGradient id="fmppvzksfa" x1="1.611%" x2="73.64%" y1="49.703%" y2="50.325%">
            <stop offset="0%" stop-color="#44A8F2"/>
            <stop offset="100%" stop-color="#4ED497"/>
        </linearGradient>
    </defs>
    <g fill="none" fill-rule="evenodd">
        <g fill="url(#fmppvzksfa)" transform="translate(-227 -411)">
            <g>
                <path d="M38.086 76.025v-57.86h21.338V4.931H0v13.232h20.947v57.861h17.139zm44.385 0V42.578c1.465-3.255 4.785-4.883 9.96-4.883l5.42.39.294-15.282c-1.303-.39-2.832-.586-4.59-.586-4.948 0-8.806 2.588-11.573 7.763l-.537-6.787h-15.43v52.832h16.456zm36.816.977c5.436 0 9.668-1.904 12.695-5.713.456 2.083.977 3.662 1.563 4.736H150v-.83c-1.432-2.571-2.181-6.282-2.246-11.132v-23.39c-.098-5.728-2.1-10.237-6.006-13.525-3.906-3.287-9.228-4.931-15.967-4.931-6.738 0-12.28 1.595-16.626 4.785-4.345 3.19-6.518 7.34-6.518 12.451h16.455c0-3.841 1.953-5.762 5.86-5.762 4.198 0 6.298 2.426 6.298 7.276v2.783h-5.078c-8.073 0-14.225 1.465-18.457 4.395-4.232 2.93-6.348 7.259-6.348 12.988 0 4.557 1.742 8.341 5.225 11.352 3.483 3.011 7.715 4.517 12.695 4.517zm3.955-11.719c-1.562 0-2.848-.464-3.857-1.391-1.01-.928-1.514-2.14-1.514-3.638 0-5.143 2.865-7.715 8.594-7.715h4.785v8.447c-.586 1.107-1.554 2.1-2.905 2.979-1.351.879-3.052 1.318-5.103 1.318zm49.756 10.742V38.721c1.563-2.54 3.955-3.809 7.178-3.809 2.832 0 4.785.627 5.86 1.88 1.073 1.253 1.61 3.215 1.61 5.884v33.35h16.504V41.991c-.097-6.608-1.505-11.556-4.223-14.844-2.718-3.287-6.828-4.931-12.33-4.931-6.412 0-11.441 2.392-15.087 7.178l-.537-6.202h-15.43v52.832h16.455zm60.742.977c6.804 0 12.346-1.514 16.626-4.541 4.28-3.027 6.421-6.95 6.421-11.768 0-7.063-3.971-11.963-11.914-14.697-2.376-.814-5.135-1.514-8.276-2.1-3.142-.585-5.428-1.334-6.86-2.246-1.433-.911-2.15-2.1-2.15-3.564 0-1.432.587-2.629 1.759-3.589s2.62-1.44 4.345-1.44c4.46 0 6.69 2.116 6.69 6.347h16.504c0-5.143-2.116-9.293-6.348-12.45-4.232-3.158-9.83-4.737-16.797-4.737-6.478 0-11.719 1.57-15.722 4.712-4.004 3.141-6.006 7.137-6.006 11.987 0 2.734.7 5.16 2.1 7.275 1.4 2.116 3.434 3.915 6.103 5.396 2.67 1.481 6.055 2.677 10.156 3.589 4.102.911 6.885 1.79 8.35 2.636 1.465.847 2.197 1.97 2.197 3.37 0 1.464-.562 2.653-1.685 3.564-1.123.912-2.807 1.367-5.053 1.367-2.442 0-4.444-.561-6.006-1.684-1.563-1.123-2.376-2.906-2.442-5.347h-15.38c0 3.092.992 6.038 2.978 8.838 1.986 2.8 4.753 5.013 8.3 6.64 3.549 1.628 7.585 2.442 12.11 2.442zm50.88-.977V34.62h10.302V23.193h-10.303v-4.052c0-4.297 2.49-6.446 7.47-6.446 1.694 0 3.044.147 4.054.44l-.05-12.11C293.295.342 290.724 0 288.38 0c-6.413 0-11.393 1.66-14.942 4.98-3.548 3.32-5.322 7.992-5.322 14.014v4.2h-7.666v11.425h7.666v41.406h16.504zm39.55.977c7.812 0 14.005-2.417 18.579-7.251 4.574-4.834 6.86-11.369 6.86-19.605v-.585c0-8.431-2.278-15.096-6.836-19.996-4.557-4.899-10.79-7.348-18.7-7.348-5.177 0-9.685 1.107-13.526 3.32-3.841 2.214-6.787 5.38-8.838 9.497-2.05 4.118-3.076 8.814-3.076 14.087l.049 2.783c.358 7.715 2.815 13.827 7.373 18.335 4.557 4.509 10.595 6.763 18.115 6.763zm0-12.695c-2.995 0-5.257-1.14-6.787-3.418-1.53-2.279-2.295-5.86-2.295-10.743l.049-2.978c.455-8.17 3.434-12.256 8.935-12.256 6.055 0 9.082 4.736 9.082 14.21v1.66c-.13 9.016-3.125 13.525-8.984 13.525zm49.267 11.718V42.578c1.465-3.255 4.786-4.883 9.961-4.883l5.42.39.293-15.282c-1.302-.39-2.832-.586-4.59-.586-4.947 0-8.805 2.588-11.572 7.763l-.537-6.787h-15.43v52.832h16.455zm37.891 0V39.258c1.66-2.897 4.07-4.346 7.227-4.346 2.474 0 4.15.619 5.029 1.856.879 1.237 1.318 3.239 1.318 6.005v33.252h16.504V39.941l-.049-.683c1.595-2.897 4.02-4.346 7.276-4.346 2.409 0 4.069.619 4.98 1.856.912 1.237 1.367 3.206 1.367 5.908v33.35h16.504V41.65c-.293-12.955-5.794-19.433-16.504-19.433-6.77 0-11.946 2.653-15.527 7.959-2.344-5.306-6.852-7.96-13.525-7.96-6.315 0-11.345 2.393-15.088 7.179l-.537-6.202h-15.43v52.832h16.455zm85.059.977c5.436 0 9.668-1.904 12.695-5.713.456 2.083.977 3.662 1.563 4.736H527.1v-.83c-1.433-2.571-2.181-6.282-2.246-11.132v-23.39c-.098-5.728-2.1-10.237-6.006-13.525-3.907-3.287-9.229-4.931-15.967-4.931-6.738 0-12.28 1.595-16.626 4.785-4.346 3.19-6.519 7.34-6.519 12.451h16.455c0-3.841 1.954-5.762 5.86-5.762 4.199 0 6.299 2.426 6.299 7.276v2.783h-5.079c-8.072 0-14.225 1.465-18.457 4.395-4.231 2.93-6.347 7.259-6.347 12.988 0 4.557 1.741 8.341 5.224 11.352 3.483 3.011 7.715 4.517 12.696 4.517zm3.955-11.719c-1.563 0-2.849-.464-3.858-1.391-1.009-.928-1.513-2.14-1.513-3.638 0-5.143 2.864-7.715 8.593-7.715h4.786v8.447c-.586 1.107-1.555 2.1-2.906 2.979-1.35.879-3.051 1.318-5.102 1.318zm52.93 11.719c3.222 0 6.315-.472 9.277-1.416V63.818c-1.107.196-2.474.293-4.102.293-2.116 0-3.532-.39-4.248-1.172-.716-.78-1.074-2.164-1.074-4.15V34.62h8.691V23.193h-8.691V10.06H536.67v13.134h-6.738V34.62h6.738v26.22c0 5.437 1.35 9.49 4.053 12.159 2.701 2.67 6.884 4.004 12.548 4.004zm24.023-59.424c2.702 0 4.899-.749 6.592-2.246 1.692-1.497 2.539-3.418 2.539-5.762 0-2.343-.847-4.264-2.54-5.761-1.692-1.498-3.89-2.247-6.591-2.247-2.702 0-4.9.75-6.592 2.247-1.693 1.497-2.539 3.418-2.539 5.761 0 2.344.846 4.265 2.54 5.762 1.692 1.497 3.89 2.246 6.59 2.246zm8.35 58.447V23.193H569.14v52.832h16.504zm33.593.977c7.813 0 14.006-2.417 18.58-7.251 4.573-4.834 6.86-11.369 6.86-19.605v-.585c0-8.431-2.279-15.096-6.836-19.996-4.557-4.899-10.791-7.348-18.701-7.348-5.176 0-9.685 1.107-13.526 3.32-3.84 2.214-6.787 5.38-8.838 9.497-2.05 4.118-3.076 8.814-3.076 14.087l.049 2.783c.358 7.715 2.816 13.827 7.373 18.335 4.557 4.509 10.596 6.763 18.115 6.763zm0-12.695c-2.995 0-5.257-1.14-6.787-3.418-1.53-2.279-2.295-5.86-2.295-10.743l.05-2.978c.455-8.17 3.433-12.256 8.935-12.256 6.054 0 9.082 4.736 9.082 14.21v1.66c-.13 9.016-3.125 13.525-8.985 13.525zm48.828 11.718V38.721c1.563-2.54 3.955-3.809 7.178-3.809 2.832 0 4.785.627 5.86 1.88 1.074 1.253 1.61 3.215 1.61 5.884v33.35h16.505V41.991c-.098-6.608-1.506-11.556-4.224-14.844-2.718-3.287-6.828-4.931-12.329-4.931-6.413 0-11.442 2.392-15.088 7.178l-.537-6.202h-15.43v52.832h16.455zm95.118.977c6.054 0 11.45-1.44 16.186-4.321 4.736-2.881 8.39-6.99 10.962-12.33 2.572-5.338 3.857-11.474 3.857-18.408v-3.271c-.032-6.836-1.359-12.899-3.979-18.189-2.62-5.29-6.29-9.366-11.01-12.231s-10.092-4.297-16.114-4.297c-6.087 0-11.515 1.449-16.284 4.346-4.77 2.897-8.431 7.007-10.987 12.329-2.555 5.322-3.833 11.466-3.833 18.433v4.003c.13 6.706 1.506 12.647 4.126 17.823 2.62 5.175 6.275 9.155 10.962 11.938 4.688 2.783 10.059 4.175 16.114 4.175zm0-13.379c-4.558 0-7.992-1.872-10.303-5.615-2.311-3.744-3.467-9.098-3.467-16.065l.049-5.224c.488-12.89 5.03-19.336 13.623-19.336 4.394 0 7.772 1.83 10.132 5.493 2.36 3.662 3.54 9.025 3.54 16.089v3.271c-.033 6.901-1.22 12.191-3.565 15.87-2.343 3.678-5.68 5.517-10.01 5.517zm59.228 12.402V34.62h16.65v41.406h16.553V34.62h10.303V23.193h-10.303v-.927c0-5.73 3.142-8.594 9.424-8.594 3.906 0 7.634.472 11.182 1.416l2.734.732 2.295-12.988C874.577.944 868.831 0 864.014 0c-7.715 0-13.721 1.758-18.018 5.273-4.525 3.744-6.836 9.131-6.933 16.163v1.757h-16.65v-4.052c0-4.297 2.49-6.446 7.47-6.446 1.693 0 3.043.147 4.053.44l-.05-12.11C831.088.342 828.517 0 826.173 0c-6.413 0-11.393 1.66-14.942 4.98-3.548 3.32-5.322 7.992-5.322 14.014v4.2h-7.666v11.425h7.666v41.406h16.504zm66.358 0V23.193h-16.504v52.832h16.504zm32.812.977c6.543 0 11.89-1.856 16.04-5.566 4.15-3.711 6.226-8.464 6.226-14.258h-15.43c.033 2.246-.586 3.996-1.856 5.249-1.269 1.253-3.06 1.88-5.37 1.88-2.768 0-4.786-1.026-6.055-3.077-1.27-2.05-1.905-5.729-1.905-11.035 0-3.027.114-5.403.342-7.129.716-5.436 3.207-8.154 7.47-8.154 2.247 0 4.037.733 5.372 2.197 1.335 1.465 2.002 3.565 2.002 6.3h15.43c0-6.511-2.019-11.67-6.055-15.48-4.036-3.808-9.489-5.712-16.357-5.712-5.079 0-9.473 1.098-13.184 3.296-3.711 2.197-6.551 5.338-8.52 9.424-1.97 4.085-2.955 8.797-2.955 14.135v.684c0 8.529 2.214 15.202 6.641 20.02 4.427 4.817 10.482 7.226 18.164 7.226zm54.785 0c4.33 0 8.374-.838 12.134-2.515 3.76-1.676 6.665-3.93 8.716-6.762l-7.52-8.887c-2.93 3.646-6.998 5.469-12.207 5.469-3.157 0-5.729-.847-7.715-2.54-1.985-1.692-3.271-4.02-3.857-6.982h32.715V48.39c0-8.236-2.149-14.657-6.446-19.263-4.296-4.606-10.156-6.91-17.578-6.91-5.273 0-9.83 1.132-13.672 3.394-3.84 2.263-6.762 5.461-8.764 9.595s-3.003 8.903-3.003 14.307v1.367c0 7.747 2.506 14.038 7.52 18.872 5.012 4.834 11.572 7.251 19.677 7.251zm6.153-32.52h-16.602c.911-6.38 3.776-9.57 8.594-9.57 2.604 0 4.606.724 6.006 2.173 1.4 1.449 2.067 3.491 2.002 6.128v1.27z" transform="translate(227.758 411.975)"/>
            </g>
        </g>
    </g>
</svg>
