<?xml version="1.0" encoding="UTF-8"?>
<svg width="90px" height="81px" viewBox="0 0 90 81" version="1.1" xmlns="http://www.w3.org/2000/svg" xmlns:xlink="http://www.w3.org/1999/xlink">
    <title>Combined Shape</title>
    <defs>
        <linearGradient x1="70.2066807%" y1="89.8596939%" x2="50%" y2="10.1403061%" id="linearGradient-1">
            <stop stop-color="#44A8F2" offset="0%"></stop>
            <stop stop-color="#4DD497" offset="100%"></stop>
        </linearGradient>
    </defs>
    <g id="Page-1" stroke="none" stroke-width="1" fill="none" fill-rule="evenodd">
        <g id="Group-22-Copy" transform="translate(0.000000, 0.000000)" fill="url(#linearGradient-1)">
            <g id="logo" transform="translate(0.000000, 0.000000)">
                <g id="Group" transform="translate(0.000000, 0.000000)">
                    <path d="M44.9191836,37.1533086 L45.273005,37.1561983 C56.9268046,37.3466703 66.3478887,46.9290384 66.3478887,58.6830008 L66.3478887,58.6830008 L66.3450124,59.0384741 C66.1554209,70.7467019 56.6173551,80.2139037 44.9191836,80.2139037 L44.9191836,80.2139037 L44.5653979,80.2110134 C32.9127676,80.0204941 23.4916835,70.4357646 23.4916835,58.6830008 C23.4916835,46.8103115 33.1040537,37.1533086 44.9191836,37.1533086 L44.9191836,37.1533086 Z M44.9191836,47.9108902 L44.6340057,47.9146457 C38.8535168,48.0670537 34.1982035,52.83883 34.1982035,58.6830008 C34.1982035,64.6241885 39.0074011,69.4563222 44.9191836,69.4563222 L44.9191836,69.4563222 L45.2044189,69.4525666 C50.9860554,69.3001584 55.6413687,64.5283629 55.6413687,58.6830008 L55.6413687,58.6830008 L55.637631,58.3964628 C55.4859462,52.5884057 50.7368003,47.9108902 44.9191836,47.9108902 L44.9191836,47.9108902 Z M44.9191836,7.80647086e-14 L89.8395722,33.7898239 L72.0295142,33.6626944 L44.9191836,13.4394097 L16.7291634,33.6626944 L7.76923386e-12,33.7898239 L44.9191836,7.80647086e-14 Z" id="Combined-Shape"></path>
                </g>
            </g>
        </g>
    </g>
</svg>