<svg xmlns="http://www.w3.org/2000/svg" width="702" height="100" viewBox="0 0 702 100">
    <g fill="none" fill-rule="evenodd" opacity=".042">
        <g fill="#000" fill-rule="nonzero">
            <g>
                <path d="M42.72 97.5l12.124-52.686L67.222 97.5h23.105l19.614-92.422h-22.09l-10.6 57.954L64.365 5.078H45.45L32.754 63.032l-10.6-57.954H0L19.678 97.5H42.72zm95.85 0V48.242c1.819-2.793 4.93-4.19 9.33-4.19 3.555 0 6.073.858 7.554 2.572 1.481 1.713 2.222 4.39 2.222 8.03V97.5h21.455V54.146c-.085-8.76-2.053-15.383-5.903-19.869-3.851-4.485-9.564-6.728-17.14-6.728-7.109 0-12.948 2.877-17.519 8.633V0h-21.391v97.5h21.391zm72.617 1.27c7.067 0 12.568-2.476 16.503-7.427.593 2.708 1.27 4.76 2.032 6.157h21.391v-1.08c-1.862-3.342-2.835-8.166-2.92-14.472V51.543c-.127-7.448-2.73-13.309-7.807-17.583-5.078-4.274-11.997-6.411-20.757-6.411-8.76 0-15.964 2.073-21.614 6.22-5.65 4.148-8.474 9.543-8.474 16.187h21.392c0-4.993 2.539-7.49 7.617-7.49 5.459 0 8.188 3.152 8.188 9.458v3.618h-6.601c-10.495 0-18.493 1.904-23.994 5.713-5.502 3.808-8.252 9.437-8.252 16.885 0 5.924 2.264 10.844 6.792 14.758 4.528 3.914 10.029 5.872 16.504 5.872zm5.141-15.235c-2.031 0-3.703-.603-5.015-1.809-1.311-1.206-1.967-2.782-1.967-4.729 0-6.686 3.724-10.03 11.172-10.03h6.22V77.95c-.761 1.439-2.02 2.73-3.777 3.872-1.756 1.143-3.967 1.714-6.633 1.714zm68.809 15.235c4.19 0 8.21-.614 12.06-1.841V81.63c-1.439.254-3.216.38-5.332.38-2.75 0-4.591-.507-5.522-1.523-.931-1.015-1.397-2.814-1.397-5.395V43.672h11.3V28.818h-11.3V11.743h-21.391v17.075h-8.76v14.854h8.76v34.087c0 7.067 1.756 12.335 5.268 15.805 3.513 3.47 8.95 5.206 16.314 5.206zm89.946-1.27l12.124-52.686L399.585 97.5h23.105l19.615-92.422h-22.09l-10.6 57.954-12.886-57.954h-18.916l-12.696 57.954-10.6-57.954h-22.154L352.041 97.5h23.042zm108.164 1.27c5.628 0 10.886-1.09 15.774-3.27 4.888-2.179 8.665-5.11 11.33-8.791l-9.775-11.553c-3.808 4.74-9.098 7.11-15.869 7.11-4.105 0-7.448-1.1-10.03-3.301-2.58-2.2-4.252-5.226-5.014-9.077h42.53v-8.316c0-10.706-2.794-19.053-8.38-25.041-5.585-5.988-13.203-8.982-22.851-8.982-6.856 0-12.78 1.47-17.774 4.411-4.993 2.942-8.791 7.1-11.394 12.474-2.602 5.374-3.903 11.573-3.903 18.598v1.778c0 10.071 3.258 18.25 9.775 24.533 6.517 6.284 15.044 9.427 25.581 9.427zm7.998-42.276h-21.582c1.185-8.294 4.909-12.441 11.172-12.441 3.385 0 5.988.941 7.808 2.824 1.82 1.884 2.687 4.539 2.602 7.967v1.65zm93.31 41.006c7.999-.042 15.246-1.957 21.741-5.745 6.496-3.787 11.532-9.034 15.108-15.742 3.576-6.707 5.364-14.293 5.364-22.756v-4.253c-.043-8.379-1.894-15.943-5.555-22.693-3.66-6.75-8.749-11.976-15.266-15.679-6.517-3.702-13.859-5.554-22.026-5.554h-29.77V97.5h30.405zm-.38-17.139h-7.744v-58.08h7.49c6.56 0 11.553 2.263 14.98 6.791 3.428 4.528 5.142 11.257 5.142 20.186v3.999c0 8.971-1.714 15.731-5.142 20.28-3.427 4.55-8.336 6.824-14.726 6.824zM667.71 98.77c10.156 0 18.207-3.143 24.153-9.427 5.945-6.284 8.918-14.78 8.918-25.486v-.761c0-10.96-2.962-19.625-8.886-25.994-5.925-6.369-14.029-9.553-24.312-9.553-6.729 0-12.59 1.439-17.583 4.316-4.993 2.878-8.823 6.993-11.49 12.346-2.665 5.354-3.998 11.458-3.998 18.313l.063 3.619c.466 10.029 3.66 17.974 9.585 23.835 5.925 5.861 13.775 8.792 23.55 8.792zm0-16.504c-3.893 0-6.834-1.481-8.823-4.444-1.99-2.962-2.984-7.617-2.984-13.965l.064-3.872c.592-10.621 4.464-15.932 11.616-15.932 7.871 0 11.807 6.157 11.807 18.471v2.159c-.17 11.722-4.063 17.583-11.68 17.583z" transform="translate(-367 -1346) translate(367.333 1346.5)"/>
            </g>
        </g>
    </g>
</svg>
